{
.appVersion = "1192";
DisplayStrings = (
"Advent Pro\012ABCDEFGHIJKLMNOPQRSTUVWXYZ\012abcdefghijklmnopqrstuvwxyz"
);
copyright = "Copyright (c) 2019 The Advent Pro Project Authors (https://github.com/mjlagattuta/Advent), with Reserved Font Name \"Advent Pro\"";
customParameters = (
{
name = fsType;
value = (
);
},
{
name = Axes;
value = (
{
Name = Weight;
Tag = wght;
},
{
Name = Italic;
Tag = ital;
}
);
},
{
name = "Enforce Compatibility Check";
value = 1;
},
{
name = "Variable Font Origin";
value = master01;
},
{
name = license;
value = "This Font Software is licensed under the SIL Open Font License, Version 1.1. This license is available with a FAQ at: http://scripts.sil.org/OFL";
},
{
name = licenseURL;
value = "http://scripts.sil.org/OFL";
}
);
date = "2019-02-10 06:51:56 +0000";
designer = "Andreas Kalpakidis";
designerURL = "https://www.vivarado.com/";
disablesNiceNames = 1;
familyName = "Advent Pro";
featurePrefixes = (
{
automatic = 1;
code = "languagesystem DFLT dflt;\012languagesystem latn dflt;\012languagesystem latn ROM;\012languagesystem latn MOL;\012";
name = Languagesystems;
}
);
features = (
{
automatic = 1;
code = "feature locl;\012feature ordn;\012";
name = aalt;
},
{
automatic = 1;
code = "script latn;\012language ROM;\012sub Scedilla by Scommaaccent;\012sub scedilla by scommaaccent;\012language MOL;\012sub Scedilla by Scommaaccent;\012sub scedilla by scommaaccent;\012";
name = locl;
},
{
automatic = 1;
code = "sub [zero one two three four five six seven eight nine] [A a]' by ordfeminine;\012";
name = ordn;
},
{
automatic = 1;
code = "sub w w w by w_w_w;\012sub t t by t_t;\012";
name = dlig;
},
{
automatic = 1;
code = "sub f i by fi;\012sub f l by fl;\012";
name = liga;
notes = "	sub f l by fl;\012	sub f i by fi;\012	sub f f l by ffl;\012	sub f t by ft;\012	#\012	sub t t by t_t;\012	sub w w w by w_w_w;";
}
);
fontMaster = (
{
alignmentZones = (
"{962, 16}",
"{700, 15}",
"{500, 11}",
"{0, -20}",
"{-232, -16}"
);
ascender = 962;
capHeight = 700;

glyphs = (
{
glyphname = A;
lastChange = "2019-02-08 07:35:54 +0000";
layers = (
{
layerId = master01;
paths = (
{
closed = 1;
nodes = (
"466 0 LINE",
"386 244 LINE",
"159 244 LINE",
"81 0 LINE",
"21 0 LINE",
"245 698 LINE",
"298 698 LINE",
"525 0 LINE"
);
},
{
closed = 1;
nodes = (
"371 299 LINE",
"271 612 LINE",
"174 299 LINE"
);
}
);
width = 545;
},
{
layerId = "9D15C82E-7F80-48F0-B3D1-43822CDE4CEB";
paths = (
{
closed = 1;
nodes = (
"503 0 LINE",
"405 280 LINE",
"138 280 LINE",
"40 0 LINE",
"20 0 LINE",
"265 698 LINE",
"279 698 LINE",
"524 0 LINE"
);
},
{
closed = 1;
nodes = (
"399 299 LINE",
"272 658 LINE",
"146 299 LINE"
);
}
);
width = 542;
},
{
layerId = "0D2E68F6-AD65-4FDC-99B3-7B414CE95F5B";
paths = (
{
closed = 1;
nodes = (
"389 0 LINE",
"349 183 LINE",
"188 183 LINE",
"148 0 LINE",
"24 0 LINE",
"193 698 LINE",
"348 698 LINE",
"520 0 LINE"
);
},
{
closed = 1;
nodes = (
"324 300 LINE",
"269 555 LINE",
"215 300 LINE"
);
}
);
width = 543;
},
{
layerId = "BAA7A442-529C-4232-9150-0627B90683AA";
paths = (
{
closed = 1;
nodes = (
"466 0 LINE",
"437.864 244 LINE",
"210.864 244 LINE",
"81 0 LINE",
"21 0 LINE",
"393.364 698 LINE",
"446.364 698 LINE",
"525 0 LINE"
);
},
{
closed = 1;
nodes = (
"434.554 299 LINE",
"401.085 612 LINE",
"237.554 299 LINE"
);
}
);
width = 545;
},
{
layerId = "EC4DDAD4-4840-4BAF-BE24-E50FF90D752F";
paths = (
{
closed = 1;
nodes = (
"389 0 LINE",
"387.898 183 LINE",
"226.898 183 LINE",
"148 0 LINE",
"24 0 LINE",
"341.364 698 LINE",
"496.364 698 LINE",
"520 0 LINE"
);
},
{
closed = 1;
nodes = (
"387.767 300 LINE",
"386.969 555 LINE",
"278.767 300 LINE"
);
}
);
width = 543;
},
{
layerId = "350CE105-9128-4F96-9C2D-77D2DB4D6663";
paths = (
{
closed = 1;
nodes = (
"503 0 LINE",
"464.516 280 LINE",
"199.516 280 LINE",
"42 0 LINE",
"20 0 LINE",
"413.364 698 LINE",
"427.364 698 LINE",
"524 0 LINE"
);
},
{
closed = 1;
nodes = (
"462 299 LINE",
"413 656 LINE",
"211.554 299 LINE"
);
}
);
width = 542;
}
);
leftKerningGroup = A;
rightKerningGroup = A;
unicode = 0041;
},
{
glyphname = AE;
lastChange = "2019-02-08 07:35:54 +0000";
layers = (
{
layerId = master01;
paths = (
{
closed = 1;
nodes = (
"383 243 LINE",
"173 243 LINE",
"79 0 LINE",
"20 0 LINE",
"291 698 LINE",
"719 698 LINE",
"719 645 LINE",
"440 645 LINE",
"440 413 LINE",
"631 413 LINE",
"612 355 LINE",
"440 355 LINE",
"440 50 LINE",
"716 50 LINE",
"716 0 LINE",
"383 0 LINE"
);
},
{
closed = 1;
nodes = (
"383 299 LINE",
"383 645 LINE",
"329 645 LINE",
"194 299 LINE"
);
}
);
width = 750;
},
{
layerId = "9D15C82E-7F80-48F0-B3D1-43822CDE4CEB";
paths = (
{
closed = 1;
nodes = (
"382 279 LINE",
"149 279 LINE",
"41 0 LINE",
"19 0 LINE",
"290 698 LINE",
"714 698 LINE",
"714 678 LINE",
"402 678 LINE",
"402 413 LINE",
"630 413 LINE",
"622 393 LINE",
"402 393 LINE",
"402 20 LINE",
"714 20 LINE",
"714 0 LINE",
"382 0 LINE"
);
},
{
closed = 1;
nodes = (
"382 299 LINE",
"382 678 LINE",
"302 678 LINE",
"156 299 LINE"
);
}
);
width = 742;
},
{
layerId = "0D2E68F6-AD65-4FDC-99B3-7B414CE95F5B";
paths = (
{
closed = 1;
nodes = (
"387 193 LINE",
"222 193 LINE",
"150 0 LINE",
"21 0 LINE",
"292 698 LINE",
"721 698 LINE",
"721 588 LINE",
"495 588 LINE",
"495 413 LINE",
"647 413 LINE",
"613 306 LINE",
"495 306 LINE",
"495 100 LINE",
"719 100 LINE",
"719 0 LINE",
"387 0 LINE"
);
},
{
closed = 1;
nodes = (
"386 300 LINE",
"386 588 LINE",
"366 588 LINE",
"261 300 LINE"
);
}
);
width = 756;
},
{
layerId = "BAA7A442-529C-4232-9150-0627B90683AA";
paths = (
{
closed = 1;
nodes = (
"434.651 243 LINE",
"224.651 243 LINE",
"79 0 LINE",
"20 0 LINE",
"439.364 698 LINE",
"867.364 698 LINE",
"856.099 645 LINE",
"577.099 645 LINE",
"527.786 413 LINE",
"718.786 413 LINE",
"687.458 355 LINE",
"515.458 355 LINE",
"450.628 50 LINE",
"726.628 50 LINE",
"716 0 LINE",
"383 0 LINE"
);
},
{
closed = 1;
nodes = (
"446.554 299 LINE",
"520.099 645 LINE",
"466.099 645 LINE",
"257.554 299 LINE"
);
}
);
width = 750;
},
{
layerId = "EC4DDAD4-4840-4BAF-BE24-E50FF90D752F";
paths = (
{
closed = 1;
nodes = (
"428.023 193 LINE",
"263.023 193 LINE",
"150 0 LINE",
"21 0 LINE",
"440.364 698 LINE",
"869.364 698 LINE",
"845.983 588 LINE",
"619.983 588 LINE",
"582.786 413 LINE",
"734.786 413 LINE",
"678.042 306 LINE",
"560.042 306 LINE",
"516.256 100 LINE",
"740.256 100 LINE",
"719 0 LINE",
"387 0 LINE"
);
},
{
closed = 1;
nodes = (
"449.767 300 LINE",
"510.983 588 LINE",
"490.983 588 LINE",
"324.767 300 LINE"
);
}
);
width = 756;
},
{
layerId = "350CE105-9128-4F96-9C2D-77D2DB4D6663";
paths = (
{
closed = 1;
nodes = (
"441.303 279 LINE",
"208.303 279 LINE",
"41 0 LINE",
"19 0 LINE",
"438.364 698 LINE",
"862.364 698 LINE",
"858.113 678 LINE",
"546.113 678 LINE",
"489.786 413 LINE",
"717.786 413 LINE",
"705.535 393 LINE",
"485.535 393 LINE",
"406.251 20 LINE",
"718.251 20 LINE",
"714 0 LINE",
"382 0 LINE"
);
},
{
closed = 1;
nodes = (
"445.554 299 LINE",
"526.113 678 LINE",
"446.113 678 LINE",
"219.554 299 LINE"
);
}
);
width = 742;
}
);
leftKerningGroup = AE;
rightKerningGroup = AE;
unicode = 00C6;
},
{
glyphname = B;
lastChange = "2019-02-08 07:35:54 +0000";
layers = (
{
layerId = master01;
paths = (
{
closed = 1;
nodes = (
"373 698 OFFCURVE",
"438 642.667 OFFCURVE",
"438 528 CURVE SMOOTH",
"438 468 OFFCURVE",
"414 422.333 OFFCURVE",
"370 393 CURVE",
"370 389 LINE",
"428.667 363.667 OFFCURVE",
"474 304 OFFCURVE",
"474 208 CURVE SMOOTH",
"474 77.349 OFFCURVE",
"403.945 0 OFFCURVE",
"271 0 CURVE SMOOTH",
"41 0 LINE",
"41 698 LINE",
"261 698 LINE SMOOTH"
);
},
{
closed = 1;
nodes = (
"341.133 411 OFFCURVE",
"379 457.65 OFFCURVE",
"379 528 CURVE SMOOTH",
"379 606.667 OFFCURVE",
"337 645 OFFCURVE",
"253 645 CURVE SMOOTH",
"97 645 LINE",
"97 411 LINE",
"260 411 LINE SMOOTH"
);
},
{
closed = 1;
nodes = (
"365 53 OFFCURVE",
"414 105.55 OFFCURVE",
"414 212 CURVE SMOOTH",
"414 290.011 OFFCURVE",
"368.417 356 OFFCURVE",
"285 356 CURVE SMOOTH",
"97 356 LINE",
"97 53 LINE",
"269 53 LINE SMOOTH"
);
}
);
width = 503;
},
{
layerId = "9D15C82E-7F80-48F0-B3D1-43822CDE4CEB";
paths = (
{
closed = 1;
nodes = (
"368.333 698 OFFCURVE",
"437 643.333 OFFCURVE",
"437 538 CURVE SMOOTH",
"437 482.276 OFFCURVE",
"402.958 422.369 OFFCURVE",
"349 403 CURVE",
"349 399 LINE",
"433 368 OFFCURVE",
"473 297.995 OFFCURVE",
"473 208 CURVE SMOOTH",
"473 83 OFFCURVE",
"401.945 0 OFFCURVE",
"269 0 CURVE SMOOTH",
"41 0 LINE",
"41 698 LINE",
"259 698 LINE SMOOTH"
);
},
{
closed = 1;
nodes = (
"365.967 411 OFFCURVE",
"418 466 OFFCURVE",
"418 540 CURVE SMOOTH",
"418 621.026 OFFCURVE",
"369.667 679 OFFCURVE",
"255 679 CURVE SMOOTH",
"60 679 LINE",
"60 411 LINE",
"297 411 LINE SMOOTH"
);
},
{
closed = 1;
nodes = (
"390.633 19 OFFCURVE",
"454 93 OFFCURVE",
"454 208 CURVE SMOOTH",
"454 316.94 OFFCURVE",
"386.667 393 OFFCURVE",
"272 393 CURVE SMOOTH",
"60 393 LINE",
"60 19 LINE",
"270 19 LINE SMOOTH"
);
}
);
width = 502;
},
{
layerId = "0D2E68F6-AD65-4FDC-99B3-7B414CE95F5B";
paths = (
{
closed = 1;
nodes = (
"361 698 OFFCURVE",
"438 633 OFFCURVE",
"438 521 CURVE SMOOTH",
"438 459.667 OFFCURVE",
"415 414.667 OFFCURVE",
"371 384 CURVE",
"371 381 LINE",
"429.667 354.333 OFFCURVE",
"474 295.667 OFFCURVE",
"474 205 CURVE SMOOTH",
"474 81 OFFCURVE",
"398.667 0 OFFCURVE",
"260 0 CURVE SMOOTH",
"41 0 LINE",
"41 698 LINE",
"245 698 LINE SMOOTH"
);
},
{
closed = 1;
nodes = (
"277.05 413 OFFCURVE",
"310 436.017 OFFCURVE",
"310 505 CURVE SMOOTH",
"310 567.667 OFFCURVE",
"277 588 OFFCURVE",
"209 588 CURVE SMOOTH",
"151 588 LINE",
"151 413 LINE",
"199 413 LINE SMOOTH"
);
},
{
closed = 1;
nodes = (
"279.3 101 OFFCURVE",
"348 120.583 OFFCURVE",
"348 207 CURVE SMOOTH",
"348 273.667 OFFCURVE",
"306.333 307 OFFCURVE",
"221 307 CURVE SMOOTH",
"151 307 LINE",
"151 101 LINE",
"231 101 LINE SMOOTH"
);
}
);
width = 505;
},
{
layerId = "BAA7A442-529C-4232-9150-0627B90683AA";
paths = (
{
closed = 1;
nodes = (
"514 698 OFFCURVE",
"573.178 640.667 OFFCURVE",
"548.805 526 CURVE SMOOTH",
"536.051 466 OFFCURVE",
"503.77 422.333 OFFCURVE",
"453.535 393 CURVE",
"452.685 389 LINE",
"505.966 363.667 OFFCURVE",
"537.617 304 OFFCURVE",
"517.212 208 CURVE SMOOTH",
"490.855 84 OFFCURVE",
"409.667 0 OFFCURVE",
"271 0 CURVE SMOOTH",
"41 0 LINE",
"189.364 698 LINE",
"399 698 LINE SMOOTH"
);
},
{
closed = 1;
nodes = (
"428.444 411 OFFCURVE",
"476.268 457.609 OFFCURVE",
"491.23 528 CURVE SMOOTH",
"507.951 606.667 OFFCURVE",
"474.099 645 OFFCURVE",
"390.099 645 CURVE SMOOTH",
"234.099 645 LINE",
"184.361 411 LINE",
"347.361 411 LINE SMOOTH"
);
},
{
closed = 1;
nodes = (
"376.246 53 OFFCURVE",
"435.436 105.553 OFFCURVE",
"458.062 212 CURVE SMOOTH",
"474.045 287.195 OFFCURVE",
"446.43 356 OFFCURVE",
"360.67 356 CURVE SMOOTH",
"172.67 356 LINE",
"108.265 53 LINE",
"280.266 53 LINE SMOOTH"
);
}
);
width = 503;
},
{
layerId = "EC4DDAD4-4840-4BAF-BE24-E50FF90D752F";
paths = (
{
closed = 1;
nodes = (
"503.14 698 OFFCURVE",
"570.896 624.71 OFFCURVE",
"547.089 512.71 CURVE SMOOTH",
"534.052 451.376 OFFCURVE",
"503.14 414.667 OFFCURVE",
"452.622 384 CURVE",
"451.984 381 LINE",
"504.982 354.333 OFFCURVE",
"536.846 295.667 OFFCURVE",
"517.574 205 CURVE SMOOTH",
"491.217 81 OFFCURVE",
"398.667 0 OFFCURVE",
"260 0 CURVE SMOOTH",
"41 0 LINE",
"189.364 698 LINE",
"373 698 LINE SMOOTH"
);
},
{
closed = 1;
nodes = (
"364.832 413 OFFCURVE",
"402.674 435.999 OFFCURVE",
"417.341 505 CURVE SMOOTH",
"430.661 567.667 OFFCURVE",
"401.983 588 OFFCURVE",
"333.983 588 CURVE SMOOTH",
"275.983 588 LINE",
"238.786 413 LINE",
"286.786 413 LINE SMOOTH"
);
},
{
closed = 1;
nodes = (
"300.805 101 OFFCURVE",
"373.664 120.742 OFFCURVE",
"392 207 CURVE SMOOTH",
"406.17 273.667 OFFCURVE",
"371.589 307 OFFCURVE",
"286.256 307 CURVE SMOOTH",
"216.256 307 LINE",
"172.469 101 LINE",
"252.468 101 LINE SMOOTH"
);
}
);
width = 505;
},
{
layerId = "350CE105-9128-4F96-9C2D-77D2DB4D6663";
paths = (
{
closed = 1;
nodes = (
"516.333 698 OFFCURVE",
"572.772 645.047 OFFCURVE",
"551.355 538 CURVE SMOOTH",
"538.759 479 OFFCURVE",
"490.427 420.909 OFFCURVE",
"434.295 402.187 CURVE",
"433.81 399 LINE",
"505 373 OFFCURVE",
"537.617 304 OFFCURVE",
"517.212 208 CURVE SMOOTH",
"490.855 84 OFFCURVE",
"409.667 0 OFFCURVE",
"271 0 CURVE SMOOTH",
"40 0 LINE",
"188.364 698 LINE",
"407 698 LINE SMOOTH"
);
},
{
closed = 1;
nodes = (
"447.892 411 OFFCURVE",
"516.631 467.868 OFFCURVE",
"532 542 CURVE SMOOTH",
"549 624 OFFCURVE",
"515.666 679 OFFCURVE",
"401 679 CURVE SMOOTH",
"204.326 679 LINE",
"147.361 411 LINE",
"379 411 LINE SMOOTH"
);
},
{
closed = 1;
nodes = (
"393.586 19 OFFCURVE",
"470.664 90.507 OFFCURVE",
"495 205 CURVE SMOOTH",
"519.373 319.667 OFFCURVE",
"470.201 393 OFFCURVE",
"355.535 393 CURVE SMOOTH",
"143.535 393 LINE",
"64.039 19 LINE",
"273.039 19 LINE SMOOTH"
);
}
);
width = 502;
}
);
leftKerningGroup = B;
rightKerningGroup = B;
unicode = 0042;
},
{
glyphname = C;
lastChange = "2019-02-08 07:35:54 +0000";
layers = (
{
layerId = master01;
paths = (
{
closed = 1;
nodes = (
"315.667 651.667 OFFCURVE",
"280.667 658 OFFCURVE",
"246 658 CURVE SMOOTH",
"148.667 658 OFFCURVE",
"90 617.333 OFFCURVE",
"90 512 CURVE SMOOTH",
"90 185 LINE SMOOTH",
"90 80.683 OFFCURVE",
"137.533 40 OFFCURVE",
"238 40 CURVE SMOOTH",
"277.22 40 OFFCURVE",
"326.558 50.858 OFFCURVE",
"383 69 CURVE",
"395 23 LINE",
"338.333 1 OFFCURVE",
"284.667 -10 OFFCURVE",
"234 -10 CURVE SMOOTH",
"212.667 -10 OFFCURVE",
"164 -10.333 OFFCURVE",
"116 15 CURVE SMOOTH",
"66.667 41.667 OFFCURVE",
"34 99 OFFCURVE",
"34 183 CURVE SMOOTH",
"34 508 LINE SMOOTH",
"34 647.633 OFFCURVE",
"118.017 708 OFFCURVE",
"228 708 CURVE SMOOTH",
"280 708 OFFCURVE",
"327.333 697 OFFCURVE",
"370 675 CURVE",
"353 637 LINE"
);
}
);
width = 422;
},
{
layerId = "9D15C82E-7F80-48F0-B3D1-43822CDE4CEB";
paths = (
{
closed = 1;
nodes = (
"318 681 OFFCURVE",
"272.333 689 OFFCURVE",
"231 689 CURVE SMOOTH",
"115 689 OFFCURVE",
"53 630.171 OFFCURVE",
"53 512 CURVE SMOOTH",
"53 185 LINE",
"50.991 54.394 OFFCURVE",
"131.241 8 OFFCURVE",
"237 8 CURVE SMOOTH",
"276.65 8 OFFCURVE",
"333 18 OFFCURVE",
"389 41 CURVE",
"395 23 LINE",
"338.333 1 OFFCURVE",
"284.333 -10 OFFCURVE",
"233 -10 CURVE SMOOTH",
"213 -10 OFFCURVE",
"164 -10.333 OFFCURVE",
"116 15 CURVE SMOOTH",
"65.333 43 OFFCURVE",
"34 99 OFFCURVE",
"34 183 CURVE SMOOTH",
"34 512 LINE SMOOTH",
"34 658 OFFCURVE",
"127.917 708 OFFCURVE",
"228 708 CURVE SMOOTH",
"282 708 OFFCURVE",
"329.333 697 OFFCURVE",
"370 675 CURVE",
"362 658 LINE"
);
}
);
width = 420;
},
{
layerId = "0D2E68F6-AD65-4FDC-99B3-7B414CE95F5B";
paths = (
{
closed = 1;
nodes = (
"315.333 592.667 OFFCURVE",
"278.667 599 OFFCURVE",
"248 599 CURVE SMOOTH",
"182.667 599 OFFCURVE",
"146 574.667 OFFCURVE",
"146 512 CURVE SMOOTH",
"146 185 LINE SMOOTH",
"146 123.383 OFFCURVE",
"179.7 100 OFFCURVE",
"239 100 CURVE SMOOTH",
"299.5 100 OFFCURVE",
"369 127 OFFCURVE",
"380 127 CURVE",
"396 23 LINE",
"338 0.333 OFFCURVE",
"283.667 -11.333 OFFCURVE",
"233 -12 CURVE",
"179.667 -12 OFFCURVE",
"129.667 2.667 OFFCURVE",
"95 32 CURVE SMOOTH",
"59 64 OFFCURVE",
"36 113.667 OFFCURVE",
"36 183 CURVE SMOOTH",
"36 509 LINE SMOOTH",
"36 640.3 OFFCURVE",
"118 710 OFFCURVE",
"228 710 CURVE SMOOTH",
"276 710 OFFCURVE",
"324 698.333 OFFCURVE",
"372 675 CURVE",
"342 582 LINE"
);
}
);
width = 426;
},
{
layerId = "BAA7A442-529C-4232-9150-0627B90683AA";
paths = (
{
closed = 1;
nodes = (
"454.183 651.667 OFFCURVE",
"420.529 658 OFFCURVE",
"385.862 658 CURVE SMOOTH",
"288.529 658 OFFCURVE",
"221.218 617.333 OFFCURVE",
"198.829 512 CURVE SMOOTH",
"129.323 185 LINE SMOOTH",
"107.146 80.666 OFFCURVE",
"146.064 40 OFFCURVE",
"246.502 40 CURVE SMOOTH",
"285.718 40 OFFCURVE",
"337.4 50.867 OFFCURVE",
"397.666 69 CURVE",
"399.889 23 LINE",
"338.546 1 OFFCURVE",
"282.541 -10 OFFCURVE",
"231.874 -10 CURVE SMOOTH",
"210.541 -10 OFFCURVE",
"161.804 -10.333 OFFCURVE",
"119.188 15 CURVE SMOOTH",
"75.523 41.667 OFFCURVE",
"55.043 99 OFFCURVE",
"72.898 183 CURVE SMOOTH",
"141.979 508 LINE SMOOTH",
"171.639 647.541 OFFCURVE",
"268.471 708 OFFCURVE",
"378.49 708 CURVE SMOOTH",
"430.49 708 OFFCURVE",
"475.485 697 OFFCURVE",
"513.476 675 CURVE",
"488.399 637 LINE"
);
}
);
width = 422;
},
{
layerId = "EC4DDAD4-4840-4BAF-BE24-E50FF90D752F";
paths = (
{
closed = 1;
nodes = (
"441.309 592.667 OFFCURVE",
"405.988 599 OFFCURVE",
"375.321 599 CURVE SMOOTH",
"309.988 599 OFFCURVE",
"268.149 574.667 OFFCURVE",
"254.829 512 CURVE SMOOTH",
"185.323 185 LINE SMOOTH",
"172.228 123.395 OFFCURVE",
"200.998 100 OFFCURVE",
"260.256 100 CURVE SMOOTH",
"320.596 100 OFFCURVE",
"396.314 127 OFFCURVE",
"406.995 127 CURVE",
"400.889 23 LINE",
"338.071 0.333 OFFCURVE",
"281.258 -11.333 OFFCURVE",
"230.449 -12 CURVE",
"177.116 -12 OFFCURVE",
"130.233 2.667 OFFCURVE",
"101.802 32 CURVE SMOOTH",
"72.604 64 OFFCURVE",
"60.161 113.667 OFFCURVE",
"74.898 183 CURVE SMOOTH",
"144.191 509 LINE SMOOTH",
"172.081 640.209 OFFCURVE",
"268.912 710 OFFCURVE",
"378.915 710 CURVE SMOOTH",
"426.915 710 OFFCURVE",
"472.435 698.333 OFFCURVE",
"515.476 675 CURVE",
"465.708 582 LINE"
);
}
);
width = 426;
},
{
layerId = "350CE105-9128-4F96-9C2D-77D2DB4D6663";
paths = (
{
closed = 1;
nodes = (
"463 680 OFFCURVE",
"418.785 689 OFFCURVE",
"377.451 689 CURVE SMOOTH",
"261.451 689 OFFCURVE",
"185.352 622.667 OFFCURVE",
"161.829 512 CURVE SMOOTH",
"92.323 185 LINE",
"62.531 54.3 OFFCURVE",
"132.998 8 OFFCURVE",
"238.7 8 CURVE SMOOTH",
"278.281 8 OFFCURVE",
"334.548 18.828 OFFCURVE",
"397.715 41 CURVE",
"399.889 23 LINE",
"338.546 1 OFFCURVE",
"282.208 -10 OFFCURVE",
"230.874 -10 CURVE SMOOTH",
"210.874 -10 OFFCURVE",
"161.804 -10.333 OFFCURVE",
"119.188 15 CURVE SMOOTH",
"74.473 43 OFFCURVE",
"55.043 99 OFFCURVE",
"72.898 183 CURVE SMOOTH",
"142.829 512 LINE SMOOTH",
"174.876 662.77 OFFCURVE",
"278.368 708 OFFCURVE",
"378.49 708 CURVE SMOOTH",
"432.49 708 OFFCURVE",
"477.485 697 OFFCURVE",
"513.476 675 CURVE",
"501.862 658 LINE"
);
}
);
width = 420;
}
);
leftKerningGroup = C;
rightKerningGroup = C;
unicode = 0043;
},
{
glyphname = D;
lastChange = "2019-02-08 07:35:54 +0000";
layers = (
{
layerId = master01;
paths = (
{
closed = 1;
nodes = (
"379.667 698 OFFCURVE",
"460 609 OFFCURVE",
"460 473 CURVE SMOOTH",
"460 199 LINE SMOOTH",
"460 67 OFFCURVE",
"390.333 0 OFFCURVE",
"249 0 CURVE SMOOTH",
"41 0 LINE",
"41 698 LINE",
"229 698 LINE SMOOTH"
);
},
{
closed = 1;
nodes = (
"347.567 50 OFFCURVE",
"404 96.783 OFFCURVE",
"404 189 CURVE SMOOTH",
"404 488 LINE SMOOTH",
"404 573.967 OFFCURVE",
"356.2 648 OFFCURVE",
"239 648 CURVE SMOOTH",
"97 648 LINE",
"97 50 LINE",
"232 50 LINE SMOOTH"
);
}
);
width = 495;
},
{
layerId = "9D15C82E-7F80-48F0-B3D1-43822CDE4CEB";
paths = (
{
closed = 1;
nodes = (
"379.667 698 OFFCURVE",
"460 609 OFFCURVE",
"460 473 CURVE SMOOTH",
"460 199 LINE SMOOTH",
"460 67 OFFCURVE",
"390.333 0 OFFCURVE",
"249 0 CURVE SMOOTH",
"41 0 LINE",
"41 698 LINE",
"229 698 LINE SMOOTH"
);
},
{
closed = 1;
nodes = (
"366.467 20 OFFCURVE",
"441 62.733 OFFCURVE",
"441 213 CURVE SMOOTH",
"441 466 LINE SMOOTH",
"441 592.483 OFFCURVE",
"374.117 678 OFFCURVE",
"239 678 CURVE SMOOTH",
"60 678 LINE",
"60 20 LINE",
"239 20 LINE SMOOTH"
);
}
);
width = 494;
},
{
layerId = "0D2E68F6-AD65-4FDC-99B3-7B414CE95F5B";
paths = (
{
closed = 1;
nodes = (
"371.796 700 OFFCURVE",
"461 617.482 OFFCURVE",
"461 473 CURVE SMOOTH",
"461 206 LINE SMOOTH",
"461 74 OFFCURVE",
"390.333 0 OFFCURVE",
"249 0 CURVE SMOOTH",
"41 0 LINE",
"41 700 LINE",
"229 700 LINE SMOOTH"
);
},
{
closed = 1;
nodes = (
"346.2 101 OFFCURVE",
"351 156.517 OFFCURVE",
"351 196 CURVE SMOOTH",
"351 483 LINE SMOOTH",
"351 554.35 OFFCURVE",
"315.467 588 OFFCURVE",
"239 588 CURVE SMOOTH",
"151 588 LINE",
"151 101 LINE",
"234 101 LINE SMOOTH"
);
}
);
width = 497;
},
{
layerId = "BAA7A442-529C-4232-9150-0627B90683AA";
paths = (
{
closed = 1;
nodes = (
"528.031 698 OFFCURVE",
"589.447 609 OFFCURVE",
"560.539 473 CURVE SMOOTH",
"502.299 199 LINE SMOOTH",
"474.241 67 OFFCURVE",
"390.333 0 OFFCURVE",
"249 0 CURVE SMOOTH",
"41 0 LINE",
"189.364 698 LINE",
"377.364 698 LINE SMOOTH"
);
},
{
closed = 1;
nodes = (
"358.186 50 OFFCURVE",
"424.567 96.76 OFFCURVE",
"444.173 189 CURVE SMOOTH",
"507.728 488 LINE SMOOTH",
"525.981 573.873 OFFCURVE",
"494.061 648 OFFCURVE",
"376.737 648 CURVE SMOOTH",
"234.737 648 LINE",
"107.628 50 LINE",
"242.628 50 LINE SMOOTH"
);
}
);
width = 495;
},
{
layerId = "EC4DDAD4-4840-4BAF-BE24-E50FF90D752F";
paths = (
{
closed = 1;
nodes = (
"523.163 700 OFFCURVE",
"591.714 614.962 OFFCURVE",
"561.539 473 CURVE SMOOTH",
"504.787 206 LINE SMOOTH",
"476.729 74 OFFCURVE",
"390.333 0 OFFCURVE",
"249 0 CURVE SMOOTH",
"41 0 LINE",
"189.79 700 LINE",
"377.79 700 LINE SMOOTH"
);
},
{
closed = 1;
nodes = (
"367.592 101 OFFCURVE",
"384.236 156.364 OFFCURVE",
"392.661 196 CURVE SMOOTH",
"453.665 483 LINE SMOOTH",
"468.835 554.369 OFFCURVE",
"440.408 588 OFFCURVE",
"363.983 588 CURVE SMOOTH",
"275.983 588 LINE",
"172.468 101 LINE",
"255.468 101 LINE SMOOTH"
);
}
);
width = 497;
},
{
layerId = "350CE105-9128-4F96-9C2D-77D2DB4D6663";
paths = (
{
closed = 1;
nodes = (
"528.031 698 OFFCURVE",
"589.447 609 OFFCURVE",
"560.539 473 CURVE SMOOTH",
"502.299 199 LINE SMOOTH",
"474.241 67 OFFCURVE",
"390.333 0 OFFCURVE",
"249 0 CURVE SMOOTH",
"39 0 LINE",
"187.364 698 LINE",
"377.364 698 LINE SMOOTH"
);
},
{
closed = 1;
nodes = (
"370.821 20 OFFCURVE",
"454.333 62.729 OFFCURVE",
"486.275 213 CURVE SMOOTH",
"540.051 466 LINE SMOOTH",
"566.923 592.422 OFFCURVE",
"518.342 678 OFFCURVE",
"383.113 678 CURVE SMOOTH",
"204.113 678 LINE",
"64.251 20 LINE",
"243.251 20 LINE SMOOTH"
);
}
);
width = 494;
}
);
leftKerningGroup = D;
rightKerningGroup = D;
unicode = 0044;
},
{
glyphname = Eth;
lastChange = "2019-02-08 07:35:54 +0000";
layers = (
{
components = (
{
name = D;
}
);
layerId = master01;
paths = (
{
closed = 1;
nodes = (
"67 411 LINE",
"287 411 LINE",
"269 356 LINE",
"67 356 LINE"
);
}
);
width = 495;
},
{
components = (
{
name = D;
}
);
layerId = "9D15C82E-7F80-48F0-B3D1-43822CDE4CEB";
paths = (
{
closed = 1;
nodes = (
"50 411 LINE",
"287 411 LINE",
"281 393 LINE",
"50 393 LINE"
);
}
);
width = 494;
},
{
components = (
{
name = D;
}
);
layerId = "0D2E68F6-AD65-4FDC-99B3-7B414CE95F5B";
paths = (
{
closed = 1;
nodes = (
"121 413 LINE",
"288 413 LINE",
"257 308 LINE",
"121 308 LINE"
);
}
);
width = 497;
},
{
components = (
{
name = D;
}
);
layerId = "BAA7A442-529C-4232-9150-0627B90683AA";
paths = (
{
closed = 1;
nodes = (
"154.361 411 LINE",
"374.361 411 LINE",
"344.67 356 LINE",
"142.67 356 LINE"
);
}
);
width = 495;
},
{
components = (
{
name = D;
}
);
layerId = "EC4DDAD4-4840-4BAF-BE24-E50FF90D752F";
paths = (
{
closed = 1;
nodes = (
"208.786 413 LINE",
"375.786 413 LINE",
"322.467 308 LINE",
"186.467 308 LINE"
);
}
);
width = 497;
},
{
components = (
{
name = D;
}
);
layerId = "350CE105-9128-4F96-9C2D-77D2DB4D6663";
paths = (
{
closed = 1;
nodes = (
"137.361 411 LINE",
"374.361 411 LINE",
"364.535 393 LINE",
"133.535 393 LINE"
);
}
);
width = 494;
}
);
unicode = 00D0;
},
{
glyphname = E;
lastChange = "2019-02-08 07:35:54 +0000";
layers = (
{
layerId = master01;
paths = (
{
closed = 1;
nodes = (
"41 698 LINE",
"374 698 LINE",
"374 646 LINE",
"97 646 LINE",
"97 411 LINE",
"287 411 LINE",
"269 356 LINE",
"97 356 LINE",
"97 50 LINE",
"372 50 LINE",
"372 0 LINE",
"41 0 LINE"
);
}
);
width = 405;
},
{
layerId = "9D15C82E-7F80-48F0-B3D1-43822CDE4CEB";
paths = (
{
closed = 1;
nodes = (
"41 698 LINE",
"374 698 LINE",
"374 679 LINE",
"60 679 LINE",
"60 411 LINE",
"287 411 LINE",
"281 393 LINE",
"60 393 LINE",
"60 19 LINE",
"372 19 LINE",
"372 0 LINE",
"41 0 LINE"
);
}
);
width = 402;
},
{
layerId = "0D2E68F6-AD65-4FDC-99B3-7B414CE95F5B";
paths = (
{
closed = 1;
nodes = (
"41 698 LINE",
"375 698 LINE",
"375 588 LINE",
"151 588 LINE",
"151 413 LINE",
"288 413 LINE",
"257 308 LINE",
"151 308 LINE",
"151 100 LINE",
"373 100 LINE",
"373 0 LINE",
"41 0 LINE"
);
}
);
width = 410;
},
{
layerId = "BAA7A442-529C-4232-9150-0627B90683AA";
paths = (
{
closed = 1;
nodes = (
"189.364 698 LINE",
"522.364 698 LINE",
"511.312 646 LINE",
"234.312 646 LINE",
"184.361 411 LINE",
"374.361 411 LINE",
"348 356 LINE",
"172.67 356 LINE",
"107.628 50 LINE",
"382.628 50 LINE",
"372 0 LINE",
"41 0 LINE"
);
}
);
width = 405;
},
{
layerId = "EC4DDAD4-4840-4BAF-BE24-E50FF90D752F";
paths = (
{
closed = 1;
nodes = (
"189.364 698 LINE",
"523.364 698 LINE",
"499.983 588 LINE",
"275.983 588 LINE",
"238.786 413 LINE",
"375.786 413 LINE",
"331 308 LINE",
"216.467 308 LINE",
"172.256 100 LINE",
"394.256 100 LINE",
"373 0 LINE",
"41 0 LINE"
);
}
);
width = 410;
},
{
layerId = "350CE105-9128-4F96-9C2D-77D2DB4D6663";
paths = (
{
closed = 1;
nodes = (
"187.364 698 LINE",
"522.364 698 LINE",
"518.326 679 LINE",
"204.326 679 LINE",
"147.361 411 LINE",
"374.361 411 LINE",
"366 393 LINE",
"143.535 393 LINE",
"64.039 19 LINE",
"376.039 19 LINE",
"372 0 LINE",
"39 0 LINE"
);
}
);
width = 402;
}
);
leftKerningGroup = E;
rightKerningGroup = E;
unicode = 0045;
},
{
glyphname = F;
lastChange = "2019-02-08 07:35:54 +0000";
layers = (
{
layerId = master01;
paths = (
{
closed = 1;
nodes = (
"374 645 LINE",
"97 645 LINE",
"97 411 LINE",
"288 411 LINE",
"265 356 LINE",
"97 356 LINE",
"97 0 LINE",
"41 0 LINE",
"41 698 LINE",
"374 698 LINE"
);
}
);
width = 390;
},
{
layerId = "9D15C82E-7F80-48F0-B3D1-43822CDE4CEB";
paths = (
{
closed = 1;
nodes = (
"374 678 LINE",
"61 678 LINE",
"61 411 LINE",
"288 411 LINE",
"281 393 LINE",
"61 393 LINE",
"61 0 LINE",
"41 0 LINE",
"41 698 LINE",
"374 698 LINE"
);
}
);
width = 387;
},
{
layerId = "0D2E68F6-AD65-4FDC-99B3-7B414CE95F5B";
paths = (
{
closed = 1;
nodes = (
"375 588 LINE",
"151 588 LINE",
"151 413 LINE",
"288 413 LINE",
"253 308 LINE",
"151 308 LINE",
"151 0 LINE",
"41 0 LINE",
"41 698 LINE",
"375 698 LINE"
);
}
);
width = 394;
},
{
layerId = "BAA7A442-529C-4232-9150-0627B90683AA";
paths = (
{
closed = 1;
nodes = (
"511.099 645 LINE",
"234.099 645 LINE",
"184.361 411 LINE",
"375.361 411 LINE",
"351 356 LINE",
"172.67 356 LINE",
"97 0 LINE",
"41 0 LINE",
"189.364 698 LINE",
"522.365 698 LINE"
);
}
);
width = 390;
},
{
layerId = "EC4DDAD4-4840-4BAF-BE24-E50FF90D752F";
paths = (
{
closed = 1;
nodes = (
"499.983 588 LINE",
"275.983 588 LINE",
"238.786 413 LINE",
"375.786 413 LINE",
"331 308 LINE",
"216.467 308 LINE",
"151 0 LINE",
"41 0 LINE",
"189.364 698 LINE",
"523.365 698 LINE"
);
}
);
width = 394;
},
{
layerId = "350CE105-9128-4F96-9C2D-77D2DB4D6663";
paths = (
{
closed = 1;
nodes = (
"518.113 678 LINE",
"205.113 678 LINE",
"148.361 411 LINE",
"375.361 411 LINE",
"368 393 LINE",
"144.535 393 LINE",
"61 0 LINE",
"41 0 LINE",
"189.364 698 LINE",
"522.365 698 LINE"
);
}
);
width = 387;
}
);
leftKerningGroup = F;
rightKerningGroup = F;
unicode = 0046;
},
{
glyphname = G;
lastChange = "2019-02-08 07:35:54 +0000";
layers = (
{
layerId = master01;
paths = (
{
closed = 1;
nodes = (
"315.667 650.667 OFFCURVE",
"280.333 657 OFFCURVE",
"247 657 CURVE SMOOTH",
"148 657 OFFCURVE",
"90 614 OFFCURVE",
"90 510 CURVE SMOOTH",
"90 186 LINE SMOOTH",
"90 95.012 OFFCURVE",
"158.345 44 OFFCURVE",
"245 44 CURVE SMOOTH",
"331.1 44 OFFCURVE",
"392 98.228 OFFCURVE",
"392 186 CURVE SMOOTH",
"392 244 LINE",
"263 244 LINE",
"243 299 LINE",
"445 299 LINE",
"445 0 LINE",
"394 0 LINE",
"390 41 LINE",
"353.541 6.566 OFFCURVE",
"309 -10 OFFCURVE",
"247 -10 CURVE SMOOTH",
"132 -10 OFFCURVE",
"34 58 OFFCURVE",
"34 188 CURVE SMOOTH",
"34 502 LINE SMOOTH",
"34 630 OFFCURVE",
"102 707 OFFCURVE",
"228 707 CURVE SMOOTH",
"280 707 OFFCURVE",
"327.333 696 OFFCURVE",
"370 674 CURVE",
"353 636 LINE"
);
}
);
width = 477;
},
{
layerId = "9D15C82E-7F80-48F0-B3D1-43822CDE4CEB";
paths = (
{
closed = 1;
nodes = (
"315 680 OFFCURVE",
"268.667 689 OFFCURVE",
"230 689 CURVE SMOOTH",
"104 689 OFFCURVE",
"53 616 OFFCURVE",
"53 495 CURVE SMOOTH",
"53 186 LINE SMOOTH",
"53 70.634 OFFCURVE",
"138.713 9 OFFCURVE",
"248 9 CURVE SMOOTH",
"359.143 9 OFFCURVE",
"425 69.616 OFFCURVE",
"425 182 CURVE SMOOTH",
"425 280 LINE",
"250 280 LINE",
"242 299 LINE",
"444 299 LINE",
"444 0 LINE",
"425 0 LINE",
"425 88 LINE",
"395.23 27 OFFCURVE",
"333 -10 OFFCURVE",
"245 -10 CURVE SMOOTH",
"131 -10 OFFCURVE",
"33 58 OFFCURVE",
"33 188 CURVE SMOOTH",
"33 502 LINE SMOOTH",
"33 630 OFFCURVE",
"101 707 OFFCURVE",
"227 707 CURVE SMOOTH",
"279 707 OFFCURVE",
"326.333 696 OFFCURVE",
"369 674 CURVE",
"362 657 LINE"
);
}
);
width = 475;
},
{
layerId = "0D2E68F6-AD65-4FDC-99B3-7B414CE95F5B";
paths = (
{
closed = 1;
nodes = (
"307 586.667 OFFCURVE",
"276 594 OFFCURVE",
"248 594 CURVE SMOOTH",
"188 594 OFFCURVE",
"146 579 OFFCURVE",
"146 510 CURVE SMOOTH",
"146 187 LINE SMOOTH",
"146 123 OFFCURVE",
"180.667 92 OFFCURVE",
"246 92 CURVE SMOOTH",
"299.94 92 OFFCURVE",
"337 133.845 OFFCURVE",
"337 186 CURVE SMOOTH",
"337 195 LINE",
"280 195 LINE",
"245 300 LINE",
"447 300 LINE",
"447 0 LINE",
"371 0 LINE",
"366 28 LINE",
"331.732 -0.221 OFFCURVE",
"271 -9 OFFCURVE",
"247 -10 CURVE SMOOTH",
"133 -13 OFFCURVE",
"36 54 OFFCURVE",
"36 189 CURVE SMOOTH",
"36 502 LINE SMOOTH",
"36 642 OFFCURVE",
"110 708 OFFCURVE",
"242 708 CURVE",
"289.333 706 OFFCURVE",
"332.667 695 OFFCURVE",
"372 675 CURVE",
"339 576 LINE"
);
}
);
width = 480;
},
{
layerId = "BAA7A442-529C-4232-9150-0627B90683AA";
paths = (
{
closed = 1;
nodes = (
"453.998 650.667 OFFCURVE",
"420.012 657 OFFCURVE",
"386.678 657 CURVE SMOOTH",
"287.678 657 OFFCURVE",
"220.536 614 OFFCURVE",
"198.426 510 CURVE SMOOTH",
"129.544 186 LINE SMOOTH",
"110.2 95.012 OFFCURVE",
"167.7 44 OFFCURVE",
"254.354 44 CURVE SMOOTH",
"340.455 44 OFFCURVE",
"412.883 98.228 OFFCURVE",
"431.544 186 CURVE SMOOTH",
"443.874 244 LINE",
"314.874 244 LINE",
"306.567 299 LINE",
"508.567 299 LINE",
"445 0 LINE",
"394 0 LINE",
"398.717 41 LINE",
"354.937 6.566 OFFCURVE",
"306.874 -10 OFFCURVE",
"244.874 -10 CURVE SMOOTH",
"129.874 -10 OFFCURVE",
"46.331 58 OFFCURVE",
"73.969 188 CURVE SMOOTH",
"140.725 502 LINE SMOOTH",
"167.938 630 OFFCURVE",
"252.308 707 OFFCURVE",
"378.308 707 CURVE SMOOTH",
"430.308 707 OFFCURVE",
"475.303 696 OFFCURVE",
"513.292 674 CURVE",
"488.214 636 LINE"
);
}
);
width = 477;
},
{
layerId = "EC4DDAD4-4840-4BAF-BE24-E50FF90D752F";
paths = (
{
closed = 1;
nodes = (
"440.725 598.667 OFFCURVE",
"411.284 606 OFFCURVE",
"383.284 606 CURVE SMOOTH",
"315.836 606 OFFCURVE",
"268.733 582 OFFCURVE",
"253 506 CURVE SMOOTH",
"185.756 187 LINE SMOOTH",
"172.35 123 OFFCURVE",
"190.667 92 OFFCURVE",
"256 92 CURVE SMOOTH",
"313.51 92 OFFCURVE",
"364.197 127.925 OFFCURVE",
"376.544 186 CURVE SMOOTH",
"378.457 195 LINE",
"321.457 195 LINE",
"308.78 300 LINE",
"510.78 300 LINE",
"447 0 LINE",
"371 0 LINE",
"371.953 28 LINE",
"331.685 -0.221 OFFCURVE",
"269.087 -9 OFFCURVE",
"244.874 -10 CURVE SMOOTH",
"130.236 -13 OFFCURVE",
"47.48 54 OFFCURVE",
"76.181 189 CURVE SMOOTH",
"142.725 502 LINE SMOOTH",
"172.489 642 OFFCURVE",
"260.521 708 OFFCURVE",
"392.521 708 CURVE SMOOTH",
"439.521 708 OFFCURVE",
"480.424 695 OFFCURVE",
"515.505 675 CURVE",
"470.458 588 LINE"
);
}
);
width = 480;
},
{
layerId = "350CE105-9128-4F96-9C2D-77D2DB4D6663";
paths = (
{
closed = 1;
nodes = (
"464 679 OFFCURVE",
"415.148 689 OFFCURVE",
"376.481 689 CURVE SMOOTH",
"251.481 689 OFFCURVE",
"183.749 615 OFFCURVE",
"158.237 495 CURVE SMOOTH",
"92.544 186 LINE SMOOTH",
"68.017 70.634 OFFCURVE",
"130.845 9 OFFCURVE",
"249.913 9 CURVE SMOOTH",
"360.913 9 OFFCURVE",
"439.8 69.616 OFFCURVE",
"463.693 182 CURVE SMOOTH",
"484.528 280 LINE",
"309.528 280 LINE",
"305.567 299 LINE",
"507.567 299 LINE",
"444 0 LINE",
"425 0 LINE",
"443.709 88 LINE",
"400.015 22.506 OFFCURVE",
"330.874 -10 OFFCURVE",
"242.874 -10 CURVE SMOOTH",
"128.874 -10 OFFCURVE",
"45.331 58 OFFCURVE",
"72.969 188 CURVE SMOOTH",
"139.725 502 LINE SMOOTH",
"166.938 630 OFFCURVE",
"251.308 707 OFFCURVE",
"377.308 707 CURVE SMOOTH",
"429.308 707 OFFCURVE",
"474.303 696 OFFCURVE",
"512.292 674 CURVE",
"501.678 657 LINE"
);
}
);
width = 475;
}
);
leftKerningGroup = G;
rightKerningGroup = G;
unicode = 0047;
},
{
glyphname = Hbar;
lastChange = "2019-02-08 07:35:54 +0000";
layers = (
{
components = (
{
name = Eta;
}
);
layerId = master01;
paths = (
{
closed = 1;
nodes = (
"-3 498 LINE",
"-3 552 LINE",
"510 552 LINE",
"510 498 LINE"
);
}
);
width = 513;
},
{
components = (
{
name = Eta;
}
);
layerId = "9D15C82E-7F80-48F0-B3D1-43822CDE4CEB";
paths = (
{
closed = 1;
nodes = (
"6 498 LINE",
"6 518 LINE",
"503 518 LINE",
"503 498 LINE"
);
}
);
width = 513;
},
{
components = (
{
name = Eta;
}
);
layerId = "0D2E68F6-AD65-4FDC-99B3-7B414CE95F5B";
paths = (
{
closed = 1;
nodes = (
"-1 499 LINE",
"-1 588 LINE",
"513 588 LINE",
"513 499 LINE"
);
}
);
width = 514;
},
{
components = (
{
name = Eta;
}
);
layerId = "BAA7A442-529C-4232-9150-0627B90683AA";
paths = (
{
closed = 1;
nodes = (
"102.853 498 LINE",
"114.331 552 LINE",
"627.331 552 LINE",
"615.853 498 LINE"
);
}
);
width = 513;
},
{
components = (
{
name = Eta;
}
);
layerId = "EC4DDAD4-4840-4BAF-BE24-E50FF90D752F";
paths = (
{
closed = 1;
nodes = (
"105.066 499 LINE",
"123.983 588 LINE",
"637.983 588 LINE",
"619.066 499 LINE"
);
}
);
width = 514;
},
{
components = (
{
name = Eta;
}
);
layerId = "350CE105-9128-4F96-9C2D-77D2DB4D6663";
paths = (
{
closed = 1;
nodes = (
"111.853 498 LINE",
"116.104 518 LINE",
"613.104 518 LINE",
"608.853 498 LINE"
);
}
);
width = 513;
}
);
leftKerningGroup = H;
rightKerningGroup = H;
unicode = 0126;
},
{
glyphname = I;
lastChange = "2019-02-08 07:35:54 +0000";
layers = (
{
layerId = master01;
paths = (
{
closed = 1;
nodes = (
"20 698 LINE",
"143 698 LINE",
"143 0 LINE",
"88 0 LINE",
"88 647 LINE",
"20 649 LINE"
);
}
);
width = 186;
},
{
layerId = "9D15C82E-7F80-48F0-B3D1-43822CDE4CEB";
paths = (
{
closed = 1;
nodes = (
"15 698 LINE",
"119 698 LINE",
"119 0 LINE",
"101 0 LINE",
"101 676 LINE",
"15 679 LINE"
);
}
);
width = 162;
},
{
layerId = "0D2E68F6-AD65-4FDC-99B3-7B414CE95F5B";
paths = (
{
closed = 1;
nodes = (
"23 698 LINE",
"196 698 LINE",
"196 0 LINE",
"86 0 LINE",
"86 591 LINE",
"23 593 LINE"
);
}
);
width = 239;
},
{
layerId = "BAA7A442-529C-4232-9150-0627B90683AA";
paths = (
{
closed = 1;
nodes = (
"168.364 698 LINE",
"291.364 698 LINE",
"143 0 LINE",
"88 0 LINE",
"225.524 647 LINE",
"157.949 649 LINE"
);
}
);
width = 186;
},
{
layerId = "EC4DDAD4-4840-4BAF-BE24-E50FF90D752F";
paths = (
{
closed = 1;
nodes = (
"171.364 698 LINE",
"344.364 698 LINE",
"196 0 LINE",
"86 0 LINE",
"211.621 591 LINE",
"149.046 593 LINE"
);
}
);
width = 239;
},
{
layerId = "350CE105-9128-4F96-9C2D-77D2DB4D6663";
paths = (
{
closed = 1;
nodes = (
"163.364 698 LINE",
"267.364 698 LINE",
"119 0 LINE",
"101 0 LINE",
"244.688 676 LINE",
"159.326 679 LINE"
);
}
);
width = 162;
}
);
leftKerningGroup = I;
rightKerningGroup = I;
unicode = 0049;
},
{
glyphname = IJ;
lastChange = "2019-02-08 07:35:54 +0000";
layers = (
{
layerId = master01;
paths = (
{
closed = 1;
nodes = (
"505 185 LINE SMOOTH",
"505 57.547 OFFCURVE",
"420.039 -11 OFFCURVE",
"297 -11 CURVE SMOOTH",
"172.656 -11 OFFCURVE",
"87 55.518 OFFCURVE",
"87 185 CURVE SMOOTH",
"87 222 LINE",
"142 222 LINE",
"142 186 LINE SMOOTH",
"142 90.588 OFFCURVE",
"205.048 42 OFFCURVE",
"296 42 CURVE SMOOTH",
"388.154 42 OFFCURVE",
"450 90.254 OFFCURVE",
"450 186 CURVE SMOOTH",
"450 647 LINE",
"382 649 LINE",
"382 698 LINE",
"505 698 LINE"
);
},
{
closed = 1;
nodes = (
"142 274 LINE",
"87 274 LINE",
"87 647 LINE",
"19 649 LINE",
"19 698 LINE",
"142 698 LINE"
);
}
);
width = 549;
},
{
layerId = "9D15C82E-7F80-48F0-B3D1-43822CDE4CEB";
paths = (
{
closed = 1;
nodes = (
"519 185 LINE SMOOTH",
"519 57.547 OFFCURVE",
"434.039 -11 OFFCURVE",
"311 -11 CURVE SMOOTH",
"186.122 -11 OFFCURVE",
"101 55.166 OFFCURVE",
"101 185 CURVE SMOOTH",
"101 234 LINE",
"119 234 LINE",
"119 184 LINE SMOOTH",
"119 63.85 OFFCURVE",
"205.675 7 OFFCURVE",
"311 7 CURVE SMOOTH",
"423.819 7 OFFCURVE",
"500 66.641 OFFCURVE",
"500 184 CURVE SMOOTH",
"500 677 LINE",
"415 679 LINE",
"415 698 LINE",
"519 698 LINE"
);
},
{
closed = 1;
nodes = (
"119 262 LINE",
"101 262 LINE",
"101 676 LINE",
"15 679 LINE",
"15 698 LINE",
"119 698 LINE"
);
}
);
width = 558;
},
{
layerId = "0D2E68F6-AD65-4FDC-99B3-7B414CE95F5B";
paths = (
{
closed = 1;
nodes = (
"507 190 LINE SMOOTH",
"507 61.916 OFFCURVE",
"421.375 -11 OFFCURVE",
"298 -11 CURVE SMOOTH",
"174.911 -11 OFFCURVE",
"87 56.616 OFFCURVE",
"87 185 CURVE SMOOTH",
"87 223 LINE",
"197 223 LINE",
"197 204 LINE SMOOTH",
"197 138.673 OFFCURVE",
"231.899 101 OFFCURVE",
"297 101 CURVE SMOOTH",
"359.783 101 OFFCURVE",
"397 144.411 OFFCURVE",
"397 206 CURVE SMOOTH",
"397 592 LINE",
"338 593 LINE",
"338 698 LINE",
"507 698 LINE"
);
},
{
closed = 1;
nodes = (
"197 320 LINE",
"87 320 LINE",
"87 591 LINE",
"23 593 LINE",
"23 698 LINE",
"197 698 LINE"
);
}
);
width = 537;
},
{
layerId = "BAA7A442-529C-4232-9150-0627B90683AA";
paths = (
{
closed = 1;
nodes = (
"544.323 185 LINE SMOOTH",
"517.775 60.1 OFFCURVE",
"420 -11 OFFCURVE",
"294.662 -11 CURVE SMOOTH",
"177.014 -11 OFFCURVE",
"99.065 56.763 OFFCURVE",
"126.323 185 CURVE SMOOTH",
"134.188 222 LINE",
"189.188 222 LINE",
"181.536 186 LINE SMOOTH",
"161.422 91.374 OFFCURVE",
"210.167 40 OFFCURVE",
"302 40 CURVE SMOOTH",
"396.232 40 OFFCURVE",
"469.582 92.126 OFFCURVE",
"489.536 186 CURVE SMOOTH",
"587.524 647 LINE",
"519.949 649 LINE",
"530.364 698 LINE",
"653.365 698 LINE"
);
},
{
closed = 1;
nodes = (
"200.24 274 LINE",
"145.24 274 LINE",
"224.524 647 LINE",
"156.949 649 LINE",
"167.364 698 LINE",
"290.364 698 LINE"
);
}
);
width = 549;
},
{
layerId = "EC4DDAD4-4840-4BAF-BE24-E50FF90D752F";
paths = (
{
closed = 1;
nodes = (
"546.323 185 LINE SMOOTH",
"519.65 59.512 OFFCURVE",
"422 -11 OFFCURVE",
"295.662 -11 CURVE SMOOTH",
"181.803 -11 OFFCURVE",
"99.233 57.552 OFFCURVE",
"126.323 185 CURVE SMOOTH",
"134.4 223 LINE",
"244.4 223 LINE",
"240.362 204 LINE SMOOTH",
"226.746 139.943 OFFCURVE",
"252.169 101 OFFCURVE",
"318.468 101 CURVE SMOOTH",
"381.991 101 OFFCURVE",
"427.874 145.249 OFFCURVE",
"440.787 206 CURVE SMOOTH",
"522.834 592 LINE",
"464.046 593 LINE",
"486.365 698 LINE",
"655.365 698 LINE"
);
},
{
closed = 1;
nodes = (
"265.018 320 LINE",
"155.018 320 LINE",
"212.621 591 LINE",
"149.046 593 LINE",
"171.364 698 LINE",
"345.364 698 LINE"
);
}
);
width = 537;
},
{
layerId = "350CE105-9128-4F96-9C2D-77D2DB4D6663";
paths = (
{
closed = 1;
nodes = (
"558.323 185 LINE SMOOTH",
"531.775 60.1 OFFCURVE",
"434.484 -11 OFFCURVE",
"308.662 -11 CURVE SMOOTH",
"182.363 -11 OFFCURVE",
"112.998 56.447 OFFCURVE",
"140.323 185 CURVE SMOOTH",
"150.738 234 LINE",
"168.738 234 LINE",
"158.11 184 LINE SMOOTH",
"131.37 62.955 OFFCURVE",
"196 7 OFFCURVE",
"312 7 CURVE SMOOTH",
"424 7 OFFCURVE",
"514.673 69.033 OFFCURVE",
"539.11 184 CURVE SMOOTH",
"643.901 677 LINE",
"559.326 679 LINE",
"563.364 698 LINE",
"667.365 698 LINE"
);
},
{
closed = 1;
nodes = (
"174.69 262 LINE",
"156.69 262 LINE",
"244.688 676 LINE",
"159.326 679 LINE",
"163.364 698 LINE",
"267.364 698 LINE"
);
}
);
width = 558;
}
);
unicode = 0132;
},
{
glyphname = J;
lastChange = "2019-02-08 07:35:54 +0000";
layers = (
{
layerId = master01;
paths = (
{
closed = 1;
nodes = (
"165 37 OFFCURVE",
"132 -37 OFFCURVE",
"40 -37 CURVE",
"27 0 LINE",
"71 0 OFFCURVE",
"108 34.333 OFFCURVE",
"108 113 CURVE SMOOTH",
"108 647 LINE",
"42 649 LINE",
"42 698 LINE",
"165 698 LINE",
"165 118 LINE SMOOTH"
);
}
);
width = 206;
},
{
layerId = "9D15C82E-7F80-48F0-B3D1-43822CDE4CEB";
paths = (
{
closed = 1;
nodes = (
"136 43 OFFCURVE",
"120 -22 OFFCURVE",
"32 -37 CURVE",
"26 -19 LINE",
"86 -9.667 OFFCURVE",
"118 35.333 OFFCURVE",
"118 118 CURVE SMOOTH",
"118 676 LINE",
"33 679 LINE",
"33 698 LINE",
"136 698 LINE",
"136 122 LINE SMOOTH"
);
}
);
width = 177;
},
{
layerId = "0D2E68F6-AD65-4FDC-99B3-7B414CE95F5B";
paths = (
{
closed = 1;
nodes = (
"240 26 OFFCURVE",
"172 -33 OFFCURVE",
"63 -37 CURVE",
"27 57 LINE",
"97.667 57 OFFCURVE",
"133 90.667 OFFCURVE",
"133 156 CURVE SMOOTH",
"133 591 LINE",
"72 593 LINE",
"72 698 LINE",
"240 698 LINE",
"240 139 LINE SMOOTH"
);
}
);
width = 281;
},
{
layerId = "BAA7A442-529C-4232-9150-0627B90683AA";
paths = (
{
closed = 1;
nodes = (
"173 36 OFFCURVE",
"124 -37 OFFCURVE",
"32.135 -37 CURVE",
"27 0 LINE",
"71 0 OFFCURVE",
"115.298 34.333 OFFCURVE",
"132.019 113 CURVE SMOOTH",
"245.524 647 LINE",
"179.949 649 LINE",
"190.364 698 LINE",
"313.364 698 LINE",
"190.082 118 LINE SMOOTH"
);
}
);
width = 206;
},
{
layerId = "EC4DDAD4-4840-4BAF-BE24-E50FF90D752F";
paths = (
{
closed = 1;
nodes = (
"246 28 OFFCURVE",
"166 -33 OFFCURVE",
"55.135 -37 CURVE",
"39.116 57 LINE",
"109.782 57 OFFCURVE",
"152.272 90.667 OFFCURVE",
"166.159 156 CURVE SMOOTH",
"258.621 591 LINE",
"198.046 593 LINE",
"220.364 698 LINE",
"388.364 698 LINE",
"269.545 139 LINE SMOOTH"
);
}
);
width = 281;
},
{
layerId = "350CE105-9128-4F96-9C2D-77D2DB4D6663";
paths = (
{
closed = 1;
nodes = (
"145 40 OFFCURVE",
"113 -22 OFFCURVE",
"24.135 -37 CURVE",
"21.961 -19 LINE",
"83.945 -9.667 OFFCURVE",
"125.51 35.333 OFFCURVE",
"143.082 118 CURVE SMOOTH",
"261.688 676 LINE",
"177.326 679 LINE",
"181.364 698 LINE",
"284.364 698 LINE",
"161.932 122 LINE SMOOTH"
);
}
);
width = 177;
}
);
leftKerningGroup = J;
rightKerningGroup = J;
unicode = 004A;
},
{
glyphname = K;
lastChange = "2019-02-08 07:35:54 +0000";
layers = (
{
layerId = master01;
paths = (
{
closed = 1;
nodes = (
"320 698 LINE",
"385 698 LINE",
"181 397 LINE",
"437 0 LINE",
"370 0 LINE",
"144 344 LINE",
"97 268 LINE",
"97 0 LINE",
"41 0 LINE",
"41 698 LINE",
"97 698 LINE",
"97 366 LINE"
);
}
);
width = 457;
},
{
layerId = "9D15C82E-7F80-48F0-B3D1-43822CDE4CEB";
paths = (
{
closed = 1;
nodes = (
"363 698 LINE",
"385 698 LINE",
"169 417 LINE",
"437 0 LINE",
"416 0 LINE",
"156 402 LINE",
"60 279 LINE",
"60 0 LINE",
"41 0 LINE",
"41 698 LINE",
"60 698 LINE",
"60 307 LINE"
);
}
);
width = 457;
},
{
layerId = "0D2E68F6-AD65-4FDC-99B3-7B414CE95F5B";
paths = (
{
closed = 1;
nodes = (
"320 700 LINE",
"452 700 LINE",
"253 408 LINE",
"492 0 LINE",
"354 0 LINE",
"186 308 LINE",
"159 264 LINE",
"159 0 LINE",
"41 0 LINE",
"41 700 LINE",
"159 700 LINE",
"159 453 LINE"
);
}
);
width = 514;
},
{
layerId = "BAA7A442-529C-4232-9150-0627B90683AA";
paths = (
{
closed = 1;
nodes = (
"468.395 698 LINE",
"533.395 698 LINE",
"265.402 397 LINE",
"437 0 LINE",
"370 0 LINE",
"217.134 344 LINE",
"153.977 268 LINE",
"97 0 LINE",
"41 0 LINE",
"189.395 698 LINE",
"245.395 698 LINE",
"174.812 366 LINE"
);
}
);
width = 457;
},
{
layerId = "EC4DDAD4-4840-4BAF-BE24-E50FF90D752F";
paths = (
{
closed = 1;
nodes = (
"468.82 700 LINE",
"600.82 700 LINE",
"339.741 408 LINE",
"492 0 LINE",
"354 0 LINE",
"251.481 308 LINE",
"215.126 264 LINE",
"159 0 LINE",
"41 0 LINE",
"189.82 700 LINE",
"307.82 700 LINE",
"255.308 453 LINE"
);
}
);
width = 514;
},
{
layerId = "350CE105-9128-4F96-9C2D-77D2DB4D6663";
paths = (
{
closed = 1;
nodes = (
"507 698 LINE",
"533.395 698 LINE",
"257.654 417 LINE",
"437 0 LINE",
"416 0 LINE",
"241.465 402 LINE",
"119.315 279 LINE",
"60 0 LINE",
"41 0 LINE",
"189.395 698 LINE",
"208.395 698 LINE",
"127 312 LINE"
);
}
);
width = 457;
}
);
leftKerningGroup = K;
rightKerningGroup = K;
unicode = 004B;
},
{
glyphname = L;
lastChange = "2019-02-08 07:35:54 +0000";
layers = (
{
layerId = master01;
paths = (
{
closed = 1;
nodes = (
"41 698 LINE",
"97 698 LINE",
"97 50 LINE",
"401 50 LINE",
"401 0 LINE",
"41 0 LINE"
);
}
);
width = 423;
},
{
layerId = "9D15C82E-7F80-48F0-B3D1-43822CDE4CEB";
paths = (
{
closed = 1;
nodes = (
"41 698 LINE",
"60 698 LINE",
"60 20 LINE",
"401 20 LINE",
"401 0 LINE",
"41 0 LINE"
);
}
);
width = 419;
},
{
layerId = "0D2E68F6-AD65-4FDC-99B3-7B414CE95F5B";
paths = (
{
closed = 1;
nodes = (
"41 698 LINE",
"151 698 LINE",
"151 101 LINE",
"402 101 LINE",
"402 0 LINE",
"41 0 LINE"
);
}
);
width = 428;
},
{
layerId = "BAA7A442-529C-4232-9150-0627B90683AA";
paths = (
{
closed = 1;
nodes = (
"189.395 698 LINE",
"245.395 698 LINE",
"107.63 50 LINE",
"411.63 50 LINE",
"401 0 LINE",
"41 0 LINE"
);
}
);
width = 423;
},
{
layerId = "EC4DDAD4-4840-4BAF-BE24-E50FF90D752F";
paths = (
{
closed = 1;
nodes = (
"189.395 698 LINE",
"299.395 698 LINE",
"172.473 101 LINE",
"423.473 101 LINE",
"402 0 LINE",
"41 0 LINE"
);
}
);
width = 428;
},
{
layerId = "350CE105-9128-4F96-9C2D-77D2DB4D6663";
paths = (
{
closed = 1;
nodes = (
"189.395 698 LINE",
"208.395 698 LINE",
"64.252 20 LINE",
"405.252 20 LINE",
"401 0 LINE",
"41 0 LINE"
);
}
);
width = 419;
}
);
leftKerningGroup = L;
rightKerningGroup = L;
unicode = 004C;
},
{
glyphname = Lslash;
lastChange = "2019-02-08 07:35:54 +0000";
layers = (
{
layerId = master01;
paths = (
{
closed = 1;
nodes = (
"126 346 LINE",
"40 308 LINE",
"18 358 LINE",
"126 406 LINE",
"126 698 LINE",
"182 698 LINE",
"182 431 LINE",
"309 488 LINE",
"332 439 LINE",
"182 372 LINE",
"182 50 LINE",
"487 50 LINE",
"487 0 LINE",
"126 0 LINE"
);
}
);
width = 509;
},
{
layerId = "9D15C82E-7F80-48F0-B3D1-43822CDE4CEB";
paths = (
{
closed = 1;
nodes = (
"125 386 LINE",
"25 341 LINE",
"17 358 LINE",
"125 406 LINE",
"125 698 LINE",
"145 698 LINE",
"145 415 LINE",
"307 488 LINE",
"315 472 LINE",
"145 395 LINE",
"145 20 LINE",
"486 20 LINE",
"486 0 LINE",
"125 0 LINE"
);
}
);
width = 504;
},
{
layerId = "0D2E68F6-AD65-4FDC-99B3-7B414CE95F5B";
paths = (
{
closed = 1;
nodes = (
"129 309 LINE",
"57 277 LINE",
"21 359 LINE",
"129 407 LINE",
"129 698 LINE",
"238 698 LINE",
"238 455 LINE",
"311 488 LINE",
"348 409 LINE",
"238 359 LINE",
"238 101 LINE",
"489 101 LINE",
"489 0 LINE",
"129 0 LINE"
);
}
);
width = 516;
},
{
layerId = "BAA7A442-529C-4232-9150-0627B90683AA";
paths = (
{
closed = 1;
nodes = (
"199.545 346 LINE",
"105.467 308 LINE",
"94.095 358 LINE",
"212.298 406 LINE",
"274.364 698 LINE",
"330.364 698 LINE",
"273.612 431 LINE",
"412.728 488 LINE",
"425.312 439 LINE",
"261.071 372 LINE",
"192.628 50 LINE",
"497.628 50 LINE",
"487 0 LINE",
"126 0 LINE"
);
}
);
width = 509;
},
{
layerId = "EC4DDAD4-4840-4BAF-BE24-E50FF90D752F";
paths = (
{
closed = 1;
nodes = (
"194.68 309 LINE",
"115.878 277 LINE",
"97.308 359 LINE",
"215.511 407 LINE",
"277.364 698 LINE",
"386.364 698 LINE",
"334.713 455 LINE",
"414.728 488 LINE",
"434.936 409 LINE",
"314.308 359 LINE",
"259.468 101 LINE",
"510.468 101 LINE",
"489 0 LINE",
"129 0 LINE"
);
}
);
width = 516;
},
{
layerId = "350CE105-9128-4F96-9C2D-77D2DB4D6663";
paths = (
{
closed = 1;
nodes = (
"207.047 386 LINE",
"97.482 341 LINE",
"93.095 358 LINE",
"211.298 406 LINE",
"273.364 698 LINE",
"293.364 698 LINE",
"233.211 415 LINE",
"410.728 488 LINE",
"415.327 472 LINE",
"228.96 395 LINE",
"149.251 20 LINE",
"490.251 20 LINE",
"486 0 LINE",
"125 0 LINE"
);
}
);
width = 504;
}
);
leftKerningGroup = L;
rightKerningGroup = L;
unicode = 0141;
},
{
glyphname = M;
lastChange = "2019-02-08 07:35:54 +0000";
layers = (
{
layerId = master01;
paths = (
{
closed = 1;
nodes = (
"307 86 LINE",
"520 698 LINE",
"576 698 LINE",
"576 0 LINE",
"520 0 LINE",
"520 533 LINE",
"338 0 LINE",
"277 0 LINE",
"97 533 LINE",
"97 0 LINE",
"41 0 LINE",
"41 698 LINE",
"97 698 LINE"
);
}
);
width = 619;
},
{
layerId = "9D15C82E-7F80-48F0-B3D1-43822CDE4CEB";
paths = (
{
closed = 1;
nodes = (
"308 30 LINE",
"558 698 LINE",
"576 698 LINE",
"576 0 LINE",
"558 0 LINE",
"558 646 LINE",
"316 0 LINE",
"298 0 LINE",
"59 646 LINE",
"59 0 LINE",
"41 0 LINE",
"41 698 LINE",
"59 698 LINE"
);
}
);
width = 619;
},
{
layerId = "0D2E68F6-AD65-4FDC-99B3-7B414CE95F5B";
paths = (
{
closed = 1;
nodes = (
"308 207 LINE",
"467 698 LINE",
"577 698 LINE",
"577 0 LINE",
"467 0 LINE",
"467 370 LINE",
"350 0 LINE",
"267 0 LINE",
"151 369 LINE",
"151 0 LINE",
"41 0 LINE",
"41 698 LINE",
"151 698 LINE"
);
}
);
width = 620;
},
{
layerId = "BAA7A442-529C-4232-9150-0627B90683AA";
paths = (
{
closed = 1;
nodes = (
"325.28 86 LINE",
"668.364 698 LINE",
"724.364 698 LINE",
"576 0 LINE",
"520 0 LINE",
"633.293 533 LINE",
"338 0 LINE",
"277 0 LINE",
"210.293 533 LINE",
"97 0 LINE",
"41 0 LINE",
"189.364 698 LINE",
"245.364 698 LINE"
);
}
);
width = 619;
},
{
layerId = "EC4DDAD4-4840-4BAF-BE24-E50FF90D752F";
paths = (
{
closed = 1;
nodes = (
"352 207 LINE",
"615.365 698 LINE",
"725.365 698 LINE",
"577 0 LINE",
"467 0 LINE",
"545.646 370 LINE",
"350 0 LINE",
"267 0 LINE",
"229.433 369 LINE",
"151 0 LINE",
"41 0 LINE",
"189.364 698 LINE",
"299.364 698 LINE"
);
}
);
width = 620;
},
{
layerId = "350CE105-9128-4F96-9C2D-77D2DB4D6663";
paths = (
{
closed = 1;
nodes = (
"313 35 LINE",
"704 698 LINE",
"724.364 698 LINE",
"576 0 LINE",
"557 0 LINE",
"693 642 LINE",
"316 0 LINE",
"298 0 LINE",
"196.312 646 LINE",
"59 0 LINE",
"39 0 LINE",
"187.364 698 LINE",
"207.364 698 LINE"
);
}
);
width = 619;
}
);
leftKerningGroup = M;
rightKerningGroup = M;
unicode = 004D;
},
{
glyphname = N;
lastChange = "2019-02-08 07:35:54 +0000";
layers = (
{
layerId = master01;
paths = (
{
closed = 1;
nodes = (
"532 0 LINE",
"476 0 LINE",
"97 595 LINE",
"97 0 LINE",
"41 0 LINE",
"41 698 LINE",
"97 698 LINE",
"476 102 LINE",
"476 698 LINE",
"532 698 LINE"
);
}
);
width = 575;
},
{
layerId = "9D15C82E-7F80-48F0-B3D1-43822CDE4CEB";
paths = (
{
closed = 1;
nodes = (
"532 0 LINE",
"515 0 LINE",
"59 668 LINE",
"59 0 LINE",
"41 0 LINE",
"41 698 LINE",
"59 698 LINE",
"515 32 LINE",
"515 698 LINE",
"532 698 LINE"
);
}
);
width = 575;
},
{
layerId = "0D2E68F6-AD65-4FDC-99B3-7B414CE95F5B";
paths = (
{
closed = 1;
nodes = (
"533 0 LINE",
"422 0 LINE",
"151 472 LINE",
"151 0 LINE",
"41 0 LINE",
"41 698 LINE",
"151 698 LINE",
"422 210 LINE",
"422 698 LINE",
"533 698 LINE"
);
}
);
width = 576;
},
{
layerId = "BAA7A442-529C-4232-9150-0627B90683AA";
paths = (
{
closed = 1;
nodes = (
"532 0 LINE",
"476 0 LINE",
"223.497 595 LINE",
"97 0 LINE",
"41 0 LINE",
"189.395 698 LINE",
"245.395 698 LINE",
"497.685 102 LINE",
"624.395 698 LINE",
"680.395 698 LINE"
);
}
);
width = 575;
},
{
layerId = "EC4DDAD4-4840-4BAF-BE24-E50FF90D752F";
paths = (
{
closed = 1;
nodes = (
"533 0 LINE",
"422 0 LINE",
"251.347 472 LINE",
"151 0 LINE",
"41 0 LINE",
"189.395 698 LINE",
"299.395 698 LINE",
"466.646 210 LINE",
"570.395 698 LINE",
"681.395 698 LINE"
);
}
);
width = 576;
},
{
layerId = "350CE105-9128-4F96-9C2D-77D2DB4D6663";
paths = (
{
closed = 1;
nodes = (
"532 0 LINE",
"515 0 LINE",
"202 664 LINE",
"61 0 LINE",
"41 0 LINE",
"189.395 698 LINE",
"207.395 698 LINE",
"520 36 LINE",
"661.395 698 LINE",
"680.395 698 LINE"
);
}
);
width = 575;
}
);
leftKerningGroup = M;
rightKerningGroup = M;
unicode = 004E;
},
{
glyphname = Eng;
lastChange = "2019-02-08 07:35:54 +0000";
layers = (
{
layerId = master01;
paths = (
{
closed = 1;
nodes = (
"533 -107.333 OFFCURVE",
"523.667 -139.667 OFFCURVE",
"501 -165 CURVE SMOOTH",
"483.667 -183.667 OFFCURVE",
"460.333 -197.333 OFFCURVE",
"427 -208 CURVE",
"412 -165 LINE",
"432 -157 OFFCURVE",
"447.333 -144.667 OFFCURVE",
"458 -130 CURVE SMOOTH",
"471.333 -111.333 OFFCURVE",
"477 -88.667 OFFCURVE",
"477 -62 CURVE SMOOTH",
"477 1 LINE",
"97 595 LINE",
"97 0 LINE",
"41 0 LINE",
"41 698 LINE",
"98 698 LINE",
"477 103 LINE",
"477 698 LINE",
"533 698 LINE",
"533 -62 LINE SMOOTH"
);
}
);
width = 576;
},
{
layerId = "9D15C82E-7F80-48F0-B3D1-43822CDE4CEB";
paths = (
{
closed = 1;
nodes = (
"533 -113.667 OFFCURVE",
"522.667 -148.667 OFFCURVE",
"496 -174 CURVE SMOOTH",
"480 -190 OFFCURVE",
"456.667 -201.333 OFFCURVE",
"426 -212 CURVE",
"421 -195 LINE",
"451.667 -183 OFFCURVE",
"461.667 -177.333 OFFCURVE",
"483 -160 CURVE SMOOTH",
"504.333 -141.333 OFFCURVE",
"516 -111.333 OFFCURVE",
"516 -66 CURVE SMOOTH",
"516 1 LINE",
"61 668 LINE",
"61 0 LINE",
"41 0 LINE",
"41 698 LINE",
"60 698 LINE",
"516 33 LINE",
"516 698 LINE",
"533 698 LINE",
"533 -67 LINE SMOOTH"
);
}
);
width = 576;
},
{
layerId = "0D2E68F6-AD65-4FDC-99B3-7B414CE95F5B";
paths = (
{
closed = 1;
nodes = (
"534 -116.333 OFFCURVE",
"514.667 -149.333 OFFCURVE",
"488 -176 CURVE",
"458.667 -201.333 OFFCURVE",
"411 -213 OFFCURVE",
"383 -213 CURVE",
"353 -124 LINE",
"375.667 -118.667 OFFCURVE",
"390.667 -115.667 OFFCURVE",
"404 -101 CURVE",
"416 -90.333 OFFCURVE",
"424 -73.333 OFFCURVE",
"424 -48 CURVE SMOOTH",
"424 0 LINE",
"151 472 LINE",
"151 0 LINE",
"41 0 LINE",
"41 698 LINE",
"152 698 LINE",
"424 230 LINE",
"424 698 LINE",
"534 698 LINE",
"534 -59 LINE SMOOTH"
);
}
);
width = 577;
},
{
layerId = "BAA7A442-529C-4232-9150-0627B90683AA";
paths = (
{
closed = 1;
nodes = (
"510.186 -107.333 OFFCURVE",
"493.98 -139.667 OFFCURVE",
"465.928 -165 CURVE SMOOTH",
"444.627 -183.667 OFFCURVE",
"418.389 -197.333 OFFCURVE",
"382.788 -208 CURVE",
"376.928 -165 LINE",
"398.629 -157 OFFCURVE",
"416.583 -144.667 OFFCURVE",
"430.368 -130 CURVE SMOOTH",
"447.669 -111.333 OFFCURVE",
"458.153 -88.667 OFFCURVE",
"463.821 -62 CURVE SMOOTH",
"477.213 1 LINE",
"223.471 595 LINE",
"97 0 LINE",
"41 0 LINE",
"189.364 698 LINE",
"246.364 698 LINE",
"498.893 103 LINE",
"625.364 698 LINE",
"681.364 698 LINE",
"519.821 -62 LINE SMOOTH"
);
}
);
width = 576;
},
{
layerId = "EC4DDAD4-4840-4BAF-BE24-E50FF90D752F";
paths = (
{
closed = 1;
nodes = (
"509.273 -116.333 OFFCURVE",
"482.925 -149.333 OFFCURVE",
"450.59 -176 CURVE",
"415.872 -201.333 OFFCURVE",
"365.725 -213 OFFCURVE",
"337.725 -213 CURVE",
"326.643 -124 LINE",
"350.443 -118.667 OFFCURVE",
"366.081 -115.667 OFFCURVE",
"382.532 -101 CURVE",
"396.799 -90.333 OFFCURVE",
"408.413 -73.333 OFFCURVE",
"413.797 -48 CURVE SMOOTH",
"424 0 LINE",
"251.327 472 LINE",
"151 0 LINE",
"41 0 LINE",
"189.364 698 LINE",
"300.364 698 LINE",
"472.888 230 LINE",
"572.364 698 LINE",
"682.364 698 LINE",
"521.459 -59 LINE SMOOTH"
);
}
);
width = 577;
},
{
layerId = "350CE105-9128-4F96-9C2D-77D2DB4D6663";
paths = (
{
closed = 1;
nodes = (
"508.839 -113.667 OFFCURVE",
"491.067 -148.667 OFFCURVE",
"459.015 -174 CURVE SMOOTH",
"439.614 -190 OFFCURVE",
"413.872 -201.333 OFFCURVE",
"380.938 -212 CURVE",
"379.552 -195 LINE",
"412.769 -183 OFFCURVE",
"423.973 -177.333 OFFCURVE",
"448.991 -160 CURVE SMOOTH",
"474.292 -141.333 OFFCURVE",
"492.335 -111.333 OFFCURVE",
"501.971 -66 CURVE SMOOTH",
"516.213 1 LINE",
"202.988 668 LINE",
"61 0 LINE",
"41 0 LINE",
"189.364 698 LINE",
"208.364 698 LINE",
"523.014 33 LINE",
"664.364 698 LINE",
"681.364 698 LINE",
"518.759 -67 LINE SMOOTH"
);
}
);
width = 576;
}
);
unicode = 014A;
},
{
glyphname = O;
lastChange = "2019-02-08 07:35:54 +0000";
layers = (
{
layerId = master01;
paths = (
{
closed = 1;
nodes = (
"34 642 OFFCURVE",
"114 714 OFFCURVE",
"246 714 CURVE SMOOTH",
"378 714 OFFCURVE",
"454 635.667 OFFCURVE",
"454 505 CURVE SMOOTH",
"454 185 LINE SMOOTH",
"454 64.233 OFFCURVE",
"368.583 -11 OFFCURVE",
"245 -11 CURVE SMOOTH",
"126.833 -11 OFFCURVE",
"34 56.133 OFFCURVE",
"34 185 CURVE SMOOTH",
"34 506 LINE SMOOTH"
);
},
{
closed = 1;
nodes = (
"90 90 OFFCURVE",
"155.4 42 OFFCURVE",
"243 42 CURVE SMOOTH",
"334.4 42 OFFCURVE",
"399 87.75 OFFCURVE",
"399 186 CURVE SMOOTH",
"399 515 LINE SMOOTH",
"399 612.333 OFFCURVE",
"337.667 661 OFFCURVE",
"243 661 CURVE SMOOTH",
"151 661 OFFCURVE",
"90 612.333 OFFCURVE",
"90 515 CURVE SMOOTH",
"90 186 LINE SMOOTH"
);
}
);
width = 490;
},
{
layerId = "9D15C82E-7F80-48F0-B3D1-43822CDE4CEB";
paths = (
{
closed = 1;
nodes = (
"33 636 OFFCURVE",
"112 714 OFFCURVE",
"244 714 CURVE SMOOTH",
"374.667 714 OFFCURVE",
"451 635.667 OFFCURVE",
"451 505 CURVE SMOOTH",
"451 185 LINE SMOOTH",
"451 62.883 OFFCURVE",
"368.167 -11 OFFCURVE",
"243 -11 CURVE SMOOTH",
"126.4 -11 OFFCURVE",
"33 56.133 OFFCURVE",
"33 185 CURVE SMOOTH",
"33 506 LINE SMOOTH"
);
},
{
closed = 1;
nodes = (
"52 66.217 OFFCURVE",
"136.817 8 OFFCURVE",
"243 8 CURVE SMOOTH",
"350.767 8 OFFCURVE",
"433 66.217 OFFCURVE",
"433 184 CURVE SMOOTH",
"433 508 LINE SMOOTH",
"433 621 OFFCURVE",
"369 694 OFFCURVE",
"244 694 CURVE SMOOTH",
"117 694 OFFCURVE",
"52 620.667 OFFCURVE",
"52 506 CURVE SMOOTH",
"52 184 LINE SMOOTH"
);
}
);
width = 486;
},
{
layerId = "0D2E68F6-AD65-4FDC-99B3-7B414CE95F5B";
paths = (
{
closed = 1;
nodes = (
"36 642 OFFCURVE",
"116 715 OFFCURVE",
"248 715 CURVE SMOOTH",
"380 715 OFFCURVE",
"456 635.667 OFFCURVE",
"456 505 CURVE SMOOTH",
"456 185 LINE SMOOTH",
"456 62.883 OFFCURVE",
"372.833 -11 OFFCURVE",
"247 -11 CURVE SMOOTH",
"128.833 -11 OFFCURVE",
"36 56.133 OFFCURVE",
"36 185 CURVE SMOOTH",
"36 506 LINE SMOOTH"
);
},
{
closed = 1;
nodes = (
"146 140.283 OFFCURVE",
"179.333 101 OFFCURVE",
"246 101 CURVE SMOOTH",
"309.067 101 OFFCURVE",
"346 143.2 OFFCURVE",
"346 206 CURVE SMOOTH",
"346 469 LINE SMOOTH",
"346 554.333 OFFCURVE",
"323.333 598 OFFCURVE",
"246 598 CURVE SMOOTH",
"176.667 598 OFFCURVE",
"146 556.667 OFFCURVE",
"146 470 CURVE SMOOTH",
"146 204 LINE SMOOTH"
);
}
);
width = 493;
},
{
layerId = "BAA7A442-529C-4232-9150-0627B90683AA";
paths = (
{
closed = 1;
nodes = (
"170.461 642 OFFCURVE",
"265.765 714 OFFCURVE",
"397.765 714 CURVE SMOOTH",
"529.765 714 OFFCURVE",
"589.115 635.667 OFFCURVE",
"561.341 505 CURVE SMOOTH",
"493.323 185 LINE SMOOTH",
"467.666 64.295 OFFCURVE",
"366.241 -11 OFFCURVE",
"242.662 -11 CURVE SMOOTH",
"124.464 -11 OFFCURVE",
"45.907 56.016 OFFCURVE",
"73.323 185 CURVE SMOOTH",
"141.554 506 LINE SMOOTH"
);
},
{
closed = 1;
nodes = (
"109.118 89.943 OFFCURVE",
"164.337 42 OFFCURVE",
"251.927 42 CURVE SMOOTH",
"343.321 42 OFFCURVE",
"417.66 87.788 OFFCURVE",
"438.536 186 CURVE SMOOTH",
"508.467 515 LINE SMOOTH",
"529.155 612.333 OFFCURVE",
"478.167 661 OFFCURVE",
"383.5 661 CURVE SMOOTH",
"291.5 661 OFFCURVE",
"220.155 612.333 OFFCURVE",
"199.467 515 CURVE SMOOTH",
"129.536 186 LINE SMOOTH"
);
}
);
width = 490;
},
{
layerId = "EC4DDAD4-4840-4BAF-BE24-E50FF90D752F";
paths = (
{
closed = 1;
nodes = (
"172.461 642 OFFCURVE",
"267.978 715 OFFCURVE",
"399.978 715 CURVE SMOOTH",
"531.978 715 OFFCURVE",
"591.115 635.667 OFFCURVE",
"563.341 505 CURVE SMOOTH",
"495.323 185 LINE SMOOTH",
"469.381 62.955 OFFCURVE",
"370.432 -11 OFFCURVE",
"244.662 -11 CURVE SMOOTH",
"126.464 -11 OFFCURVE",
"47.907 56.016 OFFCURVE",
"75.323 185 CURVE SMOOTH",
"143.554 506 LINE SMOOTH"
);
},
{
closed = 1;
nodes = (
"175.812 140.254 OFFCURVE",
"200.794 101 OFFCURVE",
"267.468 101 CURVE SMOOTH",
"330.46 101 OFFCURVE",
"376.435 143.188 OFFCURVE",
"389.787 206 CURVE SMOOTH",
"445.689 469 LINE SMOOTH",
"463.827 554.333 OFFCURVE",
"450.442 598 OFFCURVE",
"373.109 598 CURVE SMOOTH",
"303.775 598 OFFCURVE",
"264.323 556.667 OFFCURVE",
"245.902 470 CURVE SMOOTH",
"189.362 204 LINE SMOOTH"
);
}
);
width = 493;
},
{
layerId = "350CE105-9128-4F96-9C2D-77D2DB4D6663";
paths = (
{
closed = 1;
nodes = (
"169.461 642 OFFCURVE",
"263.235 714 OFFCURVE",
"395 714 CURVE SMOOTH",
"524.235 714 OFFCURVE",
"586.865 637.647 OFFCURVE",
"559 507 CURVE SMOOTH",
"490.323 185 LINE SMOOTH",
"463.863 63.029 OFFCURVE",
"365.771 -11 OFFCURVE",
"240.662 -11 CURVE SMOOTH",
"124.035 -11 OFFCURVE",
"44.901 55.991 OFFCURVE",
"72.323 185 CURVE SMOOTH",
"140.554 506 LINE SMOOTH"
);
},
{
closed = 1;
nodes = (
"69.135 77.937 OFFCURVE",
"126 8 OFFCURVE",
"244.7 8 CURVE SMOOTH",
"344 8 OFFCURVE",
"444.72 69.358 OFFCURVE",
"470 187 CURVE SMOOTH",
"538.979 508 LINE SMOOTH",
"563.91 624.019 OFFCURVE",
"516.667 694 OFFCURVE",
"390 694 CURVE SMOOTH",
"264.667 694 OFFCURVE",
"185.688 620.854 OFFCURVE",
"160.554 506 CURVE SMOOTH",
"92 185 LINE SMOOTH"
);
}
);
width = 486;
}
);
leftKerningGroup = O;
rightKerningGroup = O;
unicode = 004F;
},
{
glyphname = Oslash;
lastChange = "2019-02-08 07:35:54 +0000";
layers = (
{
components = (
{
name = O;
}
);
layerId = master01;
paths = (
{
closed = 1;
nodes = (
"410 815 LINE",
"466 815 LINE",
"147 -113 LINE",
"86 -113 LINE"
);
}
);
width = 490;
},
{
components = (
{
name = O;
}
);
layerId = "9D15C82E-7F80-48F0-B3D1-43822CDE4CEB";
paths = (
{
closed = 1;
nodes = (
"426 815 LINE",
"447 815 LINE",
"124 -113 LINE",
"104 -113 LINE"
);
}
);
width = 486;
},
{
components = (
{
name = O;
}
);
layerId = "0D2E68F6-AD65-4FDC-99B3-7B414CE95F5B";
paths = (
{
closed = 1;
nodes = (
"324 720 LINE",
"424 720 LINE",
"162 -18 LINE",
"66 -18 LINE"
);
}
);
width = 493;
},
{
components = (
{
name = O;
}
);
layerId = "BAA7A442-529C-4232-9150-0627B90683AA";
paths = (
{
closed = 1;
nodes = (
"583.234 815 LINE",
"639.234 815 LINE",
"122.981 -113 LINE",
"61.981 -113 LINE"
);
}
);
width = 490;
},
{
components = (
{
name = O;
}
);
layerId = "EC4DDAD4-4840-4BAF-BE24-E50FF90D752F";
paths = (
{
closed = 1;
nodes = (
"477.041 720 LINE",
"577.041 720 LINE",
"158.174 -18 LINE",
"62.174 -18 LINE"
);
}
);
width = 493;
},
{
components = (
{
name = O;
}
);
layerId = "350CE105-9128-4F96-9C2D-77D2DB4D6663";
paths = (
{
closed = 1;
nodes = (
"599.234 815 LINE",
"620.234 815 LINE",
"99.981 -113 LINE",
"79.981 -113 LINE"
);
}
);
width = 486;
}
);
leftKerningGroup = O;
rightKerningGroup = O;
unicode = 00D8;
},
{
glyphname = OE;
lastChange = "2019-02-08 07:35:54 +0000";
layers = (
{
layerId = master01;
paths = (
{
closed = 1;
nodes = (
"397 43 LINE",
"360.05 8.103 OFFCURVE",
"306.593 -11 OFFCURVE",
"245 -11 CURVE SMOOTH",
"126.833 -11 OFFCURVE",
"34 56.133 OFFCURVE",
"34 185 CURVE SMOOTH",
"34 506 LINE SMOOTH",
"34 642 OFFCURVE",
"114 714 OFFCURVE",
"246 714 CURVE SMOOTH",
"310 714 OFFCURVE",
"362.333 694.667 OFFCURVE",
"397 660 CURVE",
"397 698 LINE",
"731 698 LINE",
"731 646 LINE",
"454 646 LINE",
"454 411 LINE",
"644 411 LINE",
"625 356 LINE",
"454 356 LINE",
"454 50 LINE",
"729 50 LINE",
"729 0 LINE",
"397 0 LINE"
);
},
{
closed = 1;
nodes = (
"90 90 OFFCURVE",
"155.4 42 OFFCURVE",
"243 42 CURVE SMOOTH",
"327.402 42 OFFCURVE",
"388.893 80.903 OFFCURVE",
"397 164 CURVE",
"397 536 LINE",
"389 618.667 OFFCURVE",
"329.667 661 OFFCURVE",
"243 661 CURVE SMOOTH",
"151 661 OFFCURVE",
"90 612.333 OFFCURVE",
"90 515 CURVE SMOOTH",
"90 186 LINE SMOOTH"
);
}
);
width = 762;
},
{
layerId = "9D15C82E-7F80-48F0-B3D1-43822CDE4CEB";
paths = (
{
closed = 1;
nodes = (
"433 95 LINE",
"400.737 28.458 OFFCURVE",
"332.927 -11 OFFCURVE",
"243 -11 CURVE SMOOTH",
"126.4 -11 OFFCURVE",
"33 56.133 OFFCURVE",
"33 185 CURVE SMOOTH",
"33 506 LINE SMOOTH",
"33 642 OFFCURVE",
"113 714 OFFCURVE",
"245 714 CURVE SMOOTH",
"337 714 OFFCURVE",
"402.333 673.333 OFFCURVE",
"433 604 CURVE",
"433 698 LINE",
"766 698 LINE",
"766 679 LINE",
"451 679 LINE",
"451 411 LINE",
"679 411 LINE",
"672 393 LINE",
"451 393 LINE",
"451 19 LINE",
"764 19 LINE",
"764 0 LINE",
"433 0 LINE"
);
},
{
closed = 1;
nodes = (
"52 77.017 OFFCURVE",
"136.817 8 OFFCURVE",
"243 8 CURVE SMOOTH",
"350.767 8 OFFCURVE",
"433 66.217 OFFCURVE",
"433 184 CURVE SMOOTH",
"433 517 LINE",
"429 627.667 OFFCURVE",
"364.667 693 OFFCURVE",
"242 693 CURVE SMOOTH",
"116.667 693 OFFCURVE",
"52 620.667 OFFCURVE",
"52 506 CURVE SMOOTH",
"52 184 LINE SMOOTH"
);
}
);
width = 794;
},
{
layerId = "0D2E68F6-AD65-4FDC-99B3-7B414CE95F5B";
paths = (
{
closed = 1;
nodes = (
"346 28 LINE",
"333.89 -0.257 OFFCURVE",
"279.838 -12 OFFCURVE",
"244 -12 CURVE SMOOTH",
"125.133 -12 OFFCURVE",
"36 55.133 OFFCURVE",
"36 184 CURVE SMOOTH",
"36 505 LINE SMOOTH",
"36 642.333 OFFCURVE",
"117.946 714 OFFCURVE",
"235.828 714 CURVE SMOOTH",
"273 714 OFFCURVE",
"330 697.667 OFFCURVE",
"346 675 CURVE",
"346 698 LINE",
"680 698 LINE",
"680 588 LINE",
"456 588 LINE",
"456 413 LINE",
"593 413 LINE",
"561 308 LINE",
"456 308 LINE",
"456 100 LINE",
"678 100 LINE",
"678 0 LINE",
"346 0 LINE"
);
},
{
closed = 1;
nodes = (
"146 139.617 OFFCURVE",
"181.939 100 OFFCURVE",
"246 100 CURVE SMOOTH",
"308 100 OFFCURVE",
"346 142.2 OFFCURVE",
"346 205 CURVE SMOOTH",
"346 468 LINE SMOOTH",
"346 553.333 OFFCURVE",
"312 595 OFFCURVE",
"246 595 CURVE SMOOTH",
"181.939 595 OFFCURVE",
"146 554 OFFCURVE",
"146 469 CURVE SMOOTH",
"146 204 LINE SMOOTH"
);
}
);
width = 715;
},
{
layerId = "BAA7A442-529C-4232-9150-0627B90683AA";
paths = (
{
closed = 1;
nodes = (
"406.14 43 LINE",
"361.837 8.153 OFFCURVE",
"304.112 -11 OFFCURVE",
"242.662 -11 CURVE SMOOTH",
"124.464 -11 OFFCURVE",
"45.907 56.016 OFFCURVE",
"73.323 185 CURVE SMOOTH",
"141.554 506 LINE SMOOTH",
"170.461 642 OFFCURVE",
"265.765 714 OFFCURVE",
"397.765 714 CURVE SMOOTH",
"461.765 714 OFFCURVE",
"509.989 694.667 OFFCURVE",
"537.287 660 CURVE",
"545.364 698 LINE",
"879.364 698 LINE",
"868.312 646 LINE",
"591.312 646 LINE",
"541.361 411 LINE",
"731.361 411 LINE",
"700.67 356 LINE",
"529.67 356 LINE",
"464.628 50 LINE",
"739.628 50 LINE",
"729 0 LINE",
"397 0 LINE"
);
},
{
closed = 1;
nodes = (
"109.118 89.943 OFFCURVE",
"164.337 42 OFFCURVE",
"251.927 42 CURVE SMOOTH",
"336.258 42 OFFCURVE",
"406.116 80.988 OFFCURVE",
"431.859 164 CURVE",
"510.93 536 LINE",
"520.502 618.667 OFFCURVE",
"470.167 661 OFFCURVE",
"383.5 661 CURVE SMOOTH",
"291.5 661 OFFCURVE",
"220.155 612.333 OFFCURVE",
"199.467 515 CURVE SMOOTH",
"129.536 186 LINE SMOOTH"
);
}
);
width = 762;
},
{
layerId = "EC4DDAD4-4840-4BAF-BE24-E50FF90D752F";
paths = (
{
closed = 1;
nodes = (
"351.952 28 LINE",
"333.891 -0.169 OFFCURVE",
"277.194 -12 OFFCURVE",
"241.449 -12 CURVE SMOOTH",
"122.555 -12 OFFCURVE",
"47.69 54.998 OFFCURVE",
"75.11 184 CURVE SMOOTH",
"143.341 505 LINE SMOOTH",
"172.532 642.333 OFFCURVE",
"264.765 714 OFFCURVE",
"396.765 714 CURVE SMOOTH",
"434.099 714 OFFCURVE",
"478.294 697.667 OFFCURVE",
"489.476 675 CURVE",
"494.364 698 LINE",
"828.364 698 LINE",
"804.983 588 LINE",
"580.983 588 LINE",
"543.786 413 LINE",
"680.786 413 LINE",
"626.467 308 LINE",
"521.467 308 LINE",
"477.256 100 LINE",
"699.256 100 LINE",
"678 0 LINE",
"346 0 LINE"
);
},
{
closed = 1;
nodes = (
"175.671 139.593 OFFCURVE",
"198.298 100 OFFCURVE",
"267.256 100 CURVE SMOOTH",
"329.338 100 OFFCURVE",
"376.235 142.244 OFFCURVE",
"389.574 205 CURVE SMOOTH",
"445.476 468 LINE SMOOTH",
"463.615 553.333 OFFCURVE",
"449.804 595 OFFCURVE",
"372.471 595 CURVE SMOOTH",
"299.138 595 OFFCURVE",
"264.111 555.667 OFFCURVE",
"245.689 469 CURVE SMOOTH",
"189.362 204 LINE SMOOTH"
);
}
);
width = 715;
},
{
layerId = "350CE105-9128-4F96-9C2D-77D2DB4D6663";
paths = (
{
closed = 1;
nodes = (
"453.193 95 LINE",
"406.82 28.507 OFFCURVE",
"330.498 -11 OFFCURVE",
"240.662 -11 CURVE SMOOTH",
"124.035 -11 OFFCURVE",
"44.901 55.991 OFFCURVE",
"72.323 185 CURVE SMOOTH",
"140.554 506 LINE SMOOTH",
"169.461 642 OFFCURVE",
"264.765 714 OFFCURVE",
"396.765 714 CURVE SMOOTH",
"488.765 714 OFFCURVE",
"545.455 673.333 OFFCURVE",
"561.384 604 CURVE",
"581.364 698 LINE",
"914.364 698 LINE",
"910.326 679 LINE",
"595.326 679 LINE",
"538.361 411 LINE",
"766.361 411 LINE",
"755.535 393 LINE",
"534.535 393 LINE",
"455.039 19 LINE",
"768.039 19 LINE",
"764 0 LINE",
"433 0 LINE"
);
},
{
closed = 1;
nodes = (
"68.349 76.914 OFFCURVE",
"138.432 8 OFFCURVE",
"244.7 8 CURVE SMOOTH",
"352.465 8 OFFCURVE",
"447.093 66.302 OFFCURVE",
"472.11 184 CURVE SMOOTH",
"542.892 517 LINE",
"562.415 627.667 OFFCURVE",
"511.968 693 OFFCURVE",
"389.302 693 CURVE SMOOTH",
"263.968 693 OFFCURVE",
"183.927 620.667 OFFCURVE",
"159.554 506 CURVE SMOOTH",
"91.11 184 LINE SMOOTH"
);
}
);
width = 794;
}
);
leftKerningGroup = AE;
rightKerningGroup = AE;
unicode = 0152;
},
{
glyphname = P;
lastChange = "2019-02-08 07:35:54 +0000";
layers = (
{
layerId = master01;
paths = (
{
closed = 1;
nodes = (
"402.874 698 OFFCURVE",
"474 642.823 OFFCURVE",
"474 472 CURVE SMOOTH",
"474 306.563 OFFCURVE",
"408.416 244 OFFCURVE",
"276 244 CURVE SMOOTH",
"228.778 244 OFFCURVE",
"160.222 244 OFFCURVE",
"97 244 CURVE",
"97 0 LINE",
"41 0 LINE",
"41 698 LINE",
"276 698 LINE SMOOTH"
);
},
{
closed = 1;
nodes = (
"170.333 299 OFFCURVE",
"236.917 299 OFFCURVE",
"281 299 CURVE SMOOTH",
"356.583 299 OFFCURVE",
"418 319.317 OFFCURVE",
"418 472 CURVE SMOOTH",
"418 613.433 OFFCURVE",
"358.833 645 OFFCURVE",
"281 645 CURVE SMOOTH",
"97 645 LINE",
"97 299 LINE"
);
}
);
width = 504;
},
{
layerId = "9D15C82E-7F80-48F0-B3D1-43822CDE4CEB";
paths = (
{
closed = 1;
nodes = (
"416.407 698 OFFCURVE",
"474 621.022 OFFCURVE",
"474 492 CURVE SMOOTH",
"474 353.437 OFFCURVE",
"417.433 280 OFFCURVE",
"283 280 CURVE SMOOTH",
"224.118 280 OFFCURVE",
"139.118 280 OFFCURVE",
"60 280 CURVE",
"60 0 LINE",
"41 0 LINE",
"41 698 LINE",
"290 698 LINE SMOOTH"
);
},
{
closed = 1;
nodes = (
"147.5 299 OFFCURVE",
"228.25 299 OFFCURVE",
"282 299 CURVE SMOOTH",
"403.633 299 OFFCURVE",
"455 366.933 OFFCURVE",
"455 492 CURVE SMOOTH",
"455 609.7 OFFCURVE",
"406.633 678 OFFCURVE",
"291 678 CURVE SMOOTH",
"60 678 LINE",
"60 299 LINE"
);
}
);
width = 502;
},
{
layerId = "0D2E68F6-AD65-4FDC-99B3-7B414CE95F5B";
paths = (
{
closed = 1;
nodes = (
"362.814 698 OFFCURVE",
"476 648.463 OFFCURVE",
"476 451 CURVE SMOOTH",
"476 234.688 OFFCURVE",
"365.377 195 OFFCURVE",
"258 195 CURVE SMOOTH",
"254.333 195 OFFCURVE",
"149.333 195 OFFCURVE",
"151 195 CURVE",
"151 0 LINE",
"41 0 LINE",
"41 698 LINE",
"258 698 LINE SMOOTH"
);
},
{
closed = 1;
nodes = (
"148.25 300 OFFCURVE",
"215.25 300 OFFCURVE",
"217 300 CURVE",
"320.617 300 OFFCURVE",
"365 317.033 OFFCURVE",
"365 451 CURVE SMOOTH",
"365 577.433 OFFCURVE",
"319.717 588 OFFCURVE",
"217 588 CURVE SMOOTH",
"151 588 LINE",
"151 300 LINE"
);
}
);
width = 507;
},
{
layerId = "BAA7A442-529C-4232-9150-0627B90683AA";
paths = (
{
closed = 1;
nodes = (
"551.177 698 OFFCURVE",
"610.64 642.842 OFFCURVE",
"574.327 472 CURVE SMOOTH",
"539.146 306.49 OFFCURVE",
"460.33 244 OFFCURVE",
"327.864 244 CURVE SMOOTH",
"280.642 244 OFFCURVE",
"212.086 244 OFFCURVE",
"148.864 244 CURVE",
"97 0 LINE",
"41 0 LINE",
"189.364 698 LINE",
"424.364 698 LINE SMOOTH"
);
},
{
closed = 1;
nodes = (
"233.888 299 OFFCURVE",
"300.471 299 OFFCURVE",
"344.554 299 CURVE SMOOTH",
"420.298 299 OFFCURVE",
"485.88 319.352 OFFCURVE",
"518.327 472 CURVE SMOOTH",
"548.409 613.524 OFFCURVE",
"495.751 645 OFFCURVE",
"418.099 645 CURVE SMOOTH",
"234.099 645 LINE",
"160.554 299 LINE"
);
}
);
width = 504;
},
{
layerId = "EC4DDAD4-4840-4BAF-BE24-E50FF90D752F";
paths = (
{
closed = 1;
nodes = (
"511.111 698 OFFCURVE",
"613.859 648.576 OFFCURVE",
"571.863 451 CURVE SMOOTH",
"525.911 234.813 OFFCURVE",
"406.922 195 OFFCURVE",
"299.449 195 CURVE SMOOTH",
"295.782 195 OFFCURVE",
"190.782 195 OFFCURVE",
"192.449 195 CURVE",
"151 0 LINE",
"41 0 LINE",
"189.364 698 LINE",
"406.364 698 LINE SMOOTH"
);
},
{
closed = 1;
nodes = (
"212.017 300 OFFCURVE",
"279.017 300 OFFCURVE",
"280.767 300 CURVE",
"384.575 300 OFFCURVE",
"432.372 316.96 OFFCURVE",
"460.863 451 CURVE SMOOTH",
"487.746 577.474 OFFCURVE",
"444.527 588 OFFCURVE",
"341.983 588 CURVE SMOOTH",
"275.983 588 LINE",
"214.767 300 LINE"
);
}
);
width = 507;
},
{
layerId = "350CE105-9128-4F96-9C2D-77D2DB4D6663";
paths = (
{
closed = 1;
nodes = (
"554.799 698 OFFCURVE",
"606.003 621.026 OFFCURVE",
"578.578 492 CURVE SMOOTH",
"549.127 353.443 OFFCURVE",
"476.909 280 OFFCURVE",
"342.516 280 CURVE SMOOTH",
"283.633 280 OFFCURVE",
"198.633 280 OFFCURVE",
"119.516 280 CURVE",
"60 0 LINE",
"41 0 LINE",
"189.364 698 LINE",
"428.364 698 LINE SMOOTH"
);
},
{
closed = 1;
nodes = (
"211.054 299 OFFCURVE",
"291.804 299 OFFCURVE",
"345.554 299 CURVE SMOOTH",
"467.124 299 OFFCURVE",
"532.986 366.895 OFFCURVE",
"559.578 492 CURVE SMOOTH",
"584.584 609.647 OFFCURVE",
"540.775 678 OFFCURVE",
"425.113 678 CURVE SMOOTH",
"204.113 678 LINE",
"123.554 299 LINE"
);
}
);
width = 502;
}
);
leftKerningGroup = P;
rightKerningGroup = P;
unicode = 0050;
},
{
glyphname = Thorn;
lastChange = "2019-02-08 07:35:54 +0000";
layers = (
{
layerId = master01;
paths = (
{
closed = 1;
nodes = (
"400 191.667 OFFCURVE",
"357.333 140.667 OFFCURVE",
"288 118 CURVE SMOOTH",
"234.667 100.667 OFFCURVE",
"159.667 102 OFFCURVE",
"97 118 CURVE",
"97 0 LINE",
"41 0 LINE",
"41 698 LINE",
"97 698 LINE",
"97 599 LINE",
"150.333 621.667 OFFCURVE",
"212.333 630.667 OFFCURVE",
"263 620 CURVE SMOOTH",
"355 600 OFFCURVE",
"400 523 OFFCURVE",
"400 435 CURVE SMOOTH",
"400 289 LINE SMOOTH"
);
},
{
closed = 1;
nodes = (
"214 581 OFFCURVE",
"141.45 568.259 OFFCURVE",
"97 547 CURVE",
"97 169 LINE",
"118.496 166.313 OFFCURVE",
"218.084 144.307 OFFCURVE",
"276 168 CURVE SMOOTH",
"328 188 OFFCURVE",
"346 234.333 OFFCURVE",
"346 301 CURVE SMOOTH",
"346 420 LINE SMOOTH",
"346 484 OFFCURVE",
"322 551 OFFCURVE",
"253 570 CURVE SMOOTH"
);
}
);
width = 430;
},
{
layerId = "9D15C82E-7F80-48F0-B3D1-43822CDE4CEB";
paths = (
{
closed = 1;
nodes = (
"368 191.667 OFFCURVE",
"323.667 140.667 OFFCURVE",
"257 118 CURVE",
"201 100.667 OFFCURVE",
"124 101.667 OFFCURVE",
"60 119 CURVE",
"60 0 LINE",
"41 0 LINE",
"41 698 LINE",
"60 698 LINE",
"60 597 LINE",
"114.667 621 OFFCURVE",
"177.667 630.667 OFFCURVE",
"231 620 CURVE SMOOTH",
"321 601 OFFCURVE",
"368 522 OFFCURVE",
"368 435 CURVE SMOOTH",
"368 289 LINE SMOOTH"
);
},
{
closed = 1;
nodes = (
"175.26 611.748 OFFCURVE",
"115.425 603.692 OFFCURVE",
"60 574 CURVE",
"60 137 LINE",
"85.553 131.322 OFFCURVE",
"177.69 112.472 OFFCURVE",
"254 137 CURVE SMOOTH",
"326 161 OFFCURVE",
"349 215 OFFCURVE",
"349 291 CURVE SMOOTH",
"349 429 LINE SMOOTH",
"349 513 OFFCURVE",
"311 582 OFFCURVE",
"224 602 CURVE SMOOTH"
);
}
);
width = 397;
},
{
layerId = "0D2E68F6-AD65-4FDC-99B3-7B414CE95F5B";
paths = (
{
closed = 1;
nodes = (
"434 192.667 OFFCURVE",
"391.667 140.667 OFFCURVE",
"321 118 CURVE SMOOTH",
"269 100.667 OFFCURVE",
"209.667 102.333 OFFCURVE",
"151 113 CURVE",
"151 0 LINE",
"41 0 LINE",
"41 698 LINE",
"151 698 LINE",
"151 608 LINE",
"183 618.667 OFFCURVE",
"215.667 626 OFFCURVE",
"249 626 CURVE SMOOTH",
"367 626 OFFCURVE",
"434 545 OFFCURVE",
"434 435 CURVE SMOOTH",
"434 290 LINE SMOOTH"
);
},
{
closed = 1;
nodes = (
"210.482 532 OFFCURVE",
"176.043 523.632 OFFCURVE",
"151 514 CURVE",
"151 206 LINE",
"188.699 197.922 OFFCURVE",
"236.791 196.859 OFFCURVE",
"273 208 CURVE SMOOTH",
"313 220 OFFCURVE",
"326 249 OFFCURVE",
"326 290 CURVE SMOOTH",
"325 448 LINE SMOOTH",
"325 500 OFFCURVE",
"290 532 OFFCURVE",
"237 532 CURVE SMOOTH"
);
}
);
width = 465;
},
{
layerId = "BAA7A442-529C-4232-9150-0627B90683AA";
paths = (
{
closed = 1;
nodes = (
"440 192 OFFCURVE",
"387.233 140.667 OFFCURVE",
"313.082 118 CURVE SMOOTH",
"256.064 100.667 OFFCURVE",
"181.347 102 OFFCURVE",
"122.082 118 CURVE",
"97 0 LINE",
"41 0 LINE",
"189.364 698 LINE",
"245.364 698 LINE",
"224.321 599 LINE",
"282.473 621.667 OFFCURVE",
"346.386 630.667 OFFCURVE",
"394.785 620 CURVE SMOOTH",
"487 599 OFFCURVE",
"509 517 OFFCURVE",
"492.462 435 CURVE SMOOTH",
"461.429 289 LINE SMOOTH"
);
},
{
closed = 1;
nodes = (
"337 581 OFFCURVE",
"262.23 568.256 OFFCURVE",
"213.268 547 CURVE",
"132.922 169 LINE",
"153.614 166.343 OFFCURVE",
"248.719 144.293 OFFCURVE",
"311.709 168 CURVE SMOOTH",
"367.961 188 OFFCURVE",
"395.809 234.333 OFFCURVE",
"409.98 301 CURVE SMOOTH",
"435.274 420 LINE SMOOTH",
"448 478 OFFCURVE",
"442 550 OFFCURVE",
"374.157 570 CURVE SMOOTH"
);
}
);
width = 430;
},
{
layerId = "EC4DDAD4-4840-4BAF-BE24-E50FF90D752F";
paths = (
{
closed = 1;
nodes = (
"476 193 OFFCURVE",
"421.566 140.667 OFFCURVE",
"346.082 118 CURVE SMOOTH",
"290.397 100.667 OFFCURVE",
"231.418 102.333 OFFCURVE",
"175.019 113 CURVE",
"151 0 LINE",
"41 0 LINE",
"189.364 698 LINE",
"299.364 698 LINE",
"280.234 608 LINE",
"314.502 618.667 OFFCURVE",
"348.727 626 OFFCURVE",
"382.06 626 CURVE SMOOTH",
"503 626 OFFCURVE",
"548 542 OFFCURVE",
"526.462 435 CURVE SMOOTH",
"495.641 290 LINE SMOOTH"
);
},
{
closed = 1;
nodes = (
"323.573 532 OFFCURVE",
"287.356 523.636 OFFCURVE",
"260.254 514 CURVE",
"194.787 206 LINE",
"230.585 197.963 OFFCURVE",
"278.495 196.819 OFFCURVE",
"317.212 208 CURVE SMOOTH",
"359.762 220 OFFCURVE",
"378.856 248.667 OFFCURVE",
"387.641 290 CURVE SMOOTH",
"420.225 448 LINE SMOOTH",
"431 499 OFFCURVE",
"404 532 OFFCURVE",
"350.08 532 CURVE SMOOTH"
);
}
);
width = 465;
},
{
layerId = "350CE105-9128-4F96-9C2D-77D2DB4D6663";
paths = (
{
closed = 1;
nodes = (
"408 192 OFFCURVE",
"353.566 140.667 OFFCURVE",
"282.082 118 CURVE",
"222.397 100.667 OFFCURVE",
"145.61 101.667 OFFCURVE",
"85.294 119 CURVE",
"60 0 LINE",
"41 0 LINE",
"189.364 698 LINE",
"208.364 698 LINE",
"186.896 597 LINE",
"246.664 621 OFFCURVE",
"311.719 630.667 OFFCURVE",
"362.785 620 CURVE SMOOTH",
"458 599 OFFCURVE",
"477 517 OFFCURVE",
"460.462 435 CURVE SMOOTH",
"429.429 289 LINE SMOOTH"
);
},
{
closed = 1;
nodes = (
"305.21 611.765 OFFCURVE",
"243.743 603.692 OFFCURVE",
"182.007 574 CURVE",
"89.12 137 LINE",
"113.361 131.346 OFFCURVE",
"201.445 112.426 OFFCURVE",
"283.12 137 CURVE SMOOTH",
"360.222 161 OFFCURVE",
"394.7 215 OFFCURVE",
"410.854 291 CURVE SMOOTH",
"440.187 429 LINE SMOOTH",
"457 507 OFFCURVE",
"440 581 OFFCURVE",
"351.959 602 CURVE SMOOTH"
);
}
);
width = 397;
}
);
leftKerningGroup = P;
rightKerningGroup = P;
unicode = 00DE;
},
{
glyphname = Q;
lastChange = "2019-02-08 07:35:54 +0000";
layers = (
{
components = (
{
name = O;
}
);
layerId = master01;
paths = (
{
closed = 1;
nodes = (
"270 -32.55 OFFCURVE",
"314.817 -61 OFFCURVE",
"395 -61 CURVE",
"389 -107 LINE",
"272.783 -107 OFFCURVE",
"214 -61.533 OFFCURVE",
"214 51 CURVE SMOOTH",
"214 173 LINE",
"270 173 LINE",
"270 50 LINE SMOOTH"
);
}
);
width = 490;
},
{
components = (
{
name = O;
}
);
layerId = "9D15C82E-7F80-48F0-B3D1-43822CDE4CEB";
paths = (
{
closed = 1;
nodes = (
"249 -39.483 OFFCURVE",
"294.983 -76 OFFCURVE",
"391 -76 CURVE",
"389 -96 LINE",
"280.983 -96 OFFCURVE",
"229 -51.467 OFFCURVE",
"229 43 CURVE SMOOTH",
"229 173 LINE",
"249 173 LINE",
"249 43 LINE SMOOTH"
);
}
);
width = 486;
},
{
components = (
{
name = O;
}
);
layerId = "0D2E68F6-AD65-4FDC-99B3-7B414CE95F5B";
paths = (
{
closed = 1;
nodes = (
"295 0.783 OFFCURVE",
"309.283 -22 OFFCURVE",
"404 -22 CURVE",
"390 -117 LINE",
"230.733 -117 OFFCURVE",
"197 -49.667 OFFCURVE",
"197 31 CURVE SMOOTH",
"197 173 LINE",
"295 173 LINE",
"295 45 LINE SMOOTH"
);
}
);
width = 493;
},
{
components = (
{
name = O;
}
);
layerId = "BAA7A442-529C-4232-9150-0627B90683AA";
paths = (
{
closed = 1;
nodes = (
"263.075 -32.578 OFFCURVE",
"301.875 -61 OFFCURVE",
"382.034 -61 CURVE",
"366.256 -107 LINE",
"250.055 -107 OFFCURVE",
"200.918 -61.548 OFFCURVE",
"224.84 51 CURVE SMOOTH",
"250.772 173 LINE",
"306.772 173 LINE",
"280.628 50 LINE SMOOTH"
);
}
);
width = 490;
},
{
components = (
{
name = O;
}
);
layerId = "EC4DDAD4-4840-4BAF-BE24-E50FF90D752F";
paths = (
{
closed = 1;
nodes = (
"295.184 0.867 OFFCURVE",
"304.58 -22 OFFCURVE",
"399.324 -22 CURVE",
"365.131 -117 LINE",
"205.716 -117 OFFCURVE",
"186.469 -49.545 OFFCURVE",
"203.589 31 CURVE SMOOTH",
"233.772 173 LINE",
"331.772 173 LINE",
"304.565 45 LINE SMOOTH"
);
}
);
width = 493;
},
{
components = (
{
name = O;
}
);
layerId = "350CE105-9128-4F96-9C2D-77D2DB4D6663";
paths = (
{
closed = 1;
nodes = (
"241.609 -39.476 OFFCURVE",
"274 -76 OFFCURVE",
"374.846 -76 CURVE",
"368.595 -96 LINE",
"260.564 -96 OFFCURVE",
"218.062 -51.458 OFFCURVE",
"238.14 43 CURVE SMOOTH",
"265.772 173 LINE",
"286.772 173 LINE",
"259.14 43 LINE SMOOTH"
);
}
);
width = 486;
}
);
leftKerningGroup = O;
rightKerningGroup = O;
unicode = 0051;
},
{
glyphname = R;
lastChange = "2019-02-08 07:35:54 +0000";
layers = (
{
layerId = master01;
paths = (
{
closed = 1;
nodes = (
"402.874 698 OFFCURVE",
"474 642.823 OFFCURVE",
"474 472 CURVE SMOOTH",
"474 358.667 OFFCURVE",
"444.667 294.667 OFFCURVE",
"382 264 CURVE",
"478 0 LINE",
"422 0 LINE",
"331 249 LINE",
"315 245 OFFCURVE",
"296 244 OFFCURVE",
"276 244 CURVE SMOOTH",
"97 244 LINE",
"97 0 LINE",
"41 0 LINE",
"41 698 LINE",
"276 698 LINE SMOOTH"
);
},
{
closed = 1;
nodes = (
"356.583 299 OFFCURVE",
"418 319.317 OFFCURVE",
"418 472 CURVE SMOOTH",
"418 613.433 OFFCURVE",
"358.833 645 OFFCURVE",
"281 645 CURVE SMOOTH",
"97 645 LINE",
"97 299 LINE",
"281 299 LINE SMOOTH"
);
}
);
width = 508;
},
{
layerId = "9D15C82E-7F80-48F0-B3D1-43822CDE4CEB";
paths = (
{
closed = 1;
nodes = (
"416.407 698 OFFCURVE",
"474 621.022 OFFCURVE",
"474 492 CURVE SMOOTH",
"474 374.667 OFFCURVE",
"432.667 303.667 OFFCURVE",
"338 285 CURVE",
"474 0 LINE",
"454 0 LINE",
"319 283 LINE",
"307 281.667 OFFCURVE",
"295 280 OFFCURVE",
"283 280 CURVE SMOOTH",
"60 280 LINE",
"60 0 LINE",
"41 0 LINE",
"41 698 LINE",
"290 698 LINE SMOOTH"
);
},
{
closed = 1;
nodes = (
"403.633 299 OFFCURVE",
"455 366.933 OFFCURVE",
"455 492 CURVE SMOOTH",
"455 609.7 OFFCURVE",
"406.633 678 OFFCURVE",
"291 678 CURVE SMOOTH",
"60 678 LINE",
"60 299 LINE",
"282 299 LINE SMOOTH"
);
}
);
width = 507;
},
{
layerId = "0D2E68F6-AD65-4FDC-99B3-7B414CE95F5B";
paths = (
{
closed = 1;
nodes = (
"362.814 698 OFFCURVE",
"476 648.463 OFFCURVE",
"476 451 CURVE SMOOTH",
"476 333.667 OFFCURVE",
"443 266.667 OFFCURVE",
"395 232 CURVE",
"480 0 LINE",
"363 0 LINE",
"294 196 LINE",
"282 194.667 OFFCURVE",
"270 195 OFFCURVE",
"258 195 CURVE SMOOTH",
"151 195 LINE",
"151 0 LINE",
"41 0 LINE",
"41 698 LINE",
"258 698 LINE SMOOTH"
);
},
{
closed = 1;
nodes = (
"320.617 300 OFFCURVE",
"365 317.033 OFFCURVE",
"365 451 CURVE SMOOTH",
"365 577.433 OFFCURVE",
"319.717 588 OFFCURVE",
"217 588 CURVE SMOOTH",
"151 588 LINE",
"151 300 LINE",
"217 300 LINE SMOOTH"
);
}
);
width = 511;
},
{
layerId = "BAA7A442-529C-4232-9150-0627B90683AA";
paths = (
{
closed = 1;
nodes = (
"551.269 698 OFFCURVE",
"610.664 642.823 OFFCURVE",
"574.347 472 CURVE SMOOTH",
"550.253 358.667 OFFCURVE",
"507.313 294.667 OFFCURVE",
"438.126 264 CURVE",
"478 0 LINE",
"422 0 LINE",
"383.937 249 LINE",
"367.087 245 OFFCURVE",
"347.874 244 OFFCURVE",
"327.874 244 CURVE SMOOTH",
"148.874 244 LINE",
"97 0 LINE",
"41 0 LINE",
"189.395 698 LINE",
"424.395 698 LINE SMOOTH"
);
},
{
closed = 1;
nodes = (
"420.151 299 OFFCURVE",
"485.887 319.317 OFFCURVE",
"518.347 472 CURVE SMOOTH",
"548.416 613.433 OFFCURVE",
"495.96 645 OFFCURVE",
"418.127 645 CURVE SMOOTH",
"234.127 645 LINE",
"160.567 299 LINE",
"344.567 299 LINE SMOOTH"
);
}
);
width = 508;
},
{
layerId = "EC4DDAD4-4840-4BAF-BE24-E50FF90D752F";
paths = (
{
closed = 1;
nodes = (
"511.209 698 OFFCURVE",
"613.863 648.463 OFFCURVE",
"571.883 451 CURVE SMOOTH",
"546.938 333.667 OFFCURVE",
"499.693 266.667 OFFCURVE",
"444.323 232 CURVE",
"480 0 LINE",
"363 0 LINE",
"335.67 196 LINE",
"323.386 194.667 OFFCURVE",
"311.457 195 OFFCURVE",
"299.457 195 CURVE SMOOTH",
"192.457 195 LINE",
"151 0 LINE",
"41 0 LINE",
"189.395 698 LINE",
"406.395 698 LINE SMOOTH"
);
},
{
closed = 1;
nodes = (
"384.397 300 OFFCURVE",
"432.401 317.033 OFFCURVE",
"460.883 451 CURVE SMOOTH",
"487.762 577.433 OFFCURVE",
"444.725 588 OFFCURVE",
"342.009 588 CURVE SMOOTH",
"276.009 588 LINE",
"214.78 300 LINE",
"280.78 300 LINE SMOOTH"
);
}
);
width = 511;
},
{
layerId = "350CE105-9128-4F96-9C2D-77D2DB4D6663";
paths = (
{
closed = 1;
nodes = (
"564.802 698 OFFCURVE",
"606.029 621.022 OFFCURVE",
"578.599 492 CURVE SMOOTH",
"553.654 374.667 OFFCURVE",
"497.226 303.667 OFFCURVE",
"398.591 285 CURVE",
"474 0 LINE",
"454 0 LINE",
"379.166 283 LINE",
"366.882 281.667 OFFCURVE",
"354.528 280 OFFCURVE",
"342.528 280 CURVE SMOOTH",
"119.528 280 LINE",
"60 0 LINE",
"41 0 LINE",
"189.395 698 LINE",
"438.395 698 LINE SMOOTH"
);
},
{
closed = 1;
nodes = (
"467.201 299 OFFCURVE",
"533.01 366.933 OFFCURVE",
"559.599 492 CURVE SMOOTH",
"584.622 609.7 OFFCURVE",
"550.776 678 OFFCURVE",
"435.143 678 CURVE SMOOTH",
"204.143 678 LINE",
"123.567 299 LINE",
"345.567 299 LINE SMOOTH"
);
}
);
width = 507;
}
);
leftKerningGroup = R;
rightKerningGroup = R;
unicode = 0052;
},
{
glyphname = S;
lastChange = "2019-02-08 07:35:54 +0000";
layers = (
{
layerId = master01;
paths = (
{
closed = 1;
nodes = (
"378 641 OFFCURVE",
"331 653 OFFCURVE",
"284 653 CURVE SMOOTH",
"212 653 OFFCURVE",
"118 630 OFFCURVE",
"118 541 CURVE SMOOTH",
"118 369 OFFCURVE",
"498 425 OFFCURVE",
"498 179 CURVE SMOOTH",
"498 46 OFFCURVE",
"380 -12 OFFCURVE",
"262 -12 CURVE SMOOTH",
"168 -12 OFFCURVE",
"87 20 OFFCURVE",
"25 92 CURVE",
"60 127 LINE",
"102 71 OFFCURVE",
"190 42 OFFCURVE",
"258 42 CURVE SMOOTH",
"352 42 OFFCURVE",
"438 81 OFFCURVE",
"438 187 CURVE SMOOTH",
"438 368 OFFCURVE",
"60 327 OFFCURVE",
"60 536 CURVE SMOOTH",
"60 662 OFFCURVE",
"175 707 OFFCURVE",
"283 707 CURVE SMOOTH",
"336 707 OFFCURVE",
"389 695 OFFCURVE",
"436 670 CURVE",
"419 618 LINE"
);
}
);
width = 528;
},
{
layerId = "9D15C82E-7F80-48F0-B3D1-43822CDE4CEB";
paths = (
{
closed = 1;
nodes = (
"384 678 OFFCURVE",
"324 691 OFFCURVE",
"273 691 CURVE SMOOTH",
"186 691 OFFCURVE",
"77 649 OFFCURVE",
"77 547 CURVE SMOOTH",
"77 345 OFFCURVE",
"495 415 OFFCURVE",
"495 167 CURVE SMOOTH",
"495 39 OFFCURVE",
"372 -12 OFFCURVE",
"261 -12 CURVE SMOOTH",
"170 -12 OFFCURVE",
"74 22 OFFCURVE",
"21 99 CURVE",
"34 109 LINE",
"88 39 OFFCURVE",
"174 7 OFFCURVE",
"260 7 CURVE SMOOTH",
"362 7 OFFCURVE",
"476 50 OFFCURVE",
"476 169 CURVE SMOOTH",
"476 398 OFFCURVE",
"58 329 OFFCURVE",
"58 547 CURVE SMOOTH",
"58 663 OFFCURVE",
"177 708 OFFCURVE",
"276 708 CURVE SMOOTH",
"331 708 OFFCURVE",
"386 695 OFFCURVE",
"434 670 CURVE",
"427 651 LINE"
);
}
);
width = 523;
},
{
layerId = "0D2E68F6-AD65-4FDC-99B3-7B414CE95F5B";
paths = (
{
closed = 1;
nodes = (
"377 593 OFFCURVE",
"333 606 OFFCURVE",
"288 606 CURVE SMOOTH",
"245 606 OFFCURVE",
"175 590 OFFCURVE",
"175 535 CURVE SMOOTH",
"175 423 OFFCURVE",
"515 428 OFFCURVE",
"515 198 CURVE SMOOTH",
"515 50 OFFCURVE",
"397 -12 OFFCURVE",
"264 -12 CURVE SMOOTH",
"178 -12 OFFCURVE",
"90 22 OFFCURVE",
"33 88 CURVE",
"94 162 LINE",
"138 116 OFFCURVE",
"203 92 OFFCURVE",
"266 92 CURVE SMOOTH",
"330 92 OFFCURVE",
"396 125 OFFCURVE",
"396 197 CURVE SMOOTH",
"396 341 OFFCURVE",
"62 326 OFFCURVE",
"62 534 CURVE SMOOTH",
"62 661 OFFCURVE",
"180 708 OFFCURVE",
"290 708 CURVE SMOOTH",
"345 708 OFFCURVE",
"401 697 OFFCURVE",
"450 671 CURVE",
"417 574 LINE"
);
}
);
width = 544;
},
{
layerId = "BAA7A442-529C-4232-9150-0627B90683AA";
paths = (
{
closed = 1;
nodes = (
"514.277 641 OFFCURVE",
"469.828 653 OFFCURVE",
"422.828 653 CURVE SMOOTH",
"355.828 653 OFFCURVE",
"252.576 633 OFFCURVE",
"234.292 547 CURVE SMOOTH",
"194.961 362 OFFCURVE",
"589.205 429 OFFCURVE",
"536.055 179 CURVE SMOOTH",
"507.78 46 OFFCURVE",
"377.449 -12 OFFCURVE",
"259.449 -12 CURVE SMOOTH",
"166.449 -12 OFFCURVE",
"90.465 21 OFFCURVE",
"44.559 92 CURVE",
"87 127 LINE",
"117.095 71 OFFCURVE",
"198.929 42 OFFCURVE",
"266.929 42 CURVE SMOOTH",
"360.929 42 OFFCURVE",
"455.221 81 OFFCURVE",
"477.756 187 CURVE SMOOTH",
"516.662 370 OFFCURVE",
"127.457 322 OFFCURVE",
"175.292 547 CURVE SMOOTH",
"201.442 670 OFFCURVE",
"331.308 707 OFFCURVE",
"433.308 707 CURVE SMOOTH",
"486.308 707 OFFCURVE",
"536.757 695 OFFCURVE",
"578.442 670 CURVE",
"550.387 618 LINE"
);
}
);
width = 528;
},
{
layerId = "EC4DDAD4-4840-4BAF-BE24-E50FF90D752F";
paths = (
{
closed = 1;
nodes = (
"503.072 593 OFFCURVE",
"461.836 606 OFFCURVE",
"416.836 606 CURVE SMOOTH",
"372.836 606 OFFCURVE",
"300.434 590 OFFCURVE",
"288.741 535 CURVE SMOOTH",
"263.442 416 OFFCURVE",
"607.268 434 OFFCURVE",
"557.095 198 CURVE SMOOTH",
"525.843 51 OFFCURVE",
"400.449 -12 OFFCURVE",
"266.449 -12 CURVE SMOOTH",
"179.449 -12 OFFCURVE",
"95.315 25 OFFCURVE",
"49.921 89 CURVE",
"121.803 159 LINE",
"159.024 113 OFFCURVE",
"220.559 92 OFFCURVE",
"285.559 92 CURVE SMOOTH",
"350.559 92 OFFCURVE",
"421.425 129 OFFCURVE",
"436.52 200 CURVE SMOOTH",
"467.56 346 OFFCURVE",
"129.394 317 OFFCURVE",
"177.442 543 CURVE SMOOTH",
"203.804 667 OFFCURVE",
"330.521 708 OFFCURVE",
"435.521 708 CURVE SMOOTH",
"491.521 708 OFFCURVE",
"548.395 698 OFFCURVE",
"592.655 671 CURVE",
"539.032 574 LINE"
);
}
);
width = 544;
},
{
layerId = "350CE105-9128-4F96-9C2D-77D2DB4D6663";
paths = (
{
closed = 1;
nodes = (
"529.143 678 OFFCURVE",
"472.907 691 OFFCURVE",
"423.907 691 CURVE SMOOTH",
"336.907 691 OFFCURVE",
"216.04 654 OFFCURVE",
"193.93 550 CURVE SMOOTH",
"150.985 348 OFFCURVE",
"581.528 407 OFFCURVE",
"531.78 173 CURVE SMOOTH",
"503.291 39 OFFCURVE",
"370.449 -12 OFFCURVE",
"254.449 -12 CURVE SMOOTH",
"165.449 -12 OFFCURVE",
"77.89 23 OFFCURVE",
"42.047 99 CURVE",
"57.173 109 LINE",
"95.504 40 OFFCURVE",
"173.488 7 OFFCURVE",
"258.488 7 CURVE SMOOTH",
"361.488 7 OFFCURVE",
"486.843 51 OFFCURVE",
"512.567 172 CURVE SMOOTH",
"559.552 393 OFFCURVE",
"127.158 330 OFFCURVE",
"174.143 551 CURVE SMOOTH",
"199.229 669 OFFCURVE",
"328.521 708 OFFCURVE",
"426.521 708 CURVE SMOOTH",
"481.521 708 OFFCURVE",
"533.757 695 OFFCURVE",
"576.442 670 CURVE",
"565.403 651 LINE"
);
}
);
width = 523;
}
);
leftKerningGroup = S;
rightKerningGroup = S;
unicode = 0053;
userData = {
com.typemytype.robofont.guides = (
{
angle = 90;
isGlobal = 0;
magnetic = 5;
x = 56;
y = 0;
},
{
angle = 0;
isGlobal = 0;
magnetic = 5;
x = 0;
y = 586;
}
);
};
},
{
glyphname = T;
lastChange = "2019-02-08 07:35:54 +0000";
layers = (
{
layerId = master01;
paths = (
{
closed = 1;
nodes = (
"232 0 LINE",
"177 0 LINE",
"177 648 LINE",
"7 648 LINE",
"7 698 LINE",
"408 698 LINE",
"408 648 LINE",
"232 648 LINE"
);
}
);
width = 416;
},
{
layerId = "9D15C82E-7F80-48F0-B3D1-43822CDE4CEB";
paths = (
{
closed = 1;
nodes = (
"210 0 LINE",
"192 0 LINE",
"192 678 LINE",
"2 678 LINE",
"2 698 LINE",
"404 698 LINE",
"404 678 LINE",
"210 678 LINE"
);
}
);
width = 408;
},
{
layerId = "0D2E68F6-AD65-4FDC-99B3-7B414CE95F5B";
paths = (
{
closed = 1;
nodes = (
"268 0 LINE",
"158 0 LINE",
"158 587 LINE",
"13 587 LINE",
"13 698 LINE",
"416 698 LINE",
"416 587 LINE",
"268 587 LINE"
);
}
);
width = 431;
},
{
layerId = "BAA7A442-529C-4232-9150-0627B90683AA";
paths = (
{
closed = 1;
nodes = (
"232 0 LINE",
"177 0 LINE",
"314.765 648 LINE",
"144.765 648 LINE",
"155.395 698 LINE",
"556.395 698 LINE",
"545.765 648 LINE",
"369.765 648 LINE"
);
}
);
width = 416;
},
{
layerId = "EC4DDAD4-4840-4BAF-BE24-E50FF90D752F";
paths = (
{
closed = 1;
nodes = (
"268 0 LINE",
"158 0 LINE",
"282.796 587 LINE",
"137.796 587 LINE",
"161.395 698 LINE",
"564.395 698 LINE",
"540.796 587 LINE",
"392.796 587 LINE"
);
}
);
width = 431;
},
{
layerId = "350CE105-9128-4F96-9C2D-77D2DB4D6663";
paths = (
{
closed = 1;
nodes = (
"210 0 LINE",
"192 0 LINE",
"335.143 678 LINE",
"146.143 678 LINE",
"150.395 698 LINE",
"552.395 698 LINE",
"548.143 678 LINE",
"354.143 678 LINE"
);
}
);
width = 408;
}
);
leftKerningGroup = T;
rightKerningGroup = T;
unicode = 0054;
},
{
glyphname = Tbar;
lastChange = "2019-02-08 07:35:54 +0000";
layers = (
{
layerId = master01;
paths = (
{
closed = 1;
nodes = (
"428 378 LINE",
"428 322 LINE",
"29 322 LINE",
"29 378 LINE"
);
},
{
closed = 1;
nodes = (
"254 0 LINE",
"199 0 LINE",
"199 648 LINE",
"29 648 LINE",
"29 698 LINE",
"430 698 LINE",
"430 648 LINE",
"254 648 LINE"
);
}
);
width = 463;
},
{
layerId = "9D15C82E-7F80-48F0-B3D1-43822CDE4CEB";
paths = (
{
closed = 1;
nodes = (
"425 378 LINE",
"425 359 LINE",
"25 359 LINE",
"25 378 LINE"
);
},
{
closed = 1;
nodes = (
"233 0 LINE",
"215 0 LINE",
"214 678 LINE",
"25 678 LINE",
"25 698 LINE",
"427 698 LINE",
"427 678 LINE",
"233 678 LINE"
);
}
);
width = 457;
},
{
layerId = "0D2E68F6-AD65-4FDC-99B3-7B414CE95F5B";
paths = (
{
closed = 1;
nodes = (
"433 413 LINE",
"433 323 LINE",
"32 323 LINE",
"32 413 LINE"
);
},
{
closed = 1;
nodes = (
"285 0 LINE",
"175 0 LINE",
"175 587 LINE",
"30 587 LINE",
"30 698 LINE",
"433 698 LINE",
"433 587 LINE",
"285 587 LINE"
);
}
);
width = 470;
},
{
layerId = "BAA7A442-529C-4232-9150-0627B90683AA";
paths = (
{
closed = 1;
nodes = (
"508.346 378 LINE",
"496.443 322 LINE",
"97.443 322 LINE",
"109.346 378 LINE"
);
},
{
closed = 1;
nodes = (
"254 0 LINE",
"199 0 LINE",
"336.737 648 LINE",
"166.737 648 LINE",
"177.364 698 LINE",
"578.364 698 LINE",
"567.737 648 LINE",
"391.737 648 LINE"
);
}
);
width = 463;
},
{
layerId = "EC4DDAD4-4840-4BAF-BE24-E50FF90D752F";
paths = (
{
closed = 1;
nodes = (
"520.786 413 LINE",
"501.656 323 LINE",
"100.656 323 LINE",
"119.786 413 LINE"
);
},
{
closed = 1;
nodes = (
"285 0 LINE",
"175 0 LINE",
"299.771 587 LINE",
"154.771 587 LINE",
"178.364 698 LINE",
"581.364 698 LINE",
"557.771 587 LINE",
"409.771 587 LINE"
);
}
);
width = 470;
},
{
layerId = "350CE105-9128-4F96-9C2D-77D2DB4D6663";
paths = (
{
closed = 1;
nodes = (
"505.346 378 LINE",
"501.308 359 LINE",
"101.308 359 LINE",
"105.346 378 LINE"
);
},
{
closed = 1;
nodes = (
"233 0 LINE",
"215 0 LINE",
"358.113 678 LINE",
"169.113 678 LINE",
"173.364 698 LINE",
"575.364 698 LINE",
"571.113 678 LINE",
"377.113 678 LINE"
);
}
);
width = 457;
}
);
leftKerningGroup = T;
rightKerningGroup = T;
unicode = 0166;
},
{
glyphname = U;
lastChange = "2019-02-08 07:35:54 +0000";
layers = (
{
layerId = master01;
paths = (
{
closed = 1;
nodes = (
"456 117.667 OFFCURVE",
"435.333 68 OFFCURVE",
"394 36 CURVE SMOOTH",
"354 4.667 OFFCURVE",
"305.333 -11 OFFCURVE",
"248 -11 CURVE SMOOTH",
"190 -11 OFFCURVE",
"140.333 4.667 OFFCURVE",
"99 36 CURVE",
"58.333 68.667 OFFCURVE",
"38 118.333 OFFCURVE",
"38 185 CURVE SMOOTH",
"38 698 LINE",
"93 698 LINE",
"93 186 LINE SMOOTH",
"93 136 OFFCURVE",
"109 98.667 OFFCURVE",
"141 74 CURVE SMOOTH",
"167.667 52.667 OFFCURVE",
"203 42 OFFCURVE",
"247 42 CURVE SMOOTH",
"295 42 OFFCURVE",
"335.333 54.333 OFFCURVE",
"362 81 CURVE SMOOTH",
"386 106.333 OFFCURVE",
"401 140.667 OFFCURVE",
"401 186 CURVE SMOOTH",
"401 698 LINE",
"456 698 LINE",
"456 185 LINE SMOOTH"
);
}
);
width = 496;
},
{
layerId = "9D15C82E-7F80-48F0-B3D1-43822CDE4CEB";
paths = (
{
closed = 1;
nodes = (
"456 117.667 OFFCURVE",
"435.333 68 OFFCURVE",
"394 36 CURVE SMOOTH",
"354 4.667 OFFCURVE",
"305.333 -11 OFFCURVE",
"248 -11 CURVE SMOOTH",
"190 -11 OFFCURVE",
"140.333 4.667 OFFCURVE",
"99 36 CURVE SMOOTH",
"58.333 68 OFFCURVE",
"38 117.667 OFFCURVE",
"38 185 CURVE SMOOTH",
"38 698 LINE",
"56 698 LINE",
"56 184 LINE SMOOTH",
"56 125.333 OFFCURVE",
"74.667 81.333 OFFCURVE",
"112 52 CURVE SMOOTH",
"149.333 22.667 OFFCURVE",
"194.667 8 OFFCURVE",
"248 8 CURVE SMOOTH",
"300 8 OFFCURVE",
"346 22 OFFCURVE",
"382 50 CURVE SMOOTH",
"419.333 78 OFFCURVE",
"437 122.667 OFFCURVE",
"437 184 CURVE SMOOTH",
"437 698 LINE",
"456 698 LINE",
"456 185 LINE SMOOTH"
);
}
);
width = 496;
},
{
layerId = "0D2E68F6-AD65-4FDC-99B3-7B414CE95F5B";
paths = (
{
closed = 1;
nodes = (
"459 117.667 OFFCURVE",
"438.333 68 OFFCURVE",
"397 36 CURVE SMOOTH",
"356.333 4.667 OFFCURVE",
"307.333 -11 OFFCURVE",
"250 -11 CURVE SMOOTH",
"193.333 -11 OFFCURVE",
"143.667 4.667 OFFCURVE",
"101 36 CURVE",
"59.667 69.333 OFFCURVE",
"39 119 OFFCURVE",
"39 185 CURVE SMOOTH",
"39 698 LINE",
"149 698 LINE",
"149 204 LINE SMOOTH",
"149 167.333 OFFCURVE",
"159.667 140 OFFCURVE",
"181 122 CURVE SMOOTH",
"196.333 108 OFFCURVE",
"219 101 OFFCURVE",
"249 101 CURVE SMOOTH",
"278.333 101 OFFCURVE",
"301.667 109.667 OFFCURVE",
"319 127 CURVE SMOOTH",
"337.667 144.333 OFFCURVE",
"349 172.667 OFFCURVE",
"349 206 CURVE SMOOTH",
"349 698 LINE",
"459 698 LINE",
"459 185 LINE SMOOTH"
);
}
);
width = 499;
},
{
layerId = "BAA7A442-529C-4232-9150-0627B90683AA";
paths = (
{
closed = 1;
nodes = (
"481.011 117.667 OFFCURVE",
"449.787 68 OFFCURVE",
"401.652 36 CURVE SMOOTH",
"354.992 4.667 OFFCURVE",
"302.995 -11 OFFCURVE",
"245.662 -11 CURVE SMOOTH",
"187.662 -11 OFFCURVE",
"141.325 4.667 OFFCURVE",
"106.652 36 CURVE",
"72.929 68.667 OFFCURVE",
"63.153 118.333 OFFCURVE",
"77.323 185 CURVE SMOOTH",
"186.364 698 LINE",
"241.364 698 LINE",
"132.536 186 LINE SMOOTH",
"121.908 136 OFFCURVE",
"129.972 98.667 OFFCURVE",
"156.729 74 CURVE SMOOTH",
"178.861 52.667 OFFCURVE",
"211.927 42 OFFCURVE",
"255.927 42 CURVE SMOOTH",
"303.927 42 OFFCURVE",
"346.882 54.333 OFFCURVE",
"379.217 81 CURVE SMOOTH",
"408.602 106.333 OFFCURVE",
"430.9 140.667 OFFCURVE",
"440.536 186 CURVE SMOOTH",
"549.364 698 LINE",
"604.364 698 LINE",
"495.323 185 LINE SMOOTH"
);
}
);
width = 496;
},
{
layerId = "EC4DDAD4-4840-4BAF-BE24-E50FF90D752F";
paths = (
{
closed = 1;
nodes = (
"484.011 117.667 OFFCURVE",
"452.787 68 OFFCURVE",
"404.652 36 CURVE SMOOTH",
"357.325 4.667 OFFCURVE",
"304.995 -11 OFFCURVE",
"247.662 -11 CURVE SMOOTH",
"190.995 -11 OFFCURVE",
"144.659 4.667 OFFCURVE",
"108.652 36 CURVE",
"74.404 69.333 OFFCURVE",
"64.294 119 OFFCURVE",
"78.323 185 CURVE SMOOTH",
"187.364 698 LINE",
"297.364 698 LINE",
"192.362 204 LINE SMOOTH",
"184.568 167.333 OFFCURVE",
"189.425 140 OFFCURVE",
"206.932 122 CURVE SMOOTH",
"219.289 108 OFFCURVE",
"240.468 101 OFFCURVE",
"270.468 101 CURVE SMOOTH",
"299.802 101 OFFCURVE",
"324.977 109.667 OFFCURVE",
"345.995 127 CURVE SMOOTH",
"368.346 144.333 OFFCURVE",
"385.701 172.667 OFFCURVE",
"392.787 206 CURVE SMOOTH",
"497.364 698 LINE",
"607.364 698 LINE",
"498.323 185 LINE SMOOTH"
);
}
);
width = 499;
},
{
layerId = "350CE105-9128-4F96-9C2D-77D2DB4D6663";
paths = (
{
closed = 1;
nodes = (
"481.011 117.667 OFFCURVE",
"449.787 68 OFFCURVE",
"401.652 36 CURVE SMOOTH",
"354.992 4.667 OFFCURVE",
"302.995 -11 OFFCURVE",
"245.662 -11 CURVE SMOOTH",
"187.662 -11 OFFCURVE",
"141.325 4.667 OFFCURVE",
"106.652 36 CURVE SMOOTH",
"72.787 68 OFFCURVE",
"63.011 117.667 OFFCURVE",
"77.323 185 CURVE SMOOTH",
"186.364 698 LINE",
"204.364 698 LINE",
"95.11 184 LINE SMOOTH",
"82.64 125.333 OFFCURVE",
"91.955 81.333 OFFCURVE",
"123.053 52 CURVE SMOOTH",
"154.151 22.667 OFFCURVE",
"196.367 8 OFFCURVE",
"249.7 8 CURVE SMOOTH",
"301.7 8 OFFCURVE",
"350.676 22 OFFCURVE",
"392.628 50 CURVE SMOOTH",
"435.913 78 OFFCURVE",
"463.074 122.667 OFFCURVE",
"476.11 184 CURVE SMOOTH",
"585.364 698 LINE",
"604.364 698 LINE",
"495.323 185 LINE SMOOTH"
);
}
);
width = 496;
}
);
leftKerningGroup = U;
rightKerningGroup = U;
unicode = 0055;
},
{
glyphname = V;
lastChange = "2019-02-08 07:35:54 +0000";
layers = (
{
layerId = master01;
paths = (
{
closed = 1;
nodes = (
"75 698 LINE",
"253 69 LINE",
"432 698 LINE",
"491 698 LINE",
"292 0 LINE",
"215 0 LINE",
"15 698 LINE"
);
}
);
width = 509;
},
{
layerId = "9D15C82E-7F80-48F0-B3D1-43822CDE4CEB";
paths = (
{
closed = 1;
nodes = (
"32 698 LINE",
"252 26 LINE",
"471 698 LINE",
"490 698 LINE",
"264 0 LINE",
"242 0 LINE",
"13 698 LINE"
);
}
);
width = 506;
},
{
layerId = "0D2E68F6-AD65-4FDC-99B3-7B414CE95F5B";
paths = (
{
closed = 1;
nodes = (
"141 698 LINE",
"256 216 LINE",
"368 698 LINE",
"495 698 LINE",
"320 0 LINE",
"192 0 LINE",
"17 698 LINE"
);
}
);
width = 514;
},
{
layerId = "BAA7A442-529C-4232-9150-0627B90683AA";
paths = (
{
closed = 1;
nodes = (
"223.364 698 LINE",
"267.666 69 LINE",
"580.364 698 LINE",
"639.364 698 LINE",
"292 0 LINE",
"215 0 LINE",
"163.364 698 LINE"
);
}
);
width = 509;
},
{
layerId = "EC4DDAD4-4840-4BAF-BE24-E50FF90D752F";
paths = (
{
closed = 1;
nodes = (
"289.364 698 LINE",
"301.912 216 LINE",
"516.364 698 LINE",
"643.364 698 LINE",
"320 0 LINE",
"192 0 LINE",
"165.364 698 LINE"
);
}
);
width = 514;
},
{
layerId = "350CE105-9128-4F96-9C2D-77D2DB4D6663";
paths = (
{
closed = 1;
nodes = (
"180.364 698 LINE",
"257.526 26 LINE",
"619.364 698 LINE",
"638.364 698 LINE",
"264 0 LINE",
"242 0 LINE",
"161.364 698 LINE"
);
}
);
width = 506;
}
);
leftKerningGroup = V;
rightKerningGroup = V;
unicode = 0056;
},
{
glyphname = W;
lastChange = "2019-02-08 07:35:54 +0000";
layers = (
{
layerId = master01;
paths = (
{
closed = 1;
nodes = (
"511 69 LINE",
"652 698 LINE",
"711 698 LINE",
"548 0 LINE",
"464 0 LINE",
"366 597 LINE",
"267 0 LINE",
"182 0 LINE",
"17 698 LINE",
"78 698 LINE",
"219 69 LINE",
"326 698 LINE",
"404 698 LINE"
);
}
);
width = 731;
},
{
layerId = "9D15C82E-7F80-48F0-B3D1-43822CDE4CEB";
paths = (
{
closed = 1;
nodes = (
"519 35 LINE",
"687 698 LINE",
"709 698 LINE",
"529 0 LINE",
"508 0 LINE",
"363 651 LINE",
"218 0 LINE",
"197 0 LINE",
"15 698 LINE",
"36 698 LINE",
"207 36 LINE",
"352 698 LINE",
"373 698 LINE"
);
}
);
width = 727;
},
{
layerId = "0D2E68F6-AD65-4FDC-99B3-7B414CE95F5B";
paths = (
{
closed = 1;
nodes = (
"515 252 LINE",
"590 698 LINE",
"717 698 LINE",
"582 0 LINE",
"458 0 LINE",
"369 353 LINE",
"282 0 LINE",
"154 0 LINE",
"20 698 LINE",
"141 698 LINE",
"224 252 LINE",
"330 698 LINE",
"409 698 LINE"
);
}
);
width = 740;
},
{
layerId = "BAA7A442-529C-4232-9150-0627B90683AA";
paths = (
{
closed = 1;
nodes = (
"534 92 LINE",
"800 698 LINE",
"859 698 LINE",
"548 0 LINE",
"478 0 LINE",
"478 574 LINE",
"257 0 LINE",
"174 0 LINE",
"174 698 LINE",
"230 698 LINE",
"230 69 LINE",
"464 698 LINE",
"534 698 LINE"
);
}
);
width = 731;
},
{
layerId = "EC4DDAD4-4840-4BAF-BE24-E50FF90D752F";
paths = (
{
closed = 1;
nodes = (
"559 252 LINE",
"738 698 LINE",
"865 698 LINE",
"582 0 LINE",
"458 0 LINE",
"444 353 LINE",
"282 0 LINE",
"152 0 LINE",
"152 698 LINE",
"276 698 LINE",
"276 242 LINE",
"478 698 LINE",
"559 698 LINE"
);
}
);
width = 740;
},
{
layerId = "350CE105-9128-4F96-9C2D-77D2DB4D6663";
paths = (
{
closed = 1;
nodes = (
"523.902 35 LINE",
"835.364 698 LINE",
"857.364 698 LINE",
"529 0 LINE",
"504.687 0 LINE",
"505 655 LINE",
"218 0 LINE",
"197 0 LINE",
"163.364 698 LINE",
"184.364 698 LINE",
"215 42 LINE",
"500.364 698 LINE",
"523.902 698 LINE"
);
}
);
width = 727;
}
);
leftKerningGroup = V;
rightKerningGroup = V;
unicode = 0057;
userData = {
com.typemytype.robofont.guides = (
{
angle = 102;
isGlobal = 0;
magnetic = 5;
x = 128;
y = 0;
}
);
};
},
{
glyphname = Y_upper_alt;
lastChange = "2019-02-08 07:35:54 +0000";
layers = (
{
layerId = master01;
paths = (
{
closed = 1;
nodes = (
"269 0 LINE",
"213 0 LINE",
"213 339 LINE",
"6 698 LINE",
"69 698 LINE",
"240 405 LINE",
"413 698 LINE",
"477 698 LINE",
"269 341 LINE"
);
}
);
width = 485;
},
{
layerId = "9D15C82E-7F80-48F0-B3D1-43822CDE4CEB";
paths = (
{
closed = 1;
nodes = (
"248 0 LINE",
"230 0 LINE",
"230 341 LINE",
"5 698 LINE",
"28 698 LINE",
"239 361 LINE",
"452 698 LINE",
"475 698 LINE",
"248 341 LINE"
);
}
);
width = 482;
},
{
layerId = "0D2E68F6-AD65-4FDC-99B3-7B414CE95F5B";
paths = (
{
closed = 1;
nodes = (
"301 0 LINE",
"189 0 LINE",
"189 315 LINE",
"10 698 LINE",
"126 698 LINE",
"245 433 LINE",
"364 698 LINE",
"481 698 LINE",
"301 315 LINE"
);
}
);
width = 493;
},
{
layerId = "BAA7A442-529C-4232-9150-0627B90683AA";
paths = (
{
closed = 1;
nodes = (
"269 0 LINE",
"213 0 LINE",
"285.057 339 LINE",
"154.364 698 LINE",
"217.364 698 LINE",
"326.085 405 LINE",
"561.364 698 LINE",
"625.364 698 LINE",
"341.482 341 LINE"
);
}
);
width = 485;
},
{
layerId = "EC4DDAD4-4840-4BAF-BE24-E50FF90D752F";
paths = (
{
closed = 1;
nodes = (
"301 0 LINE",
"189 0 LINE",
"255.955 315 LINE",
"158.364 698 LINE",
"274.364 698 LINE",
"337.037 433 LINE",
"512.364 698 LINE",
"629.364 698 LINE",
"367.955 315 LINE"
);
}
);
width = 493;
},
{
layerId = "350CE105-9128-4F96-9C2D-77D2DB4D6663";
paths = (
{
closed = 1;
nodes = (
"248 0 LINE",
"230 0 LINE",
"302.482 341 LINE",
"153.364 698 LINE",
"176.364 698 LINE",
"315.733 361 LINE",
"600.364 698 LINE",
"623.364 698 LINE",
"320.482 341 LINE"
);
}
);
width = 482;
}
);
unicode = 9997;
},
{
glyphname = Z;
lastChange = "2019-02-08 07:35:54 +0000";
layers = (
{
layerId = master01;
paths = (
{
closed = 1;
nodes = (
"509 648 LINE",
"99 51 LINE",
"514 51 LINE",
"514 0 LINE",
"29 0 LINE",
"29 50 LINE",
"437 647 LINE",
"41 647 LINE",
"41 698 LINE",
"509 698 LINE"
);
}
);
width = 545;
},
{
layerId = "9D15C82E-7F80-48F0-B3D1-43822CDE4CEB";
paths = (
{
closed = 1;
nodes = (
"506 679 LINE",
"50 19 LINE",
"512 19 LINE",
"512 0 LINE",
"27 0 LINE",
"27 19 LINE",
"482 679 LINE",
"40 679 LINE",
"39 698 LINE",
"506 698 LINE"
);
}
);
width = 539;
},
{
layerId = "0D2E68F6-AD65-4FDC-99B3-7B414CE95F5B";
paths = (
{
closed = 1;
nodes = (
"514 588 LINE",
"170 105 LINE",
"520 105 LINE",
"520 0 LINE",
"32 0 LINE",
"32 101 LINE",
"375 588 LINE",
"46 588 LINE",
"46 698 LINE",
"514 698 LINE"
);
}
);
width = 556;
},
{
layerId = "BAA7A442-529C-4232-9150-0627B90683AA";
paths = (
{
closed = 1;
nodes = (
"646.737 648 LINE",
"109.84 51 LINE",
"524.84 51 LINE",
"514 0 LINE",
"29 0 LINE",
"39.628 50 LINE",
"574.524 647 LINE",
"178.524 647 LINE",
"189.364 698 LINE",
"657.365 698 LINE"
);
}
);
width = 545;
},
{
layerId = "EC4DDAD4-4840-4BAF-BE24-E50FF90D752F";
paths = (
{
closed = 1;
nodes = (
"638.983 588 LINE",
"192.318 105 LINE",
"542.318 105 LINE",
"520 0 LINE",
"32 0 LINE",
"53.468 101 LINE",
"499.983 588 LINE",
"170.983 588 LINE",
"194.364 698 LINE",
"662.365 698 LINE"
);
}
);
width = 556;
},
{
layerId = "350CE105-9128-4F96-9C2D-77D2DB4D6663";
paths = (
{
closed = 1;
nodes = (
"650.326 679 LINE",
"54.039 19 LINE",
"516.039 19 LINE",
"512 0 LINE",
"27 0 LINE",
"31.039 19 LINE",
"626.326 679 LINE",
"184.326 679 LINE",
"187.365 698 LINE",
"654.365 698 LINE"
);
}
);
width = 539;
}
);
leftKerningGroup = Z;
rightKerningGroup = Z;
unicode = 005A;
},
{
glyphname = a;
lastChange = "2019-02-08 07:45:53 +0000";
layers = (
{
layerId = master01;
paths = (
{
closed = 1;
nodes = (
"354 403.667 OFFCURVE",
"333.333 431.667 OFFCURVE",
"296 449 CURVE SMOOTH",
"270.667 461 OFFCURVE",
"237.333 464 OFFCURVE",
"200 464 CURVE",
"202 507 LINE",
"248.667 507 OFFCURVE",
"297.667 504 OFFCURVE",
"339 480 CURVE SMOOTH",
"407.609 440.586 OFFCURVE",
"410 358 OFFCURVE",
"410 287 CURVE SMOOTH",
"410 0 LINE",
"412 -0.118 OFFCURVE",
"300.667 -8.784 OFFCURVE",
"252 -10 CURVE SMOOTH",
"124.745 -13.977 OFFCURVE",
"26 21.015 OFFCURVE",
"26 168 CURVE SMOOTH",
"26 251 LINE SMOOTH",
"26 363.13 OFFCURVE",
"99.13 402 OFFCURVE",
"179 402 CURVE SMOOTH",
"244.333 402 OFFCURVE",
"307.333 375.667 OFFCURVE",
"354 349 CURVE"
);
},
{
closed = 1;
nodes = (
"300.811 329.58 OFFCURVE",
"237.101 354 OFFCURVE",
"174 354 CURVE SMOOTH",
"139 354 OFFCURVE",
"81 339.25 OFFCURVE",
"81 249 CURVE SMOOTH",
"81 175 LINE SMOOTH",
"81 79.895 OFFCURVE",
"114.589 31.799 OFFCURVE",
"248 38 CURVE SMOOTH",
"313.261 41.033 OFFCURVE",
"353.882 46.34 OFFCURVE",
"354 46 CURVE",
"354 302 LINE"
);
}
);
width = 446;
},
{
layerId = "9D15C82E-7F80-48F0-B3D1-43822CDE4CEB";
paths = (
{
closed = 1;
nodes = (
"390 391.667 OFFCURVE",
"371 431.667 OFFCURVE",
"335 457 CURVE SMOOTH",
"305.667 477 OFFCURVE",
"268 488 OFFCURVE",
"200 488 CURVE",
"201 507 LINE",
"266.333 507 OFFCURVE",
"314.219 494.733 OFFCURVE",
"348 470 CURVE SMOOTH",
"388.895 440.059 OFFCURVE",
"409 395 OFFCURVE",
"409 335 CURVE SMOOTH",
"409 0 LINE",
"412.216 0.222 OFFCURVE",
"266.883 -10 OFFCURVE",
"229 -10 CURVE SMOOTH",
"84.9 -10 OFFCURVE",
"25 50.233 OFFCURVE",
"25 168 CURVE SMOOTH",
"25 251 LINE SMOOTH",
"25 314.792 OFFCURVE",
"51.411 403 OFFCURVE",
"186 403 CURVE SMOOTH",
"259.333 403 OFFCURVE",
"330 374.333 OFFCURVE",
"390 345 CURVE"
);
},
{
closed = 1;
nodes = (
"318.724 358.656 OFFCURVE",
"258.538 384 OFFCURVE",
"185 384 CURVE SMOOTH",
"82.233 384 OFFCURVE",
"43 323.033 OFFCURVE",
"43 249 CURVE SMOOTH",
"43 162 LINE SMOOTH",
"43 89.516 OFFCURVE",
"72.971 8 OFFCURVE",
"229 8 CURVE SMOOTH",
"272.991 8 OFFCURVE",
"392.438 18.222 OFFCURVE",
"390 18 CURVE",
"390 322 LINE"
);
}
);
width = 444;
},
{
layerId = "0D2E68F6-AD65-4FDC-99B3-7B414CE95F5B";
paths = (
{
closed = 1;
nodes = (
"304 376.667 OFFCURVE",
"297 395.333 OFFCURVE",
"285 406 CURVE SMOOTH",
"267.667 422 OFFCURVE",
"239.667 433 OFFCURVE",
"197 433 CURVE",
"206 508 LINE",
"259.333 508 OFFCURVE",
"323 504 OFFCURVE",
"367 464 CURVE SMOOTH",
"391 442.667 OFFCURVE",
"414 398 OFFCURVE",
"414 306 CURVE SMOOTH",
"414 0 LINE",
"358.972 -7.861 OFFCURVE",
"300.787 -11 OFFCURVE",
"234 -11 CURVE SMOOTH",
"120.662 -11 OFFCURVE",
"29 27.937 OFFCURVE",
"29 155 CURVE SMOOTH",
"29 252 LINE SMOOTH",
"29 353.437 OFFCURVE",
"91.212 400 OFFCURVE",
"164 400 CURVE SMOOTH",
"214.543 400 OFFCURVE",
"274.489 376.342 OFFCURVE",
"304 334 CURVE"
);
},
{
closed = 1;
nodes = (
"292.494 259.67 OFFCURVE",
"240.871 287 OFFCURVE",
"195 287 CURVE SMOOTH",
"165.083 287 OFFCURVE",
"140 275.617 OFFCURVE",
"140 238 CURVE SMOOTH",
"140 173 LINE SMOOTH",
"140 123.381 OFFCURVE",
"152.204 90 OFFCURVE",
"243 90 CURVE SMOOTH",
"259.444 90 OFFCURVE",
"304.66 94.445 OFFCURVE",
"304 94 CURVE",
"304 252 LINE"
);
}
);
width = 450;
},
{
layerId = "BAA7A442-529C-4232-9150-0627B90683AA";
paths = (
{
closed = 1;
nodes = (
"439.802 403.667 OFFCURVE",
"425.087 431.667 OFFCURVE",
"391.438 449 CURVE SMOOTH",
"368.655 461 OFFCURVE",
"335.96 464 OFFCURVE",
"298.626 464 CURVE",
"309.766 507 LINE",
"356.433 507 OFFCURVE",
"404.795 504 OFFCURVE",
"441.027 480 CURVE SMOOTH",
"504.005 438.789 OFFCURVE",
"484.17 348.964 OFFCURVE",
"471.004 287 CURVE SMOOTH",
"410 0 LINE",
"411.975 -0.118 OFFCURVE",
"298.8 -8.784 OFFCURVE",
"249.874 -10 CURVE SMOOTH",
"121.876 -13.974 OFFCURVE",
"31.813 20.617 OFFCURVE",
"61.709 168 CURVE SMOOTH",
"79.352 251 LINE SMOOTH",
"101.983 363.213 OFFCURVE",
"184.535 402 OFFCURVE",
"264.448 402 CURVE SMOOTH",
"329.781 402 OFFCURVE",
"387.184 375.667 OFFCURVE",
"428.182 349 CURVE"
);
},
{
closed = 1;
nodes = (
"370.862 329.581 OFFCURVE",
"312.246 354 OFFCURVE",
"249.245 354 CURVE SMOOTH",
"214.163 354 OFFCURVE",
"153.439 338.906 OFFCURVE",
"133.927 249 CURVE SMOOTH",
"118.197 175 LINE SMOOTH",
"97.483 80.11 OFFCURVE",
"121.602 31.811 OFFCURVE",
"256.077 38 CURVE SMOOTH",
"322.166 41.042 OFFCURVE",
"363.732 46.34 OFFCURVE",
"363.778 46 CURVE",
"418.192 302 LINE"
);
}
);
width = 446;
},
{
layerId = "EC4DDAD4-4840-4BAF-BE24-E50FF90D752F";
paths = (
{
closed = 1;
nodes = (
"384.063 376.667 OFFCURVE",
"381.031 395.333 OFFCURVE",
"371.298 406 CURVE SMOOTH",
"357.366 422 OFFCURVE",
"331.704 433 OFFCURVE",
"289.037 433 CURVE",
"313.979 508 LINE",
"365.671 508 OFFCURVE",
"428.853 505.438 OFFCURVE",
"465.626 464 CURVE SMOOTH",
"485.092 442.667 OFFCURVE",
"498.562 398.094 OFFCURVE",
"479.042 306 CURVE SMOOTH",
"414 0 LINE",
"357.342 -7.856 OFFCURVE",
"298.379 -11 OFFCURVE",
"231.662 -11 CURVE SMOOTH",
"118.378 -11 OFFCURVE",
"34.691 28.856 OFFCURVE",
"61.946 155 CURVE SMOOTH",
"82.564 252 LINE SMOOTH",
"104.828 352.824 OFFCURVE",
"176.213 400 OFFCURVE",
"249.023 400 CURVE SMOOTH",
"295.964 400 OFFCURVE",
"353.432 378.512 OFFCURVE",
"374.994 334 CURVE"
);
},
{
closed = 1;
nodes = (
"347.608 259.734 OFFCURVE",
"302.085 287 OFFCURVE",
"256.004 287 CURVE SMOOTH",
"226.046 287 OFFCURVE",
"199.177 275.962 OFFCURVE",
"190.588 238 CURVE SMOOTH",
"176.772 173 LINE SMOOTH",
"166.22 122.952 OFFCURVE",
"171.346 90 OFFCURVE",
"262.13 90 CURVE SMOOTH",
"278.479 90 OFFCURVE",
"324.735 94.445 OFFCURVE",
"323.98 94 CURVE",
"357.564 252 LINE"
);
}
);
width = 450;
},
{
layerId = "350CE105-9128-4F96-9C2D-77D2DB4D6663";
paths = (
{
closed = 1;
nodes = (
"473.251 391.667 OFFCURVE",
"462.754 431.667 OFFCURVE",
"432.138 457 CURVE SMOOTH",
"407.056 477 OFFCURVE",
"371.728 488 OFFCURVE",
"303.728 488 CURVE",
"308.766 507 LINE",
"374.1 507 OFFCURVE",
"419.402 494.712 OFFCURVE",
"447.902 470 CURVE SMOOTH",
"482.461 440.034 OFFCURVE",
"492.729 395.058 OFFCURVE",
"480.207 335 CURVE SMOOTH",
"409 0 LINE",
"412.263 0.222 OFFCURVE",
"264.71 -10 OFFCURVE",
"226.874 -10 CURVE SMOOTH",
"82.775 -10 OFFCURVE",
"36.797 49.834 OFFCURVE",
"60.709 168 CURVE SMOOTH",
"78.352 251 LINE SMOOTH",
"91.146 315.181 OFFCURVE",
"137.142 403 OFFCURVE",
"271.66 403 CURVE SMOOTH",
"344.994 403 OFFCURVE",
"409.567 374.333 OFFCURVE",
"463.332 345 CURVE"
);
},
{
closed = 1;
nodes = (
"394.899 358.691 OFFCURVE",
"340.039 383 OFFCURVE",
"266.409 383 CURVE SMOOTH",
"163.727 383 OFFCURVE",
"112.154 322.967 OFFCURVE",
"95.927 249 CURVE SMOOTH",
"77.434 162 LINE SMOOTH",
"61.263 89.942 OFFCURVE",
"73.855 8 OFFCURVE",
"230.7 8 CURVE SMOOTH",
"274.644 8 OFFCURVE",
"396.311 18.222 OFFCURVE",
"393.826 18 CURVE",
"458.443 322 LINE"
);
}
);
width = 444;
}
);
leftKerningGroup = a;
rightKerningGroup = a;
unicode = 0061;
},
{
glyphname = ae;
lastChange = "2019-02-08 07:35:54 +0000";
layers = (
{
layerId = master01;
paths = (
{
closed = 1;
nodes = (
"413 37.892 OFFCURVE",
"492.286 36 OFFCURVE",
"524 36 CURVE SMOOTH",
"577.333 36 OFFCURVE",
"619.667 51.333 OFFCURVE",
"669 78 CURVE",
"691 35 LINE",
"641.667 4.333 OFFCURVE",
"579.667 -10.667 OFFCURVE",
"529 -12 CURVE",
"499.667 -12 OFFCURVE",
"448.667 -11.333 OFFCURVE",
"410 14 CURVE",
"410 0 LINE",
"397.71 -3.073 OFFCURVE",
"228.508 -10 OFFCURVE",
"206 -10 CURVE",
"102.632 -4.036 OFFCURVE",
"26 39.612 OFFCURVE",
"26 168 CURVE SMOOTH",
"26 251 LINE SMOOTH",
"26 363.13 OFFCURVE",
"99.13 402 OFFCURVE",
"179 402 CURVE SMOOTH",
"244.333 402 OFFCURVE",
"307.333 375.667 OFFCURVE",
"354 349 CURVE",
"354 442.317 OFFCURVE",
"290.517 464 OFFCURVE",
"200 464 CURVE",
"201.333 478.667 OFFCURVE",
"200.667 493.667 OFFCURVE",
"202 507 CURVE",
"265.029 507 OFFCURVE",
"347.61 497.95 OFFCURVE",
"383 437 CURVE",
"416.333 483.667 OFFCURVE",
"469 508 OFFCURVE",
"541 508 CURVE SMOOTH",
"648.883 508 OFFCURVE",
"717 449.633 OFFCURVE",
"717 341 CURVE SMOOTH",
"717 211 LINE",
"413 195 LINE",
"413 133 LINE SMOOTH"
);
},
{
closed = 1;
nodes = (
"300.811 329.58 OFFCURVE",
"237.101 354 OFFCURVE",
"174 354 CURVE SMOOTH",
"139 354 OFFCURVE",
"81 339.25 OFFCURVE",
"81 249 CURVE SMOOTH",
"81 175 LINE SMOOTH",
"81 79.895 OFFCURVE",
"114.551 32.662 OFFCURVE",
"248 38 CURVE",
"313.216 41.895 OFFCURVE",
"353.882 46.34 OFFCURVE",
"354 46 CURVE",
"354 302 LINE"
);
},
{
closed = 1;
nodes = (
"660 438.745 OFFCURVE",
"581.329 461 OFFCURVE",
"539 461 CURVE SMOOTH",
"452.022 461 OFFCURVE",
"413 414.745 OFFCURVE",
"413 308 CURVE SMOOTH",
"413 250 LINE",
"660 261 LINE",
"660 348 LINE SMOOTH"
);
}
);
width = 747;
},
{
layerId = "9D15C82E-7F80-48F0-B3D1-43822CDE4CEB";
paths = (
{
closed = 1;
nodes = (
"414 41.152 OFFCURVE",
"479.026 7 OFFCURVE",
"567 7 CURVE SMOOTH",
"621.667 7 OFFCURVE",
"663.667 20 OFFCURVE",
"721 52 CURVE",
"730 35 LINE",
"679.333 4.333 OFFCURVE",
"625 -12 OFFCURVE",
"569 -12 CURVE SMOOTH",
"487.667 -12 OFFCURVE",
"433 13.333 OFFCURVE",
"409 64 CURVE",
"409 0 LINE",
"410.699 0.139 OFFCURVE",
"267.365 -10.139 OFFCURVE",
"229 -10 CURVE",
"84.9 -10 OFFCURVE",
"25 50.233 OFFCURVE",
"25 168 CURVE SMOOTH",
"25 251 LINE SMOOTH",
"25 314.792 OFFCURVE",
"51.411 403 OFFCURVE",
"186 403 CURVE SMOOTH",
"259.333 403 OFFCURVE",
"330 374.333 OFFCURVE",
"390 345 CURVE",
"390 425.933 OFFCURVE",
"344.217 488 OFFCURVE",
"200 488 CURVE",
"200 494.667 OFFCURVE",
"201 501.667 OFFCURVE",
"201 507 CURVE",
"316.399 507 OFFCURVE",
"381.939 465.226 OFFCURVE",
"402 391 CURVE",
"422 465.667 OFFCURVE",
"489.667 508 OFFCURVE",
"579 508 CURVE SMOOTH",
"689.133 508 OFFCURVE",
"755 448.283 OFFCURVE",
"755 341 CURVE SMOOTH",
"755 246 LINE",
"414 229 LINE",
"414 132 LINE SMOOTH"
);
},
{
closed = 1;
nodes = (
"318.724 358.656 OFFCURVE",
"258.538 383 OFFCURVE",
"185 383 CURVE SMOOTH",
"82.233 383 OFFCURVE",
"43 323.033 OFFCURVE",
"43 249 CURVE SMOOTH",
"43 162 LINE SMOOTH",
"43 89.516 OFFCURVE",
"72.982 5.31 OFFCURVE",
"229 8 CURVE",
"272.993 7.778 OFFCURVE",
"392.438 18.222 OFFCURVE",
"390 18 CURVE",
"390 322 LINE"
);
},
{
closed = 1;
nodes = (
"735 462.078 OFFCURVE",
"646.641 491 OFFCURVE",
"576 491 CURVE SMOOTH",
"508.519 491 OFFCURVE",
"414 462.693 OFFCURVE",
"414 332 CURVE SMOOTH",
"414 248 LINE",
"735 264 LINE",
"735 342 LINE SMOOTH"
);
}
);
width = 784;
},
{
layerId = "0D2E68F6-AD65-4FDC-99B3-7B414CE95F5B";
paths = (
{
closed = 1;
nodes = (
"418 117.004 OFFCURVE",
"435.996 91 OFFCURVE",
"475 91 CURVE SMOOTH",
"509.667 91 OFFCURVE",
"558.333 109.667 OFFCURVE",
"601 131 CURVE",
"641 36 LINE",
"595.667 6.667 OFFCURVE",
"547 -12 OFFCURVE",
"487 -12 CURVE SMOOTH",
"453.667 -12 OFFCURVE",
"415.667 -0.333 OFFCURVE",
"401 13 CURVE",
"401 -2 LINE",
"349.54 -8.432 OFFCURVE",
"294.276 -11 OFFCURVE",
"234 -11 CURVE SMOOTH",
"121.085 -11 OFFCURVE",
"34.04 28.165 OFFCURVE",
"28 155 CURVE",
"28 252 LINE SMOOTH",
"28 353.437 OFFCURVE",
"90.212 400 OFFCURVE",
"163 400 CURVE SMOOTH",
"213.543 400 OFFCURVE",
"273.489 376.342 OFFCURVE",
"303 334 CURVE",
"303 408.802 OFFCURVE",
"274.086 430.998 OFFCURVE",
"196 433 CURVE",
"200 459.667 OFFCURVE",
"202.333 482.667 OFFCURVE",
"205 508 CURVE",
"255.48 508 OFFCURVE",
"316.379 504.69 OFFCURVE",
"360 469 CURVE",
"398.667 497 OFFCURVE",
"440.667 510 OFFCURVE",
"490 510 CURVE SMOOTH",
"587.983 510 OFFCURVE",
"666 450.283 OFFCURVE",
"666 343 CURVE SMOOTH",
"666 187 LINE",
"418 174 LINE",
"418 150 LINE SMOOTH"
);
},
{
closed = 1;
nodes = (
"291.494 259.67 OFFCURVE",
"242.121 287 OFFCURVE",
"194 287 CURVE SMOOTH",
"164.083 287 OFFCURVE",
"139 275.617 OFFCURVE",
"139 238 CURVE SMOOTH",
"139 173 LINE SMOOTH",
"139 123.381 OFFCURVE",
"152.333 90 OFFCURVE",
"243 90 CURVE",
"258.556 89.556 OFFCURVE",
"303.444 94.445 OFFCURVE",
"303 94 CURVE",
"303 252 LINE"
);
},
{
closed = 1;
nodes = (
"556 367.208 OFFCURVE",
"544.16 405 OFFCURVE",
"489 405 CURVE",
"440.14 402.286 OFFCURVE",
"418 380.158 OFFCURVE",
"418 326 CURVE SMOOTH",
"418 275 LINE",
"556 284 LINE",
"556 323 LINE SMOOTH"
);
}
);
width = 698;
},
{
layerId = "BAA7A442-529C-4232-9150-0627B90683AA";
paths = (
{
closed = 1;
nodes = (
"421.029 37.774 OFFCURVE",
"500.034 36 OFFCURVE",
"531.652 36 CURVE SMOOTH",
"584.985 36 OFFCURVE",
"630.578 51.333 OFFCURVE",
"685.579 78 CURVE",
"698.439 35 LINE",
"642.588 4.333 OFFCURVE",
"577.399 -10.667 OFFCURVE",
"526.449 -12 CURVE",
"497.56 -12 OFFCURVE",
"445.297 -10.602 OFFCURVE",
"412.976 14 CURVE",
"410 0 LINE",
"396.934 -3.102 OFFCURVE",
"226.184 -10 OFFCURVE",
"203.874 -10 CURVE",
"101.848 -4.041 OFFCURVE",
"34.407 39.552 OFFCURVE",
"61.709 168 CURVE SMOOTH",
"79.352 251 LINE SMOOTH",
"103.177 363.09 OFFCURVE",
"184.535 402 OFFCURVE",
"264.448 402 CURVE SMOOTH",
"329.781 402 OFFCURVE",
"387.184 375.667 OFFCURVE",
"428.182 349 CURVE",
"448.04 442.425 OFFCURVE",
"389.003 464 OFFCURVE",
"298.626 464 CURVE",
"303.077 478.667 OFFCURVE",
"305.599 493.667 OFFCURVE",
"309.766 507 CURVE",
"372.695 507 OFFCURVE",
"453.451 497.954 OFFCURVE",
"475.887 437 CURVE",
"519.14 483.667 OFFCURVE",
"576.979 508 OFFCURVE",
"648.979 508 CURVE SMOOTH",
"756.901 508 OFFCURVE",
"812.58 449.67 OFFCURVE",
"789.482 341 CURVE SMOOTH",
"761.85 211 LINE",
"454.449 195 LINE",
"441.27 133 LINE SMOOTH"
);
},
{
closed = 1;
nodes = (
"370.862 329.581 OFFCURVE",
"312.246 354 OFFCURVE",
"249.245 354 CURVE SMOOTH",
"214.163 354 OFFCURVE",
"153.093 339.172 OFFCURVE",
"133.927 249 CURVE SMOOTH",
"118.197 175 LINE SMOOTH",
"97.989 79.926 OFFCURVE",
"121.566 32.665 OFFCURVE",
"256.077 38 CURVE",
"322.121 41.895 OFFCURVE",
"363.732 46.34 OFFCURVE",
"363.778 46 CURVE",
"418.192 302 LINE"
);
},
{
closed = 1;
nodes = (
"753.285 438.874 OFFCURVE",
"679.267 461 OFFCURVE",
"636.989 461 CURVE SMOOTH",
"549.976 461 OFFCURVE",
"501.164 414.777 OFFCURVE",
"478.467 308 CURVE SMOOTH",
"466.139 250 LINE",
"715.477 261 LINE",
"733.97 348 LINE SMOOTH"
);
}
);
width = 747;
},
{
layerId = "EC4DDAD4-4840-4BAF-BE24-E50FF90D752F";
paths = (
{
closed = 1;
nodes = (
"442.879 117.048 OFFCURVE",
"455.293 91 OFFCURVE",
"494.343 91 CURVE SMOOTH",
"529.009 91 OFFCURVE",
"581.644 109.667 OFFCURVE",
"628.845 131 CURVE",
"648.652 36 LINE",
"597.084 6.667 OFFCURVE",
"544.449 -12 OFFCURVE",
"484.449 -12 CURVE SMOOTH",
"451.116 -12 OFFCURVE",
"415.596 -0.333 OFFCURVE",
"403.763 13 CURVE",
"400.575 -2 LINE",
"347.654 -8.444 OFFCURVE",
"292.071 -11 OFFCURVE",
"231.662 -11 CURVE SMOOTH",
"118.806 -11 OFFCURVE",
"40.002 28.017 OFFCURVE",
"60.946 155 CURVE",
"81.564 252 LINE SMOOTH",
"103.103 353.329 OFFCURVE",
"175.213 400 OFFCURVE",
"248.023 400 CURVE SMOOTH",
"294.964 400 OFFCURVE",
"352.432 378.512 OFFCURVE",
"373.994 334 CURVE",
"389.887 408.773 OFFCURVE",
"365.682 430.998 OFFCURVE",
"288.037 433 CURVE",
"297.705 459.667 OFFCURVE",
"304.927 482.667 OFFCURVE",
"312.979 508 CURVE",
"363.291 508 OFFCURVE",
"423.717 504.628 OFFCURVE",
"459.689 469 CURVE",
"504.307 497 OFFCURVE",
"549.071 510 OFFCURVE",
"598.404 510 CURVE SMOOTH",
"696.357 510 OFFCURVE",
"761.733 450.386 OFFCURVE",
"738.907 343 CURVE SMOOTH",
"705.748 187 LINE",
"454.985 174 LINE",
"449.883 150 LINE SMOOTH"
);
},
{
closed = 1;
nodes = (
"346.608 259.734 OFFCURVE",
"303.335 287 OFFCURVE",
"255.004 287 CURVE SMOOTH",
"225.046 287 OFFCURVE",
"197.579 275.593 OFFCURVE",
"189.588 238 CURVE SMOOTH",
"175.772 173 LINE SMOOTH",
"165.225 123.378 OFFCURVE",
"171.484 90 OFFCURVE",
"262.13 90 CURVE SMOOTH",
"277.597 90 OFFCURVE",
"323.519 94.445 OFFCURVE",
"322.98 94 CURVE",
"356.564 252 LINE"
);
},
{
closed = 1;
nodes = (
"634.032 367.111 OFFCURVE",
"630.272 405 OFFCURVE",
"575.085 405 CURVE",
"525.79 402.293 OFFCURVE",
"498.782 380.051 OFFCURVE",
"487.293 326 CURVE SMOOTH",
"476.453 275 LINE",
"616.366 284 LINE",
"624.656 323 LINE SMOOTH"
);
}
);
width = 698;
},
{
layerId = "350CE105-9128-4F96-9C2D-77D2DB4D6663";
paths = (
{
closed = 1;
nodes = (
"422.743 41.131 OFFCURVE",
"480.585 7 OFFCURVE",
"568.488 7 CURVE SMOOTH",
"623.155 7 OFFCURVE",
"667.918 20 OFFCURVE",
"732.053 52 CURVE",
"737.439 35 LINE",
"680.254 4.333 OFFCURVE",
"622.449 -12 OFFCURVE",
"566.449 -12 CURVE SMOOTH",
"485.116 -12 OFFCURVE",
"435.834 13.333 OFFCURVE",
"422.604 64 CURVE",
"409 0 LINE",
"410.728 0.139 OFFCURVE",
"265.21 -10.139 OFFCURVE",
"226.874 -10 CURVE",
"82.775 -10 OFFCURVE",
"35.685 50.27 OFFCURVE",
"60.709 168 CURVE SMOOTH",
"78.352 251 LINE SMOOTH",
"91.921 314.838 OFFCURVE",
"137.142 403 OFFCURVE",
"271.66 403 CURVE SMOOTH",
"344.994 403 OFFCURVE",
"409.567 374.333 OFFCURVE",
"463.332 345 CURVE",
"480.517 425.847 OFFCURVE",
"447.984 488 OFFCURVE",
"303.728 488 CURVE",
"305.145 494.667 OFFCURVE",
"307.633 501.667 OFFCURVE",
"308.766 507 CURVE",
"424.182 507 OFFCURVE",
"480.828 465.194 OFFCURVE",
"485.11 391 CURVE",
"520.98 465.667 OFFCURVE",
"597.645 508 OFFCURVE",
"686.979 508 CURVE SMOOTH",
"797.091 508 OFFCURVE",
"850.295 448.329 OFFCURVE",
"827.482 341 CURVE SMOOTH",
"807.289 246 LINE",
"462.675 229 LINE",
"442.057 132 LINE SMOOTH"
);
},
{
closed = 1;
nodes = (
"394.899 358.691 OFFCURVE",
"340.039 383 OFFCURVE",
"266.409 383 CURVE SMOOTH",
"163.727 383 OFFCURVE",
"111.661 323.026 OFFCURVE",
"95.927 249 CURVE SMOOTH",
"77.434 162 LINE SMOOTH",
"62.054 89.644 OFFCURVE",
"73.867 5.306 OFFCURVE",
"230.7 8 CURVE",
"274.647 7.778 OFFCURVE",
"396.311 18.222 OFFCURVE",
"393.826 18 CURVE",
"458.443 322 LINE"
);
},
{
closed = 1;
nodes = (
"833.239 462.179 OFFCURVE",
"750.96 491 OFFCURVE",
"680.365 491 CURVE SMOOTH",
"612.892 491 OFFCURVE",
"512.326 462.589 OFFCURVE",
"484.569 332 CURVE SMOOTH",
"466.714 248 LINE",
"791.115 264 LINE",
"807.694 342 LINE SMOOTH"
);
}
);
width = 784;
}
);
leftKerningGroup = ae;
rightKerningGroup = ae;
unicode = 00E6;
},
{
glyphname = b;
lastChange = "2019-02-08 07:35:54 +0000";
layers = (
{
layerId = master01;
paths = (
{
closed = 1;
nodes = (
"142.333 491 OFFCURVE",
"193.667 508 OFFCURVE",
"259 508 CURVE SMOOTH",
"338.844 508 OFFCURVE",
"425 470.26 OFFCURVE",
"425 358 CURVE SMOOTH",
"425 294.667 OFFCURVE",
"425 231.333 OFFCURVE",
"425 168 CURVE SMOOTH",
"425 21.004 OFFCURVE",
"326.822 -13.964 OFFCURVE",
"198 -10 CURVE SMOOTH",
"151.34 -8.784 OFFCURVE",
"38.562 -0.118 OFFCURVE",
"41 0 CURVE",
"41 698 LINE",
"97 698 LINE",
"97 471 LINE"
);
},
{
closed = 1;
nodes = (
"97.118 46.34 OFFCURVE",
"137.784 41.896 OFFCURVE",
"203 38 CURVE",
"336.449 32.662 OFFCURVE",
"370 79.895 OFFCURVE",
"370 175 CURVE SMOOTH",
"370 193.229 OFFCURVE",
"370 334.673 OFFCURVE",
"370 354 CURVE SMOOTH",
"370 446.483 OFFCURVE",
"300.133 461 OFFCURVE",
"263 461 CURVE SMOOTH",
"199 461 OFFCURVE",
"151.667 444.667 OFFCURVE",
"97 422 CURVE",
"97 296.956 OFFCURVE",
"97 172.152 OFFCURVE",
"97 46 CURVE"
);
}
);
width = 455;
},
{
layerId = "9D15C82E-7F80-48F0-B3D1-43822CDE4CEB";
paths = (
{
closed = 1;
nodes = (
"110.667 492.667 OFFCURVE",
"173.667 508 OFFCURVE",
"247 508 CURVE SMOOTH",
"381.459 508 OFFCURVE",
"425 420.874 OFFCURVE",
"425 358 CURVE",
"425 359.998 OFFCURVE",
"425 166.803 OFFCURVE",
"425 168 CURVE",
"425 49.567 OFFCURVE",
"367.917 -11 OFFCURVE",
"220 -11 CURVE",
"183 -11.222 OFFCURVE",
"38 -0.778 OFFCURVE",
"41 -1 CURVE",
"41 698 LINE",
"60 698 LINE",
"60 470 LINE"
);
},
{
closed = 1;
nodes = (
"58.118 18.438 OFFCURVE",
"175.451 7.66 OFFCURVE",
"220 7 CURVE SMOOTH",
"377.393 4.332 OFFCURVE",
"406 89.26 OFFCURVE",
"406 161 CURVE SMOOTH",
"406 179.556 OFFCURVE",
"406 332.778 OFFCURVE",
"406 354 CURVE SMOOTH",
"406 429.583 OFFCURVE",
"351.533 491 OFFCURVE",
"248 491 CURVE SMOOTH",
"174.667 491 OFFCURVE",
"113.333 474 OFFCURVE",
"60 450 CURVE",
"60 451.034 OFFCURVE",
"60 16.966 OFFCURVE",
"60 18 CURVE"
);
}
);
width = 454;
},
{
layerId = "0D2E68F6-AD65-4FDC-99B3-7B414CE95F5B";
paths = (
{
closed = 1;
nodes = (
"193.667 500.667 OFFCURVE",
"230.667 508 OFFCURVE",
"276 508 CURVE SMOOTH",
"350.433 508 OFFCURVE",
"425 460.307 OFFCURVE",
"425 359 CURVE",
"425 360.776 OFFCURVE",
"425 154.026 OFFCURVE",
"425 155 CURVE",
"419 25.003 OFFCURVE",
"330.766 -11 OFFCURVE",
"217 -11 CURVE SMOOTH",
"158.258 -11 OFFCURVE",
"99.764 -2.671 OFFCURVE",
"41 0 CURVE",
"41 698 LINE",
"151 698 LINE",
"151 482 LINE"
);
},
{
closed = 1;
nodes = (
"151.111 93.889 OFFCURVE",
"193.889 91.111 OFFCURVE",
"210 91 CURVE",
"302.338 91 OFFCURVE",
"315 123.203 OFFCURVE",
"315 174 CURVE SMOOTH",
"315 190.556 OFFCURVE",
"315 325.778 OFFCURVE",
"315 345 CURVE SMOOTH",
"315 382.617 OFFCURVE",
"275.8 394 OFFCURVE",
"246 394 CURVE SMOOTH",
"199.333 394 OFFCURVE",
"161.667 376.667 OFFCURVE",
"151 370 CURVE",
"151 370.984 OFFCURVE",
"151 93.016 OFFCURVE",
"151 94 CURVE"
);
}
);
width = 457;
},
{
layerId = "BAA7A442-529C-4232-9150-0627B90683AA";
paths = (
{
closed = 1;
nodes = (
"246.699 491 OFFCURVE",
"301.645 508 OFFCURVE",
"366.979 508 CURVE SMOOTH",
"446.713 508 OFFCURVE",
"524.972 470.333 OFFCURVE",
"501.095 358 CURVE SMOOTH",
"487.633 294.667 OFFCURVE",
"474.171 231.333 OFFCURVE",
"460.709 168 CURVE SMOOTH",
"429.476 21.057 OFFCURVE",
"323.926 -13.966 OFFCURVE",
"195.874 -10 CURVE SMOOTH",
"149.473 -8.784 OFFCURVE",
"38.537 -0.118 OFFCURVE",
"41 0 CURVE",
"189.364 698 LINE",
"245.364 698 LINE",
"197.114 471 LINE"
);
},
{
closed = 1;
nodes = (
"106.968 46.34 OFFCURVE",
"146.689 41.896 OFFCURVE",
"211.077 38 CURVE",
"343.476 32.659 OFFCURVE",
"386.971 79.84 OFFCURVE",
"407.197 175 CURVE SMOOTH",
"411.072 193.229 OFFCURVE",
"441.137 334.673 OFFCURVE",
"445.245 354 CURVE SMOOTH",
"464.936 446.636 OFFCURVE",
"398.007 461 OFFCURVE",
"360.989 461 CURVE SMOOTH",
"296.989 461 OFFCURVE",
"246.184 444.667 OFFCURVE",
"186.699 422 CURVE",
"160.12 296.956 OFFCURVE",
"133.592 172.152 OFFCURVE",
"106.778 46 CURVE"
);
}
);
width = 455;
},
{
layerId = "EC4DDAD4-4840-4BAF-BE24-E50FF90D752F";
paths = (
{
closed = 1;
nodes = (
"300.087 500.667 OFFCURVE",
"339 505 OFFCURVE",
"384 505 CURVE SMOOTH",
"458 505 OFFCURVE",
"522.859 460.392 OFFCURVE",
"501.308 359 CURVE",
"501.685 360.776 OFFCURVE",
"457.739 154.026 OFFCURVE",
"457.946 155 CURVE",
"424.332 25.069 OFFCURVE",
"328.513 -11 OFFCURVE",
"214.662 -11 CURVE SMOOTH",
"155.732 -11 OFFCURVE",
"99.153 -2.669 OFFCURVE",
"41 0 CURVE",
"189.364 698 LINE",
"299.364 698 LINE",
"253.452 482 LINE"
);
},
{
closed = 1;
nodes = (
"171.068 93.889 OFFCURVE",
"213.255 91.111 OFFCURVE",
"229.343 91 CURVE",
"321.736 91 OFFCURVE",
"341.178 123.158 OFFCURVE",
"351.985 174 CURVE SMOOTH",
"355.504 190.556 OFFCURVE",
"384.246 325.778 OFFCURVE",
"388.332 345 CURVE SMOOTH",
"396.345 382.699 OFFCURVE",
"359.489 394 OFFCURVE",
"329.747 394 CURVE SMOOTH",
"283.081 394 OFFCURVE",
"241.73 376.667 OFFCURVE",
"229.646 370 CURVE",
"229.855 370.984 OFFCURVE",
"170.771 93.016 OFFCURVE",
"170.98 94 CURVE"
);
}
);
width = 457;
},
{
layerId = "350CE105-9128-4F96-9C2D-77D2DB4D6663";
paths = (
{
closed = 1;
nodes = (
"215.386 492.667 OFFCURVE",
"281.645 508 OFFCURVE",
"354.979 508 CURVE SMOOTH",
"489.45 508 OFFCURVE",
"514.457 420.863 OFFCURVE",
"501.095 358 CURVE",
"501.519 359.998 OFFCURVE",
"460.456 166.803 OFFCURVE",
"460.71 168 CURVE",
"435.524 49.508 OFFCURVE",
"365.564 -11 OFFCURVE",
"217.663 -11 CURVE",
"180.615 -11.222 OFFCURVE",
"37.835 -0.778 OFFCURVE",
"40.788 -1 CURVE",
"189.365 698 LINE",
"208.365 698 LINE",
"159.902 470 LINE"
);
},
{
closed = 1;
nodes = (
"62.037 18.438 OFFCURVE",
"177.079 7.66 OFFCURVE",
"221.488 7 CURVE SMOOTH",
"378.217 4.334 OFFCURVE",
"424.972 89.255 OFFCURVE",
"440.222 161 CURVE SMOOTH",
"444.166 179.556 OFFCURVE",
"476.734 332.778 OFFCURVE",
"481.245 354 CURVE SMOOTH",
"497.306 429.56 OFFCURVE",
"455.966 491 OFFCURVE",
"352.365 491 CURVE SMOOTH",
"279.032 491 OFFCURVE",
"214.085 474 OFFCURVE",
"155.65 450 CURVE",
"155.87 451.034 OFFCURVE",
"63.606 16.966 OFFCURVE",
"63.826 18 CURVE"
);
}
);
width = 454;
}
);
leftKerningGroup = b;
rightKerningGroup = b;
unicode = 0062;
},
{
glyphname = c;
lastChange = "2019-02-08 07:35:54 +0000";
layers = (
{
layerId = master01;
paths = (
{
closed = 1;
nodes = (
"285 452.667 OFFCURVE",
"217.667 463.667 OFFCURVE",
"175 453 CURVE SMOOTH",
"145.667 446.333 OFFCURVE",
"119 426 OFFCURVE",
"103 394 CURVE SMOOTH",
"91 371.333 OFFCURVE",
"84 341 OFFCURVE",
"84 305 CURVE SMOOTH",
"84 185 LINE SMOOTH",
"84 119.667 OFFCURVE",
"99.667 70.667 OFFCURVE",
"153 52 CURVE",
"215 24.556 OFFCURVE",
"341 55.778 OFFCURVE",
"339 55 CURVE",
"350 5 LINE",
"283.333 -12.333 OFFCURVE",
"201 -17.667 OFFCURVE",
"141 1 CURVE",
"73 23.667 OFFCURVE",
"29 75.667 OFFCURVE",
"29 173 CURVE SMOOTH",
"29 318 LINE",
"31.667 362 OFFCURVE",
"38.667 394 OFFCURVE",
"56 426 CURVE",
"82.667 470 OFFCURVE",
"120.667 494.667 OFFCURVE",
"166 504 CURVE SMOOTH",
"224.667 516 OFFCURVE",
"290.667 502.667 OFFCURVE",
"348 476 CURVE",
"333 430 LINE"
);
}
);
width = 380;
},
{
layerId = "9D15C82E-7F80-48F0-B3D1-43822CDE4CEB";
paths = (
{
closed = 1;
nodes = (
"282.667 486.333 OFFCURVE",
"222.667 495.667 OFFCURVE",
"172 485 CURVE SMOOTH",
"130.667 475.667 OFFCURVE",
"95.667 453 OFFCURVE",
"73 417 CURVE SMOOTH",
"55.667 389 OFFCURVE",
"47 355.667 OFFCURVE",
"47 313 CURVE SMOOTH",
"47 175 LINE SMOOTH",
"47 99 OFFCURVE",
"70.333 45 OFFCURVE",
"141 21 CURVE SMOOTH",
"228.66 -9.222 OFFCURVE",
"346.438 25.889 OFFCURVE",
"345 25 CURVE",
"349 5 LINE",
"282.333 -12.333 OFFCURVE",
"200 -17.667 OFFCURVE",
"140 1 CURVE",
"72 23.667 OFFCURVE",
"28 75.667 OFFCURVE",
"28 173 CURVE SMOOTH",
"28 318 LINE",
"30.667 362 OFFCURVE",
"37.667 394 OFFCURVE",
"55 426 CURVE",
"81.667 470 OFFCURVE",
"119.667 494.667 OFFCURVE",
"165 504 CURVE SMOOTH",
"223.667 516 OFFCURVE",
"289.667 504 OFFCURVE",
"347 476 CURVE",
"340 457 LINE"
);
}
);
width = 377;
},
{
layerId = "0D2E68F6-AD65-4FDC-99B3-7B414CE95F5B";
paths = (
{
closed = 1;
nodes = (
"291.333 408 OFFCURVE",
"247.667 419.667 OFFCURVE",
"209 413 CURVE SMOOTH",
"186.333 409 OFFCURVE",
"165 398.667 OFFCURVE",
"153 380 CURVE",
"146.333 366.667 OFFCURVE",
"140 351 OFFCURVE",
"140 331 CURVE SMOOTH",
"140 174 LINE SMOOTH",
"140 112.667 OFFCURVE",
"182.667 84 OFFCURVE",
"244 84 CURVE",
"286.66 83.778 OFFCURVE",
"334.105 94.222 OFFCURVE",
"333 94 CURVE",
"353 5 LINE",
"287.667 -12.333 OFFCURVE",
"213.667 -20.333 OFFCURVE",
"143 1 CURVE",
"75 23.667 OFFCURVE",
"31 75.667 OFFCURVE",
"31 173 CURVE SMOOTH",
"31 319 LINE",
"33.667 363 OFFCURVE",
"40.333 395 OFFCURVE",
"59 427 CURVE SMOOTH",
"85.667 471 OFFCURVE",
"123.667 495.667 OFFCURVE",
"169 505 CURVE SMOOTH",
"229 518.333 OFFCURVE",
"293.667 503.667 OFFCURVE",
"351 477 CURVE",
"326 392 LINE"
);
}
);
width = 384;
},
{
layerId = "BAA7A442-529C-4232-9150-0627B90683AA";
paths = (
{
closed = 1;
nodes = (
"381.217 452.667 OFFCURVE",
"316.222 463.667 OFFCURVE",
"271.288 453 CURVE SMOOTH",
"240.538 446.333 OFFCURVE",
"209.549 426 OFFCURVE",
"186.747 394 CURVE SMOOTH",
"169.929 371.333 OFFCURVE",
"156.482 341 OFFCURVE",
"148.83 305 CURVE SMOOTH",
"123.323 185 LINE SMOOTH",
"109.436 119.667 OFFCURVE",
"114.687 70.667 OFFCURVE",
"164.053 52 CURVE",
"220.219 24.556 OFFCURVE",
"352.856 55.778 OFFCURVE",
"350.691 55 CURVE",
"351.063 5 LINE",
"280.712 -12.333 OFFCURVE",
"197.245 -17.667 OFFCURVE",
"141.213 1 CURVE",
"78.031 23.667 OFFCURVE",
"45.083 75.667 OFFCURVE",
"65.772 173 CURVE SMOOTH",
"96.593 318 LINE",
"108.612 362 OFFCURVE",
"122.414 394 OFFCURVE",
"146.549 426 CURVE",
"182.568 470 OFFCURVE",
"225.811 494.667 OFFCURVE",
"273.129 504 CURVE SMOOTH",
"334.346 516 OFFCURVE",
"397.512 502.667 OFFCURVE",
"449.177 476 CURVE",
"424.399 430 LINE"
);
}
);
width = 380;
},
{
layerId = "EC4DDAD4-4840-4BAF-BE24-E50FF90D752F";
paths = (
{
closed = 1;
nodes = (
"378.056 408 OFFCURVE",
"336.87 419.667 OFFCURVE",
"296.786 413 CURVE SMOOTH",
"273.269 409 OFFCURVE",
"249.739 398.667 OFFCURVE",
"233.771 380 CURVE",
"224.271 366.667 OFFCURVE",
"214.607 351 OFFCURVE",
"210.356 331 CURVE SMOOTH",
"176.985 174 LINE SMOOTH",
"163.948 112.667 OFFCURVE",
"200.521 84 OFFCURVE",
"261.855 84 CURVE",
"304.468 83.778 OFFCURVE",
"354.132 94.222 OFFCURVE",
"352.98 94 CURVE",
"354.063 5 LINE",
"285.045 -12.333 OFFCURVE",
"209.345 -20.333 OFFCURVE",
"143.213 1 CURVE",
"80.031 23.667 OFFCURVE",
"47.083 75.667 OFFCURVE",
"67.772 173 CURVE SMOOTH",
"98.806 319 LINE",
"110.825 363 OFFCURVE",
"124.293 395 OFFCURVE",
"149.762 427 CURVE SMOOTH",
"185.781 471 OFFCURVE",
"229.024 495.667 OFFCURVE",
"276.341 505 CURVE SMOOTH",
"339.175 518.333 OFFCURVE",
"400.724 503.667 OFFCURVE",
"452.39 477 CURVE",
"409.322 392 LINE"
);
}
);
width = 384;
},
{
layerId = "350CE105-9128-4F96-9C2D-77D2DB4D6663";
paths = (
{
closed = 1;
nodes = (
"386.04 486.333 OFFCURVE",
"328.024 495.667 OFFCURVE",
"275.09 485 CURVE SMOOTH",
"231.773 475.667 OFFCURVE",
"191.955 453 OFFCURVE",
"161.636 417 CURVE SMOOTH",
"138.351 389 OFFCURVE",
"122.599 355.667 OFFCURVE",
"113.53 313 CURVE SMOOTH",
"84.197 175 LINE SMOOTH",
"68.043 99 OFFCURVE",
"79.898 45 OFFCURVE",
"145.464 21 CURVE SMOOTH",
"226.7 -9.222 OFFCURVE",
"351.941 25.889 OFFCURVE",
"350.314 25 CURVE",
"350.063 5 LINE",
"279.712 -12.333 OFFCURVE",
"196.245 -17.667 OFFCURVE",
"140.213 1 CURVE",
"77.031 23.667 OFFCURVE",
"44.083 75.667 OFFCURVE",
"64.772 173 CURVE SMOOTH",
"95.593 318 LINE",
"107.612 362 OFFCURVE",
"121.414 394 OFFCURVE",
"145.549 426 CURVE",
"181.568 470 OFFCURVE",
"224.811 494.667 OFFCURVE",
"272.129 504 CURVE SMOOTH",
"333.346 516 OFFCURVE",
"396.795 504 OFFCURVE",
"448.177 476 CURVE",
"437.138 457 LINE"
);
}
);
width = 377;
}
);
leftKerningGroup = c;
rightKerningGroup = c;
unicode = 0063;
},
{
glyphname = d;
lastChange = "2019-02-10 06:51:18 +0000";
layers = (
{
layerId = master01;
paths = (
{
closed = 1;
nodes = (
"415.222 -0.118 OFFCURVE",
"302.778 -8.784 OFFCURVE",
"257 -10 CURVE SMOOTH",
"128.412 -14.018 OFFCURVE",
"29 21.048 OFFCURVE",
"29 168 CURVE SMOOTH",
"29 358 LINE SMOOTH",
"29 470.6 OFFCURVE",
"115.833 508 OFFCURVE",
"195 508 CURVE SMOOTH",
"260.333 508 OFFCURVE",
"312.667 491 OFFCURVE",
"358 471 CURVE",
"358 698 LINE",
"413 698 LINE",
"413 0 LINE"
);
},
{
closed = 1;
nodes = (
"304.667 444.667 OFFCURVE",
"255 461 OFFCURVE",
"191 461 CURVE SMOOTH",
"157 461 OFFCURVE",
"81.417 447.417 OFFCURVE",
"84 354 CURVE",
"84 175 LINE SMOOTH",
"84 79.891 OFFCURVE",
"119 34 OFFCURVE",
"252 38 CURVE SMOOTH",
"316 40 OFFCURVE",
"358.222 46.34 OFFCURVE",
"358 46 CURVE",
"358 422 LINE"
);
}
);
width = 456;
},
{
layerId = "9D15C82E-7F80-48F0-B3D1-43822CDE4CEB";
paths = (
{
closed = 1;
nodes = (
"415 -0.778 OFFCURVE",
"270 -11 OFFCURVE",
"233 -11 CURVE SMOOTH",
"87 -11 OFFCURVE",
"28 49.567 OFFCURVE",
"28 168 CURVE SMOOTH",
"28 358 LINE SMOOTH",
"28 420.65 OFFCURVE",
"73.267 508 OFFCURVE",
"207 508 CURVE SMOOTH",
"280.333 508 OFFCURVE",
"341 492.667 OFFCURVE",
"393 470 CURVE",
"393 698 LINE",
"412 698 LINE",
"412 -1 LINE"
);
},
{
closed = 1;
nodes = (
"341 474 OFFCURVE",
"279.667 491 OFFCURVE",
"205 491 CURVE SMOOTH",
"103.033 491 OFFCURVE",
"48 429.583 OFFCURVE",
"48 354 CURVE SMOOTH",
"48 161 LINE SMOOTH",
"48 89.26 OFFCURVE",
"77 6 OFFCURVE",
"234 7 CURVE SMOOTH",
"278 7 OFFCURVE",
"394.667 18.438 OFFCURVE",
"393 18 CURVE",
"393 450 LINE"
);
}
);
width = 455;
},
{
layerId = "0D2E68F6-AD65-4FDC-99B3-7B414CE95F5B";
paths = (
{
closed = 1;
nodes = (
"363 -8 OFFCURVE",
"304 -11 OFFCURVE",
"239 -11 CURVE SMOOTH",
"126 -11 OFFCURVE",
"35 37 OFFCURVE",
"31 155 CURVE",
"31 359 LINE SMOOTH",
"31 461 OFFCURVE",
"107 508 OFFCURVE",
"180 508 CURVE SMOOTH",
"227 508 OFFCURVE",
"263 501 OFFCURVE",
"306 482 CURVE",
"306 698 LINE",
"416 698 LINE",
"416 0 LINE"
);
},
{
closed = 1;
nodes = (
"294 377 OFFCURVE",
"259 394 OFFCURVE",
"212 394 CURVE SMOOTH",
"182 394 OFFCURVE",
"142 383 OFFCURVE",
"142 345 CURVE SMOOTH",
"142 174 LINE SMOOTH",
"142 123 OFFCURVE",
"156 91 OFFCURVE",
"246 91 CURVE SMOOTH",
"262 91 OFFCURVE",
"306 94 OFFCURVE",
"306 94 CURVE",
"306 370 LINE"
);
}
);
width = 459;
},
{
layerId = "BAA7A442-529C-4232-9150-0627B90683AA";
paths = (
{
closed = 1;
nodes = (
"415.197 -0.118 OFFCURVE",
"300.91 -8.784 OFFCURVE",
"254.874 -10 CURVE SMOOTH",
"125.432 -14.018 OFFCURVE",
"33.475 21.048 OFFCURVE",
"64.717 168 CURVE SMOOTH",
"105.111 358 LINE SMOOTH",
"129.05 470.6 OFFCURVE",
"223.834 508 OFFCURVE",
"303.001 508 CURVE SMOOTH",
"368.334 508 OFFCURVE",
"417.053 491 OFFCURVE",
"458.135 471 CURVE",
"506.395 698 LINE",
"561.395 698 LINE",
"413 0 LINE"
);
},
{
closed = 1;
nodes = (
"399.203 444.667 OFFCURVE",
"353.009 461 OFFCURVE",
"289.009 461 CURVE SMOOTH",
"255.009 461 OFFCURVE",
"176.537 447.417 OFFCURVE",
"159.26 354 CURVE",
"121.205 175 LINE SMOOTH",
"100.985 79.891 OFFCURVE",
"126.228 34 OFFCURVE",
"260.079 38 CURVE SMOOTH",
"324.504 40 OFFCURVE",
"368.074 46.34 OFFCURVE",
"367.78 46 CURVE",
"447.717 422 LINE"
);
}
);
width = 456;
},
{
layerId = "EC4DDAD4-4840-4BAF-BE24-E50FF90D752F";
paths = (
{
closed = 1;
nodes = (
"361.205 -7.965 OFFCURVE",
"301.532 -11 OFFCURVE",
"236.661 -11 CURVE SMOOTH",
"123.599 -11 OFFCURVE",
"42.895 37.16 OFFCURVE",
"63.953 155 CURVE",
"107.323 359 LINE SMOOTH",
"129.016 461.033 OFFCURVE",
"214.767 508 OFFCURVE",
"288.001 508 CURVE SMOOTH",
"334.667 508 OFFCURVE",
"369.775 500.667 OFFCURVE",
"408.473 482 CURVE",
"454.395 698 LINE",
"564.395 698 LINE",
"416 0 LINE"
);
},
{
closed = 1;
nodes = (
"374.079 376.667 OFFCURVE",
"342.431 394 OFFCURVE",
"295.764 394 CURVE SMOOTH",
"265.298 394 OFFCURVE",
"223.344 382.617 OFFCURVE",
"215.347 345 CURVE SMOOTH",
"178.992 174 LINE SMOOTH",
"168.193 123.203 OFFCURVE",
"175.347 91 OFFCURVE",
"265.347 91 CURVE SMOOTH",
"281.347 91 OFFCURVE",
"326.405 93.889 OFFCURVE",
"325.984 94 CURVE",
"384.662 370 LINE"
);
}
);
width = 459;
},
{
layerId = "350CE105-9128-4F96-9C2D-77D2DB4D6663";
paths = (
{
closed = 1;
nodes = (
"414.835 -0.778 OFFCURVE",
"267.661 -11 OFFCURVE",
"230.661 -11 CURVE SMOOTH",
"84.661 -11 OFFCURVE",
"38.538 49.567 OFFCURVE",
"63.717 168 CURVE SMOOTH",
"104.111 358 LINE SMOOTH",
"117.43 420.65 OFFCURVE",
"181.267 508 OFFCURVE",
"315.001 508 CURVE SMOOTH",
"388.334 508 OFFCURVE",
"445.741 492.667 OFFCURVE",
"492.922 470 CURVE",
"541.395 698 LINE",
"560.395 698 LINE",
"411.787 -1 LINE"
);
},
{
closed = 1;
nodes = (
"441.772 474 OFFCURVE",
"384.053 491 OFFCURVE",
"309.387 491 CURVE SMOOTH",
"207.42 491 OFFCURVE",
"139.329 429.583 OFFCURVE",
"123.26 354 CURVE SMOOTH",
"82.229 161 LINE SMOOTH",
"66.977 89.26 OFFCURVE",
"77.276 6 OFFCURVE",
"230.488 7 CURVE SMOOTH",
"279.488 7 OFFCURVE",
"398.587 18.438 OFFCURVE",
"396.827 18 CURVE",
"488.67 450 LINE"
);
}
);
width = 455;
}
);
leftKerningGroup = d;
rightKerningGroup = d;
unicode = 0064;
},
{
glyphname = eth;
lastChange = "2019-02-08 07:35:54 +0000";
layers = (
{
layerId = master01;
paths = (
{
closed = 1;
nodes = (
"189 699 LINE",
"255 690.333 OFFCURVE",
"306.167 664.833 OFFCURVE",
"342.5 622.5 CURVE SMOOTH",
"378.833 580.167 OFFCURVE",
"397 529 OFFCURVE",
"397 469 CURVE SMOOTH",
"397 187 LINE SMOOTH",
"397 60.333 OFFCURVE",
"329.667 -9 OFFCURVE",
"211 -9 CURVE SMOOTH",
"92.333 -9 OFFCURVE",
"28 65.667 OFFCURVE",
"28 187 CURVE SMOOTH",
"28 245 LINE SMOOTH",
"28 367.667 OFFCURVE",
"87.667 433 OFFCURVE",
"197 433 CURVE SMOOTH",
"258.814 433 OFFCURVE",
"317.774 401.431 OFFCURVE",
"340 359 CURVE",
"340 479 LINE SMOOTH",
"340 624.596 OFFCURVE",
"215.363 662.301 OFFCURVE",
"182 670 CURVE"
);
},
{
closed = 1;
nodes = (
"84 187 LINE SMOOTH",
"84 89.667 OFFCURVE",
"124 43 OFFCURVE",
"208 43 CURVE SMOOTH",
"296 43 OFFCURVE",
"340 89.667 OFFCURVE",
"340 187 CURVE SMOOTH",
"340 248 LINE SMOOTH",
"340 332.85 OFFCURVE",
"278.25 380 OFFCURVE",
"202 380 CURVE SMOOTH",
"126 380 OFFCURVE",
"84 337 OFFCURVE",
"84 253 CURVE SMOOTH"
);
},
{
closed = 1;
nodes = (
"198 494 LINE",
"170 522 LINE",
"349 701 LINE",
"377 673 LINE"
);
}
);
width = 424;
},
{
layerId = "9D15C82E-7F80-48F0-B3D1-43822CDE4CEB";
paths = (
{
closed = 1;
nodes = (
"184 699 LINE",
"250 690.333 OFFCURVE",
"301.167 664.833 OFFCURVE",
"337.5 622.5 CURVE SMOOTH",
"373.833 580.167 OFFCURVE",
"392 529 OFFCURVE",
"392 469 CURVE SMOOTH",
"392 187 LINE SMOOTH",
"392 60.333 OFFCURVE",
"324.667 -9 OFFCURVE",
"206 -9 CURVE SMOOTH",
"87.333 -9 OFFCURVE",
"23 65.667 OFFCURVE",
"23 187 CURVE SMOOTH",
"23 245 LINE SMOOTH",
"23 367.667 OFFCURVE",
"87.333 433 OFFCURVE",
"198 433 CURVE SMOOTH",
"258.559 433 OFFCURVE",
"350.176 396.536 OFFCURVE",
"372 339 CURVE",
"372 469 LINE SMOOTH",
"372 630.321 OFFCURVE",
"245.517 675.247 OFFCURVE",
"181 686 CURVE"
);
},
{
closed = 1;
nodes = (
"43 182 LINE SMOOTH",
"43 68.667 OFFCURVE",
"110 11 OFFCURVE",
"206 11 CURVE SMOOTH",
"315.109 11 OFFCURVE",
"372 74.549 OFFCURVE",
"372 182 CURVE SMOOTH",
"372 273 LINE",
"374.417 370.167 OFFCURVE",
"264.333 421.583 OFFCURVE",
"179 416 CURVE SMOOTH",
"92.333 410.667 OFFCURVE",
"43 352.333 OFFCURVE",
"43 251 CURVE SMOOTH"
);
},
{
closed = 1;
nodes = (
"197 513 LINE",
"185 524 LINE",
"358 700 LINE",
"370 689 LINE"
);
}
);
width = 418;
},
{
layerId = "0D2E68F6-AD65-4FDC-99B3-7B414CE95F5B";
paths = (
{
closed = 1;
nodes = (
"187 699 LINE",
"248.333 684.333 OFFCURVE",
"298.333 659 OFFCURVE",
"337 623 CURVE SMOOTH",
"375.667 587 OFFCURVE",
"395 539 OFFCURVE",
"395 479 CURVE SMOOTH",
"395 186 LINE SMOOTH",
"395 59.333 OFFCURVE",
"328.333 -9 OFFCURVE",
"207 -9 CURVE SMOOTH",
"92.333 -9 OFFCURVE",
"26 64.667 OFFCURVE",
"26 186 CURVE SMOOTH",
"26 245 LINE SMOOTH",
"26 367.667 OFFCURVE",
"84.333 432 OFFCURVE",
"195 432 CURVE SMOOTH",
"227.173 432 OFFCURVE",
"263.534 423.612 OFFCURVE",
"285 408 CURVE",
"285 479 LINE",
"286.889 593.778 OFFCURVE",
"158.111 629.889 OFFCURVE",
"160 630 CURVE"
);
},
{
closed = 1;
nodes = (
"136 180 LINE SMOOTH",
"136 132 OFFCURVE",
"163 101 OFFCURVE",
"211 101 CURVE SMOOTH",
"257.667 101 OFFCURVE",
"285 130.667 OFFCURVE",
"285 180 CURVE SMOOTH",
"285 281 LINE SMOOTH",
"285 317.917 OFFCURVE",
"234.5 333 OFFCURVE",
"201 333 CURVE SMOOTH",
"158.333 333 OFFCURVE",
"136 305.333 OFFCURVE",
"136 260 CURVE SMOOTH"
);
},
{
closed = 1;
nodes = (
"206 479 LINE",
"155 530 LINE",
"334 709 LINE",
"384 658 LINE"
);
}
);
width = 423;
},
{
layerId = "BAA7A442-529C-4232-9150-0627B90683AA";
paths = (
{
closed = 1;
nodes = (
"337.577 699 LINE",
"401.735 690.333 OFFCURVE",
"447.481 664.833 OFFCURVE",
"474.816 622.5 CURVE SMOOTH",
"502.152 580.167 OFFCURVE",
"509.442 529 OFFCURVE",
"496.689 469 CURVE SMOOTH",
"436.748 187 LINE SMOOTH",
"409.824 60.333 OFFCURVE",
"327.754 -9 OFFCURVE",
"209.087 -9 CURVE SMOOTH",
"90.42 -9 OFFCURVE",
"41.958 65.667 OFFCURVE",
"67.748 187 CURVE SMOOTH",
"80.076 245 LINE SMOOTH",
"106.15 367.667 OFFCURVE",
"179.704 433 OFFCURVE",
"289.037 433 CURVE SMOOTH",
"350.958 433 OFFCURVE",
"403.079 401.502 OFFCURVE",
"416.308 359 CURVE",
"441.815 479 LINE SMOOTH",
"472.783 624.695 OFFCURVE",
"356.032 662.327 OFFCURVE",
"324.413 670 CURVE"
);
},
{
closed = 1;
nodes = (
"123.748 187 LINE SMOOTH",
"103.059 89.667 OFFCURVE",
"133.14 43 OFFCURVE",
"217.14 43 CURVE SMOOTH",
"305.14 43 OFFCURVE",
"359.059 89.667 OFFCURVE",
"379.748 187 CURVE SMOOTH",
"392.714 248 LINE SMOOTH",
"410.771 332.951 OFFCURVE",
"358.966 380 OFFCURVE",
"282.771 380 CURVE SMOOTH",
"206.771 380 OFFCURVE",
"155.632 337 OFFCURVE",
"137.777 253 CURVE SMOOTH"
);
},
{
closed = 1;
nodes = (
"303.003 494 LINE",
"280.954 522 LINE",
"498.002 701 LINE",
"520.051 673 LINE"
);
}
);
width = 424;
},
{
layerId = "EC4DDAD4-4840-4BAF-BE24-E50FF90D752F";
paths = (
{
closed = 1;
nodes = (
"335.577 699 LINE",
"393.793 684.333 OFFCURVE",
"438.408 659 OFFCURVE",
"469.423 623 CURVE SMOOTH",
"500.437 587 OFFCURVE",
"509.568 539 OFFCURVE",
"496.815 479 CURVE SMOOTH",
"434.536 186 LINE SMOOTH",
"407.612 59.333 OFFCURVE",
"326.42 -9 OFFCURVE",
"205.087 -9 CURVE SMOOTH",
"90.42 -9 OFFCURVE",
"39.745 64.667 OFFCURVE",
"65.535 186 CURVE SMOOTH",
"78.076 245 LINE SMOOTH",
"104.15 367.667 OFFCURVE",
"176.158 432 OFFCURVE",
"286.824 432 CURVE SMOOTH",
"318.829 432 OFFCURVE",
"353.629 423.565 OFFCURVE",
"371.723 408 CURVE",
"386.815 479 LINE SMOOTH",
"411.228 593.857 OFFCURVE",
"293.433 630 OFFCURVE",
"293.911 630 CURVE"
);
},
{
closed = 1;
nodes = (
"174.26 180 LINE SMOOTH",
"164.057 132 OFFCURVE",
"184.468 101 OFFCURVE",
"232.468 101 CURVE SMOOTH",
"279.135 101 OFFCURVE",
"312.774 130.667 OFFCURVE",
"323.26 180 CURVE SMOOTH",
"344.728 281 LINE SMOOTH",
"352.598 318.021 OFFCURVE",
"305.2 333 OFFCURVE",
"271.781 333 CURVE SMOOTH",
"229.115 333 OFFCURVE",
"200.901 305.333 OFFCURVE",
"191.265 260 CURVE SMOOTH"
);
},
{
closed = 1;
nodes = (
"307.815 479 LINE",
"267.655 530 LINE",
"484.703 709 LINE",
"523.862 658 LINE"
);
}
);
width = 423;
},
{
layerId = "350CE105-9128-4F96-9C2D-77D2DB4D6663";
paths = (
{
closed = 1;
nodes = (
"332.577 699 LINE",
"396.735 690.333 OFFCURVE",
"442.481 664.833 OFFCURVE",
"469.816 622.5 CURVE SMOOTH",
"497.152 580.167 OFFCURVE",
"504.442 529 OFFCURVE",
"491.689 469 CURVE SMOOTH",
"431.748 187 LINE SMOOTH",
"404.824 60.333 OFFCURVE",
"322.754 -9 OFFCURVE",
"204.087 -9 CURVE SMOOTH",
"85.42 -9 OFFCURVE",
"36.958 65.667 OFFCURVE",
"62.748 187 CURVE SMOOTH",
"75.076 245 LINE SMOOTH",
"101.15 367.667 OFFCURVE",
"179.37 433 OFFCURVE",
"290.037 433 CURVE SMOOTH",
"350.653 433 OFFCURVE",
"434.446 396.636 OFFCURVE",
"444.057 339 CURVE",
"471.689 469 LINE SMOOTH",
"506.025 630.54 OFFCURVE",
"388.99 675.257 OFFCURVE",
"326.814 686 CURVE"
);
},
{
closed = 1;
nodes = (
"81.685 182 LINE SMOOTH",
"57.596 68.667 OFFCURVE",
"107 11 OFFCURVE",
"208.338 11 CURVE SMOOTH",
"318.857 11 OFFCURVE",
"388.16 76.028 OFFCURVE",
"410.685 182 CURVE SMOOTH",
"430.028 273 LINE",
"453.098 370.167 OFFCURVE",
"356.531 421.419 OFFCURVE",
"270 416 CURVE SMOOTH",
"182.21 410.502 OFFCURVE",
"117.891 352.333 OFFCURVE",
"96.352 251 CURVE SMOOTH"
);
},
{
closed = 1;
nodes = (
"307.254 512 LINE",
"296.38 524 LINE",
"506.79 700 LINE",
"517.664 688 LINE"
);
}
);
width = 418;
}
);
leftKerningGroup = d;
rightKerningGroup = d;
unicode = 00F0;
},
{
glyphname = dcroat;
lastChange = "2019-02-08 07:35:54 +0000";
layers = (
{
components = (
{
name = d;
}
);
layerId = master01;
paths = (
{
closed = 1;
nodes = (
"460 615 LINE",
"224 615 LINE",
"224 562 LINE",
"460 562 LINE"
);
}
);
width = 456;
},
{
components = (
{
name = d;
}
);
layerId = "9D15C82E-7F80-48F0-B3D1-43822CDE4CEB";
paths = (
{
closed = 1;
nodes = (
"459 615 LINE",
"223 615 LINE",
"223 595 LINE",
"459 595 LINE"
);
}
);
width = 455;
},
{
components = (
{
name = d;
}
);
layerId = "0D2E68F6-AD65-4FDC-99B3-7B414CE95F5B";
paths = (
{
closed = 1;
nodes = (
"458 640 LINE",
"224 640 LINE",
"224 551 LINE",
"458 551 LINE"
);
}
);
width = 459;
},
{
components = (
{
name = d;
}
);
layerId = "BAA7A442-529C-4232-9150-0627B90683AA";
paths = (
{
closed = 1;
nodes = (
"590.722 615 LINE",
"354.722 615 LINE",
"343.457 562 LINE",
"579.457 562 LINE"
);
}
);
width = 456;
},
{
components = (
{
name = d;
}
);
layerId = "EC4DDAD4-4840-4BAF-BE24-E50FF90D752F";
paths = (
{
closed = 1;
nodes = (
"594.036 640 LINE",
"360.036 640 LINE",
"341.119 551 LINE",
"575.119 551 LINE"
);
}
);
width = 459;
},
{
components = (
{
name = d;
}
);
layerId = "350CE105-9128-4F96-9C2D-77D2DB4D6663";
paths = (
{
closed = 1;
nodes = (
"589.722 615 LINE",
"353.722 615 LINE",
"349.471 595 LINE",
"585.471 595 LINE"
);
}
);
width = 455;
}
);
unicode = 0111;
},
{
glyphname = e;
lastChange = "2019-02-08 07:35:54 +0000";
layers = (
{
layerId = master01;
paths = (
{
closed = 1;
nodes = (
"87 63 OFFCURVE",
"133 36 OFFCURVE",
"198 36 CURVE SMOOTH",
"247.333 36 OFFCURVE",
"293.333 51.333 OFFCURVE",
"344 78 CURVE",
"366 35 LINE",
"315.333 4.333 OFFCURVE",
"254 -12 OFFCURVE",
"203 -12 CURVE SMOOTH",
"101 -12 OFFCURVE",
"31 22 OFFCURVE",
"31 133 CURVE SMOOTH",
"31 338 LINE SMOOTH",
"31 450 OFFCURVE",
"109 508 OFFCURVE",
"215 508 CURVE SMOOTH",
"322 508 OFFCURVE",
"391 451 OFFCURVE",
"391 341 CURVE SMOOTH",
"391 211 LINE",
"87 195 LINE",
"87 133 LINE SMOOTH"
);
},
{
closed = 1;
nodes = (
"335 418 OFFCURVE",
"283 461 OFFCURVE",
"214 461 CURVE SMOOTH",
"135 461 OFFCURVE",
"87 417 OFFCURVE",
"87 337 CURVE SMOOTH",
"87 250 LINE",
"335 261 LINE",
"335 348 LINE SMOOTH"
);
}
);
width = 421;
},
{
layerId = "9D15C82E-7F80-48F0-B3D1-43822CDE4CEB";
paths = (
{
closed = 1;
nodes = (
"49 37 OFFCURVE",
"117 7 OFFCURVE",
"202 7 CURVE SMOOTH",
"256.667 7 OFFCURVE",
"298.667 20 OFFCURVE",
"356 52 CURVE",
"364 35 LINE",
"314.667 4.333 OFFCURVE",
"260 -12 OFFCURVE",
"204 -12 CURVE SMOOTH",
"107 -12 OFFCURVE",
"30 25 OFFCURVE",
"30 133 CURVE SMOOTH",
"30 338 LINE SMOOTH",
"30 449 OFFCURVE",
"108 508 OFFCURVE",
"214 508 CURVE SMOOTH",
"319 508 OFFCURVE",
"390 452 OFFCURVE",
"390 341 CURVE SMOOTH",
"390 246 LINE",
"49 229 LINE",
"49 132 LINE SMOOTH"
);
},
{
closed = 1;
nodes = (
"370 443 OFFCURVE",
"305 491 OFFCURVE",
"210 491 CURVE SMOOTH",
"109 491 OFFCURVE",
"49 434 OFFCURVE",
"49 332 CURVE SMOOTH",
"49 248 LINE",
"370 264 LINE",
"370 342 LINE SMOOTH"
);
}
);
width = 419;
},
{
layerId = "0D2E68F6-AD65-4FDC-99B3-7B414CE95F5B";
paths = (
{
closed = 1;
nodes = (
"144 113 OFFCURVE",
"165 90 OFFCURVE",
"201 90 CURVE SMOOTH",
"237 90 OFFCURVE",
"285.333 108.667 OFFCURVE",
"328 130 CURVE",
"368 35 LINE",
"321.333 5.667 OFFCURVE",
"258 -13 OFFCURVE",
"198 -13 CURVE SMOOTH",
"104 -13 OFFCURVE",
"33 33 OFFCURVE",
"33 134 CURVE SMOOTH",
"33 339 LINE SMOOTH",
"33 451 OFFCURVE",
"112 509 OFFCURVE",
"217 509 CURVE SMOOTH",
"322 509 OFFCURVE",
"393 453 OFFCURVE",
"393 342 CURVE SMOOTH",
"393 186 LINE",
"144 173 LINE",
"144 148 LINE SMOOTH"
);
},
{
closed = 1;
nodes = (
"282 357 OFFCURVE",
"272 407 OFFCURVE",
"216 404 CURVE SMOOTH",
"155 401 OFFCURVE",
"144 368 OFFCURVE",
"144 313 CURVE SMOOTH",
"144 274 LINE",
"282 283 LINE",
"282 312 LINE SMOOTH"
);
}
);
width = 425;
},
{
layerId = "BAA7A442-529C-4232-9150-0627B90683AA";
paths = (
{
closed = 1;
nodes = (
"101 64 OFFCURVE",
"140 36 OFFCURVE",
"205.652 36 CURVE SMOOTH",
"254.985 36 OFFCURVE",
"304.245 51.333 OFFCURVE",
"360.579 78 CURVE",
"373.439 35 LINE",
"316.254 4.333 OFFCURVE",
"251 -12 OFFCURVE",
"200.449 -12 CURVE SMOOTH",
"99 -12 OFFCURVE",
"36 22 OFFCURVE",
"59.27 133 CURVE SMOOTH",
"102.844 338 LINE SMOOTH",
"126 448 OFFCURVE",
"205 508 OFFCURVE",
"314 508 CURVE SMOOTH",
"423 508 OFFCURVE",
"486 449 OFFCURVE",
"463.482 341 CURVE SMOOTH",
"435.849 211 LINE",
"128.449 195 LINE",
"115.27 133 LINE SMOOTH"
);
},
{
closed = 1;
nodes = (
"423 417 OFFCURVE",
"382 461 OFFCURVE",
"311.989 461 CURVE SMOOTH",
"231 461 OFFCURVE",
"177 416 OFFCURVE",
"158.632 337 CURVE SMOOTH",
"140.139 250 LINE",
"390.477 261 LINE",
"408.97 348 LINE SMOOTH"
);
}
);
width = 421;
},
{
layerId = "EC4DDAD4-4840-4BAF-BE24-E50FF90D752F";
paths = (
{
closed = 1;
nodes = (
"168 114 OFFCURVE",
"184 90 OFFCURVE",
"220.13 90 CURVE SMOOTH",
"256.13 90 OFFCURVE",
"308.431 108.667 OFFCURVE",
"355.632 130 CURVE",
"375.439 35 LINE",
"322.538 5.667 OFFCURVE",
"255.237 -13 OFFCURVE",
"195.237 -13 CURVE SMOOTH",
"101 -13 OFFCURVE",
"40 33 OFFCURVE",
"61.483 134 CURVE SMOOTH",
"105.057 339 LINE SMOOTH",
"128 448 OFFCURVE",
"213 509 OFFCURVE",
"321 509 CURVE SMOOTH",
"428 509 OFFCURVE",
"489 452 OFFCURVE",
"465.694 342 CURVE SMOOTH",
"432.536 186 LINE",
"180.772 173 LINE",
"175.458 148 LINE SMOOTH"
);
},
{
closed = 1;
nodes = (
"357 354 OFFCURVE",
"361 407 OFFCURVE",
"301.873 404 CURVE SMOOTH",
"240 401 OFFCURVE",
"223 368 OFFCURVE",
"210.53 313 CURVE SMOOTH",
"202.24 274 LINE",
"342.153 283 LINE",
"348.318 312 LINE SMOOTH"
);
}
);
width = 425;
},
{
layerId = "350CE105-9128-4F96-9C2D-77D2DB4D6663";
paths = (
{
closed = 1;
nodes = (
"57 36 OFFCURVE",
"116 7 OFFCURVE",
"203.488 7 CURVE SMOOTH",
"258 7 OFFCURVE",
"302.918 20 OFFCURVE",
"367.053 52 CURVE",
"371.439 35 LINE",
"315.588 4.333 OFFCURVE",
"257.449 -12 OFFCURVE",
"201.449 -12 CURVE SMOOTH",
"105 -12 OFFCURVE",
"35 24 OFFCURVE",
"58.27 133 CURVE SMOOTH",
"101.844 338 LINE SMOOTH",
"125 447 OFFCURVE",
"200 508 OFFCURVE",
"321.979 508 CURVE SMOOTH",
"428 508 OFFCURVE",
"486 451 OFFCURVE",
"462.482 341 CURVE SMOOTH",
"442.289 246 LINE",
"97.675 229 LINE",
"77.058 132 LINE SMOOTH"
);
},
{
closed = 1;
nodes = (
"466 448 OFFCURVE",
"410 491 OFFCURVE",
"314 491 CURVE SMOOTH",
"213 491 OFFCURVE",
"143 435 OFFCURVE",
"122 340 CURVE SMOOTH",
"102 248 LINE",
"426 264 LINE",
"443 342 LINE SMOOTH"
);
}
);
width = 419;
}
);
leftKerningGroup = e;
rightKerningGroup = e;
unicode = 0065;
},
{
glyphname = f;
lastChange = "2019-02-08 07:35:54 +0000";
layers = (
{
layerId = master01;
paths = (
{
closed = 1;
nodes = (
"204.667 657.333 OFFCURVE",
"196 658 OFFCURVE",
"188 658 CURVE SMOOTH",
"127.35 658 OFFCURVE",
"95 620.883 OFFCURVE",
"95 548 CURVE SMOOTH",
"95 498 LINE",
"209 498 LINE",
"186 446 LINE",
"95 446 LINE",
"95 0 LINE",
"39 0 LINE",
"39 548 LINE SMOOTH",
"39 673.793 OFFCURVE",
"122.098 709.967 OFFCURVE",
"187 708 CURVE",
"200.333 708 OFFCURVE",
"212.333 707.667 OFFCURVE",
"223 705 CURVE",
"214 656 LINE"
);
}
);
width = 248;
},
{
layerId = "9D15C82E-7F80-48F0-B3D1-43822CDE4CEB";
paths = (
{
closed = 1;
nodes = (
"209.667 689.667 OFFCURVE",
"202.333 691 OFFCURVE",
"193 691 CURVE",
"131.127 692.996 OFFCURVE",
"59 662.437 OFFCURVE",
"59 548 CURVE SMOOTH",
"59 498 LINE",
"209 498 LINE",
"202 482 LINE",
"59 482 LINE",
"59 0 LINE",
"39 0 LINE",
"39 548 LINE SMOOTH",
"39 670.417 OFFCURVE",
"117.583 708 OFFCURVE",
"187 708 CURVE SMOOTH",
"199 708 OFFCURVE",
"212.333 707.667 OFFCURVE",
"223 705 CURVE",
"219 687 LINE"
);
}
);
width = 246;
},
{
layerId = "0D2E68F6-AD65-4FDC-99B3-7B414CE95F5B";
paths = (
{
closed = 1;
nodes = (
"220.333 608.667 OFFCURVE",
"205.333 612 OFFCURVE",
"192 612 CURVE SMOOTH",
"166.45 612 OFFCURVE",
"153 594 OFFCURVE",
"153 558 CURVE SMOOTH",
"153 499 LINE",
"240 499 LINE",
"216 396 LINE",
"153 396 LINE",
"153 0 LINE",
"40 0 LINE",
"40 548 LINE SMOOTH",
"40 659.817 OFFCURVE",
"107 711 OFFCURVE",
"187 711 CURVE SMOOTH",
"205.667 711 OFFCURVE",
"230.333 708.667 OFFCURVE",
"249 706 CURVE",
"231 606 LINE"
);
}
);
width = 278;
},
{
layerId = "BAA7A442-529C-4232-9150-0627B90683AA";
paths = (
{
closed = 1;
nodes = (
"344.387 657.333 OFFCURVE",
"335.862 658 OFFCURVE",
"327.862 658 CURVE SMOOTH",
"267.166 658 OFFCURVE",
"226.967 620.854 OFFCURVE",
"211.481 548 CURVE SMOOTH",
"200.853 498 LINE",
"314.853 498 LINE",
"280.8 446 LINE",
"189.8 446 LINE",
"95 0 LINE",
"39 0 LINE",
"155.481 548 LINE SMOOTH",
"182.195 673.68 OFFCURVE",
"272.923 709.969 OFFCURVE",
"337.49 708 CURVE",
"350.823 708 OFFCURVE",
"362.753 707.667 OFFCURVE",
"372.852 705 CURVE",
"353.437 656 LINE"
);
}
);
width = 248;
},
{
layerId = "EC4DDAD4-4840-4BAF-BE24-E50FF90D752F";
paths = (
{
closed = 1;
nodes = (
"349.709 608.667 OFFCURVE",
"335.418 612 OFFCURVE",
"322.085 612 CURVE SMOOTH",
"296.531 612 OFFCURVE",
"279.263 594.019 OFFCURVE",
"271.607 558 CURVE SMOOTH",
"259.066 499 LINE",
"346.066 499 LINE",
"300.172 396 LINE",
"237.172 396 LINE",
"153 0 LINE",
"40 0 LINE",
"156.481 548 LINE SMOOTH",
"180.229 659.727 OFFCURVE",
"258.117 711 OFFCURVE",
"338.128 711 CURVE SMOOTH",
"356.794 711 OFFCURVE",
"380.965 708.667 OFFCURVE",
"399.065 706 CURVE",
"359.809 606 LINE"
);
}
);
width = 278;
},
{
layerId = "350CE105-9128-4F96-9C2D-77D2DB4D6663";
paths = (
{
closed = 1;
nodes = (
"356.26 689.667 OFFCURVE",
"349.21 691 OFFCURVE",
"339.877 691 CURVE",
"278.377 692.998 OFFCURVE",
"199.778 662.308 OFFCURVE",
"175.481 548 CURVE SMOOTH",
"164.853 498 LINE",
"314.853 498 LINE",
"304.452 482 LINE",
"161.452 482 LINE",
"59 0 LINE",
"39 0 LINE",
"155.481 548 LINE SMOOTH",
"181.477 670.302 OFFCURVE",
"268.029 708 OFFCURVE",
"337.49 708 CURVE SMOOTH",
"349.49 708 OFFCURVE",
"362.753 707.667 OFFCURVE",
"372.852 705 CURVE",
"365.026 687 LINE"
);
}
);
width = 246;
}
);
leftKerningGroup = f;
rightKerningGroup = f;
unicode = 0066;
},
{
glyphname = g;
lastChange = "2019-02-08 07:35:54 +0000";
layers = (
{
layerId = master01;
paths = (
{
closed = 1;
nodes = (
"400 -144 OFFCURVE",
"368 -186 OFFCURVE",
"292 -210 CURVE",
"276 -167 LINE",
"320.123 -148.95 OFFCURVE",
"343 -116.174 OFFCURVE",
"343 -63 CURVE SMOOTH",
"343 61 LINE",
"320.545 20.173 OFFCURVE",
"261.764 -12 OFFCURVE",
"202 -12 CURVE SMOOTH",
"90 -12 OFFCURVE",
"31 53.667 OFFCURVE",
"31 175 CURVE SMOOTH",
"31 345 LINE SMOOTH",
"31 450.333 OFFCURVE",
"91.667 513.333 OFFCURVE",
"201 508 CURVE SMOOTH",
"249.576 505.976 OFFCURVE",
"298.784 487.177 OFFCURVE",
"343 451 CURVE",
"343 498 LINE",
"400 498 LINE",
"400 -64 LINE SMOOTH"
);
},
{
closed = 1;
nodes = (
"315.747 432.879 OFFCURVE",
"255.356 454.149 OFFCURVE",
"213 458 CURVE SMOOTH",
"151.064 463.994 OFFCURVE",
"87 432.088 OFFCURVE",
"87 342 CURVE SMOOTH",
"87 166 LINE SMOOTH",
"87 82 OFFCURVE",
"129 40 OFFCURVE",
"205 40 CURVE SMOOTH",
"281.25 40 OFFCURVE",
"343 88.383 OFFCURVE",
"343 173 CURVE SMOOTH",
"343 392 LINE"
);
}
);
width = 440;
},
{
layerId = "9D15C82E-7F80-48F0-B3D1-43822CDE4CEB";
paths = (
{
closed = 1;
nodes = (
"398 -144 OFFCURVE",
"366 -186 OFFCURVE",
"290 -210 CURVE",
"284 -193 LINE",
"315.454 -179.239 OFFCURVE",
"378 -163.375 OFFCURVE",
"378 -63 CURVE SMOOTH",
"378 80 LINE",
"356.154 22.405 OFFCURVE",
"262.894 -12 OFFCURVE",
"203 -12 CURVE SMOOTH",
"92.333 -12 OFFCURVE",
"29 53.667 OFFCURVE",
"29 175 CURVE SMOOTH",
"29 344 LINE SMOOTH",
"29 450.667 OFFCURVE",
"94.982 508 OFFCURVE",
"204 508 CURVE SMOOTH",
"251.472 508 OFFCURVE",
"328 489 OFFCURVE",
"378 451 CURVE",
"378 498 LINE",
"398 498 LINE",
"398 -64 LINE SMOOTH"
);
},
{
closed = 1;
nodes = (
"336.233 469.756 OFFCURVE",
"245 491 OFFCURVE",
"188 488 CURVE SMOOTH",
"117 485 OFFCURVE",
"49 450.796 OFFCURVE",
"49 346 CURVE SMOOTH",
"49 168 LINE SMOOTH",
"49 66.667 OFFCURVE",
"103 13 OFFCURVE",
"188 8 CURVE SMOOTH",
"274 3 OFFCURVE",
"380.667 51.167 OFFCURVE",
"378 147 CURVE",
"378 426 LINE"
);
}
);
width = 437;
},
{
layerId = "0D2E68F6-AD65-4FDC-99B3-7B414CE95F5B";
paths = (
{
closed = 1;
nodes = (
"402 -169.333 OFFCURVE",
"340.667 -210 OFFCURVE",
"246 -210 CURVE",
"219 -124 LINE",
"251.917 -124 OFFCURVE",
"292 -106.183 OFFCURVE",
"292 -53 CURVE SMOOTH",
"292 12 LINE",
"269.598 -2.256 OFFCURVE",
"234.921 -12 OFFCURVE",
"202 -12 CURVE SMOOTH",
"91.333 -12 OFFCURVE",
"32 53.333 OFFCURVE",
"32 176 CURVE SMOOTH",
"32 345 LINE SMOOTH",
"32 446.333 OFFCURVE",
"87.333 509 OFFCURVE",
"190 509 CURVE SMOOTH",
"227.489 509 OFFCURVE",
"262.077 498.944 OFFCURVE",
"292 477 CURVE",
"292 499 LINE",
"402 499 LINE",
"402 -64 LINE SMOOTH"
);
},
{
closed = 1;
nodes = (
"292.917 385 OFFCURVE",
"249 410 OFFCURVE",
"216 410 CURVE SMOOTH",
"178 410 OFFCURVE",
"142 393.317 OFFCURVE",
"142 337 CURVE SMOOTH",
"142 159 LINE SMOOTH",
"142 120.333 OFFCURVE",
"164 86 OFFCURVE",
"211 88 CURVE SMOOTH",
"266 90 OFFCURVE",
"292 117.163 OFFCURVE",
"292 139 CURVE SMOOTH",
"292 386 LINE"
);
}
);
width = 442;
},
{
layerId = "BAA7A442-529C-4232-9150-0627B90683AA";
paths = (
{
closed = 1;
nodes = (
"369.386 -144 OFFCURVE",
"328.456 -186 OFFCURVE",
"247.354 -210 CURVE",
"240.496 -167 LINE",
"288.457 -148.95 OFFCURVE",
"318.301 -116.174 OFFCURVE",
"329.606 -63 CURVE SMOOTH",
"355.969 61 LINE",
"324.834 20.173 OFFCURVE",
"259.213 -12 OFFCURVE",
"199.449 -12 CURVE SMOOTH",
"87.449 -12 OFFCURVE",
"42.41 53.667 OFFCURVE",
"68.205 175 CURVE SMOOTH",
"104.347 345 LINE SMOOTH",
"126.741 450.333 OFFCURVE",
"200.801 513.333 OFFCURVE",
"309.001 508 CURVE SMOOTH",
"357.146 505.976 OFFCURVE",
"402.357 487.177 OFFCURVE",
"438.883 451 CURVE",
"448.875 498 LINE",
"505.875 498 LINE",
"386.394 -64 LINE SMOOTH"
);
},
{
closed = 1;
nodes = (
"407.777 432.879 OFFCURVE",
"351.908 454.149 OFFCURVE",
"310.371 458 CURVE SMOOTH",
"249.709 463.994 OFFCURVE",
"178.862 432.088 OFFCURVE",
"159.709 342 CURVE SMOOTH",
"122.292 166 LINE SMOOTH",
"104.433 82 OFFCURVE",
"137.504 40 OFFCURVE",
"213.504 40 CURVE SMOOTH",
"289.754 40 OFFCURVE",
"361.79 88.383 OFFCURVE",
"379.78 173 CURVE SMOOTH",
"426.339 392 LINE"
);
}
);
width = 440;
},
{
layerId = "EC4DDAD4-4840-4BAF-BE24-E50FF90D752F";
paths = (
{
closed = 1;
nodes = (
"366 -169.333 OFFCURVE",
"296.021 -210 OFFCURVE",
"201.354 -210 CURVE",
"192.638 -124 LINE",
"225.554 -124 OFFCURVE",
"269.425 -106.183 OFFCURVE",
"280.732 -53 CURVE SMOOTH",
"294.551 12 LINE",
"269.119 -2.256 OFFCURVE",
"232.37 -12 OFFCURVE",
"199.449 -12 CURVE SMOOTH",
"88.782 -12 OFFCURVE",
"43.339 53.333 OFFCURVE",
"69.418 176 CURVE SMOOTH",
"105.347 345 LINE SMOOTH",
"126.89 446.333 OFFCURVE",
"195.547 509 OFFCURVE",
"298.213 509 CURVE SMOOTH",
"335.702 509 OFFCURVE",
"368.152 498.944 OFFCURVE",
"393.41 477 CURVE",
"398.087 499 LINE",
"508.087 499 LINE",
"388.394 -64 LINE SMOOTH"
);
},
{
closed = 1;
nodes = (
"374.768 385 OFFCURVE",
"336.166 410 OFFCURVE",
"303.166 410 CURVE SMOOTH",
"265.166 410 OFFCURVE",
"225.619 393.317 OFFCURVE",
"213.646 337 CURVE SMOOTH",
"175.803 159 LINE SMOOTH",
"167.583 120.333 OFFCURVE",
"182.284 86 OFFCURVE",
"229.709 88 CURVE SMOOTH",
"285.134 90 OFFCURVE",
"316.909 117.163 OFFCURVE",
"321.551 139 CURVE SMOOTH",
"374.064 386 LINE"
);
}
);
width = 442;
},
{
layerId = "350CE105-9128-4F96-9C2D-77D2DB4D6663";
paths = (
{
closed = 1;
nodes = (
"367.386 -144 OFFCURVE",
"326.456 -186 OFFCURVE",
"245.354 -210 CURVE",
"242.968 -193 LINE",
"277.347 -179.239 OFFCURVE",
"343.266 -163.375 OFFCURVE",
"364.606 -63 CURVE SMOOTH",
"395.008 80 LINE",
"360.917 22.405 OFFCURVE",
"260.343 -12 OFFCURVE",
"200.449 -12 CURVE SMOOTH",
"89.782 -12 OFFCURVE",
"40.41 53.667 OFFCURVE",
"66.205 175 CURVE SMOOTH",
"102.134 344 LINE SMOOTH",
"124.812 450.667 OFFCURVE",
"203.801 513.333 OFFCURVE",
"312.001 508 CURVE SMOOTH",
"359.052 506.022 OFFCURVE",
"431.961 489 OFFCURVE",
"473.883 451 CURVE",
"483.875 498 LINE",
"503.875 498 LINE",
"384.394 -64 LINE SMOOTH"
);
},
{
closed = 1;
nodes = (
"436.103 469.756 OFFCURVE",
"349.387 491 OFFCURVE",
"291.749 488 CURVE SMOOTH",
"220.111 485 OFFCURVE",
"144.839 450.796 OFFCURVE",
"122.56 346 CURVE SMOOTH",
"84.717 168 LINE SMOOTH",
"63.173 66.667 OFFCURVE",
"105.764 13 OFFCURVE",
"189.701 8 CURVE SMOOTH",
"274.638 3 OFFCURVE",
"391.545 51.167 OFFCURVE",
"409.252 147 CURVE",
"468.568 426 LINE"
);
}
);
width = 437;
}
);
leftKerningGroup = g;
rightKerningGroup = g;
unicode = 0067;
},
{
glyphname = h;
lastChange = "2019-02-08 07:35:54 +0000";
layers = (
{
layerId = master01;
paths = (
{
closed = 1;
nodes = (
"135.667 491.667 OFFCURVE",
"186.667 508 OFFCURVE",
"236 508 CURVE SMOOTH",
"346.251 508 OFFCURVE",
"410 449.892 OFFCURVE",
"410 345 CURVE SMOOTH",
"410 0 LINE",
"354 0 LINE",
"354 342 LINE SMOOTH",
"354 432.833 OFFCURVE",
"288.5 458 OFFCURVE",
"225 458 CURVE SMOOTH",
"179.667 458 OFFCURVE",
"138.333 446.667 OFFCURVE",
"97 424 CURVE",
"97 0 LINE",
"41 0 LINE",
"41 698 LINE",
"97 698 LINE",
"97 465 LINE"
);
}
);
width = 443;
},
{
layerId = "9D15C82E-7F80-48F0-B3D1-43822CDE4CEB";
paths = (
{
closed = 1;
nodes = (
"93 485.667 OFFCURVE",
"154 505.333 OFFCURVE",
"206 508 CURVE SMOOTH",
"292.797 513.26 OFFCURVE",
"410 501.549 OFFCURVE",
"410 345 CURVE SMOOTH",
"410 0 LINE",
"391 0 LINE",
"391 346 LINE SMOOTH",
"391 459.455 OFFCURVE",
"326.897 498.994 OFFCURVE",
"219 493 CURVE SMOOTH",
"161.667 490.333 OFFCURVE",
"97 471.667 OFFCURVE",
"61 453 CURVE",
"61 0 LINE",
"41 0 LINE",
"41 698 LINE",
"61 698 LINE",
"61 471 LINE"
);
}
);
width = 442;
},
{
layerId = "0D2E68F6-AD65-4FDC-99B3-7B414CE95F5B";
paths = (
{
closed = 1;
nodes = (
"167.333 488 OFFCURVE",
"208.667 509 OFFCURVE",
"250 509 CURVE SMOOTH",
"328.9 509 OFFCURVE",
"411 473.312 OFFCURVE",
"411 345 CURVE SMOOTH",
"411 0 LINE",
"302 0 LINE",
"302 343 LINE SMOOTH",
"302 381.15 OFFCURVE",
"272.6 409 OFFCURVE",
"230 409 CURVE SMOOTH",
"207.333 409 OFFCURVE",
"182 402 OFFCURVE",
"150 386 CURVE",
"150 0 LINE",
"41 0 LINE",
"41 698 LINE",
"150 698 LINE",
"150 476 LINE"
);
}
);
width = 445;
},
{
layerId = "BAA7A442-529C-4232-9150-0627B90683AA";
paths = (
{
closed = 1;
nodes = (
"240.174 491.667 OFFCURVE",
"294.645 508 OFFCURVE",
"343.979 508 CURVE SMOOTH",
"454.298 508 OFFCURVE",
"505.639 449.946 OFFCURVE",
"483.332 345 CURVE SMOOTH",
"410 0 LINE",
"354 0 LINE",
"426.694 342 LINE SMOOTH",
"446.023 432.933 OFFCURVE",
"385.802 458 OFFCURVE",
"322.351 458 CURVE SMOOTH",
"277.018 458 OFFCURVE",
"233.275 446.667 OFFCURVE",
"187.124 424 CURVE",
"97 0 LINE",
"41 0 LINE",
"189.364 698 LINE",
"245.364 698 LINE",
"195.839 465 LINE"
);
}
);
width = 443;
},
{
layerId = "EC4DDAD4-4840-4BAF-BE24-E50FF90D752F";
paths = (
{
closed = 1;
nodes = (
"271.061 488 OFFCURVE",
"316.858 509 OFFCURVE",
"358.191 509 CURVE SMOOTH",
"436.972 509 OFFCURVE",
"511.61 473.331 OFFCURVE",
"484.332 345 CURVE SMOOTH",
"411 0 LINE",
"302 0 LINE",
"374.907 343 LINE SMOOTH",
"383.027 381.2 OFFCURVE",
"359.565 409 OFFCURVE",
"316.936 409 CURVE SMOOTH",
"294.269 409 OFFCURVE",
"267.448 402 OFFCURVE",
"232.047 386 CURVE",
"150 0 LINE",
"41 0 LINE",
"189.364 698 LINE",
"298.364 698 LINE",
"251.177 476 LINE"
);
}
);
width = 445;
},
{
layerId = "350CE105-9128-4F96-9C2D-77D2DB4D6663";
paths = (
{
closed = 1;
nodes = (
"207.469 490.36 OFFCURVE",
"263.835 505.456 OFFCURVE",
"313.979 508 CURVE SMOOTH",
"401.793 513.254 OFFCURVE",
"516.619 501.602 OFFCURVE",
"483.332 345 CURVE SMOOTH",
"410 0 LINE",
"391 0 LINE",
"464.545 346 LINE SMOOTH",
"488.671 459.506 OFFCURVE",
"432.875 498.99 OFFCURVE",
"323.79 493 CURVE SMOOTH",
"265.89 490.333 OFFCURVE",
"197.256 471.667 OFFCURVE",
"157.288 453 CURVE",
"61 0 LINE",
"41 0 LINE",
"189.364 698 LINE",
"209.364 698 LINE",
"161.114 471 LINE"
);
}
);
width = 442;
}
);
leftKerningGroup = h;
rightKerningGroup = h;
unicode = 0068;
},
{
glyphname = hbar;
lastChange = "2019-02-08 07:35:54 +0000";
layers = (
{
layerId = master01;
paths = (
{
closed = 1;
nodes = (
"26 562 LINE",
"26 615 LINE",
"261 615 LINE",
"261 562 LINE"
);
},
{
closed = 1;
nodes = (
"165.667 491.667 OFFCURVE",
"216.667 508 OFFCURVE",
"266 508 CURVE SMOOTH",
"376.251 508 OFFCURVE",
"440 449.892 OFFCURVE",
"440 345 CURVE SMOOTH",
"440 0 LINE",
"384 0 LINE",
"384 342 LINE SMOOTH",
"384 432.833 OFFCURVE",
"318.5 458 OFFCURVE",
"255 458 CURVE SMOOTH",
"209.667 458 OFFCURVE",
"168.333 446.667 OFFCURVE",
"127 424 CURVE",
"127 0 LINE",
"71 0 LINE",
"71 698 LINE",
"127 698 LINE",
"127 465 LINE"
);
}
);
width = 471;
},
{
layerId = "9D15C82E-7F80-48F0-B3D1-43822CDE4CEB";
paths = (
{
closed = 1;
nodes = (
"24 595 LINE",
"24 615 LINE",
"259 615 LINE",
"259 595 LINE"
);
},
{
closed = 1;
nodes = (
"119 485.667 OFFCURVE",
"180 505.333 OFFCURVE",
"232 508 CURVE SMOOTH",
"318.797 513.26 OFFCURVE",
"436 501.549 OFFCURVE",
"436 345 CURVE SMOOTH",
"436 0 LINE",
"417 0 LINE",
"417 346 LINE SMOOTH",
"417 459.455 OFFCURVE",
"352.897 498.994 OFFCURVE",
"245 493 CURVE SMOOTH",
"187.667 490.333 OFFCURVE",
"123 471.667 OFFCURVE",
"87 453 CURVE",
"87 0 LINE",
"67 0 LINE",
"67 698 LINE",
"87 698 LINE",
"87 471 LINE"
);
}
);
width = 468;
},
{
layerId = "0D2E68F6-AD65-4FDC-99B3-7B414CE95F5B";
paths = (
{
closed = 1;
nodes = (
"29 548 LINE",
"29 639 LINE",
"264 639 LINE",
"264 548 LINE"
);
},
{
closed = 1;
nodes = (
"197.333 488 OFFCURVE",
"238.667 509 OFFCURVE",
"280 509 CURVE SMOOTH",
"358.9 509 OFFCURVE",
"441 473.312 OFFCURVE",
"441 345 CURVE SMOOTH",
"441 0 LINE",
"332 0 LINE",
"332 343 LINE SMOOTH",
"332 381.15 OFFCURVE",
"302.6 409 OFFCURVE",
"260 409 CURVE SMOOTH",
"237.333 409 OFFCURVE",
"212 402 OFFCURVE",
"180 386 CURVE",
"180 0 LINE",
"71 0 LINE",
"71 698 LINE",
"180 698 LINE",
"180 476 LINE"
);
}
);
width = 476;
},
{
layerId = "BAA7A442-529C-4232-9150-0627B90683AA";
paths = (
{
closed = 1;
nodes = (
"145.457 562 LINE",
"156.722 615 LINE",
"391.722 615 LINE",
"380.457 562 LINE"
);
},
{
closed = 1;
nodes = (
"270.174 491.667 OFFCURVE",
"324.645 508 OFFCURVE",
"373.979 508 CURVE SMOOTH",
"484.298 508 OFFCURVE",
"535.639 449.946 OFFCURVE",
"513.332 345 CURVE SMOOTH",
"440 0 LINE",
"384 0 LINE",
"456.694 342 LINE SMOOTH",
"476.023 432.933 OFFCURVE",
"415.802 458 OFFCURVE",
"352.351 458 CURVE SMOOTH",
"307.018 458 OFFCURVE",
"263.275 446.667 OFFCURVE",
"217.124 424 CURVE",
"127 0 LINE",
"71 0 LINE",
"219.364 698 LINE",
"275.364 698 LINE",
"225.839 465 LINE"
);
}
);
width = 471;
},
{
layerId = "EC4DDAD4-4840-4BAF-BE24-E50FF90D752F";
paths = (
{
closed = 1;
nodes = (
"145.481 548 LINE",
"164.824 639 LINE",
"399.824 639 LINE",
"380.481 548 LINE"
);
},
{
closed = 1;
nodes = (
"301.061 488 OFFCURVE",
"346.858 509 OFFCURVE",
"388.191 509 CURVE SMOOTH",
"466.972 509 OFFCURVE",
"541.61 473.331 OFFCURVE",
"514.332 345 CURVE SMOOTH",
"441 0 LINE",
"332 0 LINE",
"404.907 343 LINE SMOOTH",
"413.027 381.2 OFFCURVE",
"389.565 409 OFFCURVE",
"346.936 409 CURVE SMOOTH",
"324.269 409 OFFCURVE",
"297.448 402 OFFCURVE",
"262.047 386 CURVE",
"180 0 LINE",
"71 0 LINE",
"219.364 698 LINE",
"328.364 698 LINE",
"281.177 476 LINE"
);
}
);
width = 476;
},
{
layerId = "350CE105-9128-4F96-9C2D-77D2DB4D6663";
paths = (
{
closed = 1;
nodes = (
"150.471 595 LINE",
"154.722 615 LINE",
"389.722 615 LINE",
"385.471 595 LINE"
);
},
{
closed = 1;
nodes = (
"233.469 490.36 OFFCURVE",
"289.835 505.456 OFFCURVE",
"339.979 508 CURVE SMOOTH",
"427.793 513.254 OFFCURVE",
"542.619 501.602 OFFCURVE",
"509.332 345 CURVE SMOOTH",
"436 0 LINE",
"417 0 LINE",
"490.545 346 LINE SMOOTH",
"514.671 459.506 OFFCURVE",
"458.875 498.99 OFFCURVE",
"349.79 493 CURVE SMOOTH",
"291.89 490.333 OFFCURVE",
"223.256 471.667 OFFCURVE",
"183.288 453 CURVE",
"87 0 LINE",
"67 0 LINE",
"215.364 698 LINE",
"235.364 698 LINE",
"187.114 471 LINE"
);
}
);
width = 468;
}
);
leftKerningGroup = h;
rightKerningGroup = h;
unicode = 0127;
},
{
glyphname = i;
lastChange = "2019-02-08 07:35:54 +0000";
layers = (
{
layerId = master01;
paths = (
{
closed = 1;
nodes = (
"38 499 LINE",
"94 499 LINE",
"94 0 LINE",
"38 0 LINE"
);
},
{
closed = 1;
nodes = (
"92.333 708 OFFCURVE",
"108 692.667 OFFCURVE",
"108 674 CURVE SMOOTH",
"108 656.667 OFFCURVE",
"92.333 641 OFFCURVE",
"75 641 CURVE SMOOTH",
"56.333 641 OFFCURVE",
"41 656.667 OFFCURVE",
"41 674 CURVE SMOOTH",
"41 692.667 OFFCURVE",
"56.333 708 OFFCURVE",
"75 708 CURVE SMOOTH"
);
}
);
width = 150;
},
{
layerId = "9D15C82E-7F80-48F0-B3D1-43822CDE4CEB";
paths = (
{
closed = 1;
nodes = (
"47 499 LINE",
"66 499 LINE",
"66 0 LINE",
"47 0 LINE"
);
},
{
closed = 1;
nodes = (
"66.333 708 OFFCURVE",
"74 701.667 OFFCURVE",
"74 691 CURVE SMOOTH",
"74 681.667 OFFCURVE",
"66.333 674 OFFCURVE",
"57 674 CURVE SMOOTH",
"47.667 674 OFFCURVE",
"40 681.667 OFFCURVE",
"40 691 CURVE SMOOTH",
"40 701.667 OFFCURVE",
"47.667 708 OFFCURVE",
"57 708 CURVE SMOOTH"
);
}
);
width = 116;
},
{
layerId = "0D2E68F6-AD65-4FDC-99B3-7B414CE95F5B";
paths = (
{
closed = 1;
nodes = (
"44 499 LINE",
"154 499 LINE",
"154 0 LINE",
"44 0 LINE"
);
},
{
closed = 1;
nodes = (
"132.333 708 OFFCURVE",
"159 683.333 OFFCURVE",
"159 650 CURVE SMOOTH",
"159 616.667 OFFCURVE",
"132.333 590 OFFCURVE",
"99 590 CURVE SMOOTH",
"65.667 590 OFFCURVE",
"40 616.667 OFFCURVE",
"40 650 CURVE SMOOTH",
"40 683.333 OFFCURVE",
"65.667 708 OFFCURVE",
"99 708 CURVE SMOOTH"
);
}
);
width = 200;
},
{
layerId = "BAA7A442-529C-4232-9150-0627B90683AA";
paths = (
{
closed = 1;
nodes = (
"144.066 499 LINE",
"200.066 499 LINE",
"94 0 LINE",
"38 0 LINE"
);
},
{
closed = 1;
nodes = (
"242.823 708 OFFCURVE",
"255.231 692.667 OFFCURVE",
"251.263 674 CURVE SMOOTH",
"247.579 656.667 OFFCURVE",
"228.582 641 OFFCURVE",
"211.249 641 CURVE SMOOTH",
"192.582 641 OFFCURVE",
"180.579 656.667 OFFCURVE",
"184.263 674 CURVE SMOOTH",
"188.231 692.667 OFFCURVE",
"206.823 708 OFFCURVE",
"225.49 708 CURVE SMOOTH"
);
}
);
width = 150;
},
{
layerId = "EC4DDAD4-4840-4BAF-BE24-E50FF90D752F";
paths = (
{
closed = 1;
nodes = (
"150.066 499 LINE",
"260.066 499 LINE",
"154 0 LINE",
"44 0 LINE"
);
},
{
closed = 1;
nodes = (
"282.823 708 OFFCURVE",
"304.247 683.333 OFFCURVE",
"297.162 650 CURVE SMOOTH",
"290.077 616.667 OFFCURVE",
"257.742 590 OFFCURVE",
"224.408 590 CURVE SMOOTH",
"191.075 590 OFFCURVE",
"171.077 616.667 OFFCURVE",
"178.162 650 CURVE SMOOTH",
"185.247 683.333 OFFCURVE",
"216.157 708 OFFCURVE",
"249.49 708 CURVE SMOOTH"
);
}
);
width = 200;
},
{
layerId = "350CE105-9128-4F96-9C2D-77D2DB4D6663";
paths = (
{
closed = 1;
nodes = (
"153.066 499 LINE",
"172.066 499 LINE",
"66 0 LINE",
"47 0 LINE"
);
},
{
closed = 1;
nodes = (
"216.823 708 OFFCURVE",
"223.144 701.667 OFFCURVE",
"220.877 691 CURVE SMOOTH",
"218.893 681.667 OFFCURVE",
"209.596 674 OFFCURVE",
"200.263 674 CURVE SMOOTH",
"190.93 674 OFFCURVE",
"184.893 681.667 OFFCURVE",
"186.877 691 CURVE SMOOTH",
"189.144 701.667 OFFCURVE",
"198.157 708 OFFCURVE",
"207.49 708 CURVE SMOOTH"
);
}
);
width = 116;
}
);
leftKerningGroup = i;
rightKerningGroup = i;
unicode = 0069;
},
{
glyphname = dotlessi;
lastChange = "2019-02-08 07:35:54 +0000";
layers = (
{
layerId = master01;
paths = (
{
closed = 1;
nodes = (
"38 499 LINE",
"94 499 LINE",
"94 0 LINE",
"38 0 LINE"
);
}
);
width = 134;
},
{
layerId = "9D15C82E-7F80-48F0-B3D1-43822CDE4CEB";
paths = (
{
closed = 1;
nodes = (
"38 499 LINE",
"56 499 LINE",
"56 0 LINE",
"38 0 LINE"
);
}
);
width = 95;
},
{
layerId = "0D2E68F6-AD65-4FDC-99B3-7B414CE95F5B";
paths = (
{
closed = 1;
nodes = (
"39 499 LINE",
"149 499 LINE",
"149 0 LINE",
"39 0 LINE"
);
}
);
width = 189;
},
{
layerId = "BAA7A442-529C-4232-9150-0627B90683AA";
paths = (
{
closed = 1;
nodes = (
"144.066 499 LINE",
"200.066 499 LINE",
"94 0 LINE",
"38 0 LINE"
);
}
);
width = 134;
},
{
layerId = "EC4DDAD4-4840-4BAF-BE24-E50FF90D752F";
paths = (
{
closed = 1;
nodes = (
"145.066 499 LINE",
"255.066 499 LINE",
"149 0 LINE",
"39 0 LINE"
);
}
);
width = 189;
},
{
layerId = "350CE105-9128-4F96-9C2D-77D2DB4D6663";
paths = (
{
closed = 1;
nodes = (
"144.066 499 LINE",
"162.066 499 LINE",
"56 0 LINE",
"38 0 LINE"
);
}
);
width = 95;
}
);
leftKerningGroup = iota;
rightKerningGroup = iota;
unicode = 0131;
},
{
glyphname = ij;
lastChange = "2019-02-08 07:35:54 +0000";
layers = (
{
layerId = master01;
paths = (
{
closed = 1;
nodes = (
"92.333 708 OFFCURVE",
"108 692.667 OFFCURVE",
"108 674 CURVE SMOOTH",
"108 656.667 OFFCURVE",
"92.333 641 OFFCURVE",
"75 641 CURVE SMOOTH",
"56.333 641 OFFCURVE",
"41 656.667 OFFCURVE",
"41 674 CURVE SMOOTH",
"41 692.667 OFFCURVE",
"56.333 708 OFFCURVE",
"75 708 CURVE SMOOTH"
);
},
{
closed = 1;
nodes = (
"418 656.667 OFFCURVE",
"402.667 641 OFFCURVE",
"384 641 CURVE SMOOTH",
"366.667 641 OFFCURVE",
"351 656.667 OFFCURVE",
"351 674 CURVE SMOOTH",
"351 692.667 OFFCURVE",
"366.667 707 OFFCURVE",
"384 707 CURVE SMOOTH",
"402.667 707 OFFCURVE",
"418 692.667 OFFCURVE",
"418 674 CURVE SMOOTH"
);
},
{
closed = 1;
nodes = (
"415 500 LINE",
"415 -62 LINE SMOOTH",
"415 -144 OFFCURVE",
"386 -183 OFFCURVE",
"310 -208 CURVE",
"294 -165 LINE",
"340 -147 OFFCURVE",
"359 -109 OFFCURVE",
"359 -61 CURVE SMOOTH",
"359 50 LINE",
"325.667 10 OFFCURVE",
"270.667 -9 OFFCURVE",
"220 -9 CURVE SMOOTH",
"109.749 -9 OFFCURVE",
"46 43.978 OFFCURVE",
"46 157 CURVE SMOOTH",
"46 499 LINE",
"102 499 LINE",
"102 161 LINE SMOOTH",
"102 68.6 OFFCURVE",
"170.083 44 OFFCURVE",
"232 44 CURVE SMOOTH",
"303.167 44 OFFCURVE",
"359 102.75 OFFCURVE",
"359 173 CURVE SMOOTH",
"359 500 LINE"
);
}
);
width = 465;
},
{
layerId = "9D15C82E-7F80-48F0-B3D1-43822CDE4CEB";
paths = (
{
closed = 1;
nodes = (
"66.333 708 OFFCURVE",
"74 701.667 OFFCURVE",
"74 691 CURVE SMOOTH",
"74 681.667 OFFCURVE",
"66.333 674 OFFCURVE",
"57 674 CURVE SMOOTH",
"47.667 674 OFFCURVE",
"40 681.667 OFFCURVE",
"40 691 CURVE SMOOTH",
"40 701.667 OFFCURVE",
"47.667 708 OFFCURVE",
"57 708 CURVE SMOOTH"
);
},
{
closed = 1;
nodes = (
"423 681.667 OFFCURVE",
"416.667 674 OFFCURVE",
"406 674 CURVE SMOOTH",
"396.667 674 OFFCURVE",
"390 681.667 OFFCURVE",
"390 691 CURVE SMOOTH",
"390 701.667 OFFCURVE",
"396.667 707 OFFCURVE",
"406 707 CURVE SMOOTH",
"416.667 707 OFFCURVE",
"423 701.667 OFFCURVE",
"423 691 CURVE SMOOTH"
);
},
{
closed = 1;
nodes = (
"415 499 LINE",
"415 -67 LINE SMOOTH",
"415 -151 OFFCURVE",
"386 -186 OFFCURVE",
"310 -212 CURVE",
"304 -195 LINE",
"370 -172 OFFCURVE",
"398 -142 OFFCURVE",
"398 -66 CURVE SMOOTH",
"398 99 LINE",
"373.791 32.744 OFFCURVE",
"309 -4 OFFCURVE",
"241 -8 CURVE SMOOTH",
"167 -12 OFFCURVE",
"46 0.306 OFFCURVE",
"46 157 CURVE SMOOTH",
"46 499 LINE",
"66 499 LINE",
"66 156 LINE SMOOTH",
"66 43.976 OFFCURVE",
"133 3 OFFCURVE",
"240 10 CURVE SMOOTH",
"336 17 OFFCURVE",
"398 88.358 OFFCURVE",
"398 169 CURVE SMOOTH",
"398 499 LINE"
);
}
);
width = 459;
},
{
layerId = "0D2E68F6-AD65-4FDC-99B3-7B414CE95F5B";
paths = (
{
closed = 1;
nodes = (
"130.333 708 OFFCURVE",
"157 683.333 OFFCURVE",
"157 650 CURVE SMOOTH",
"157 616.667 OFFCURVE",
"130.333 590 OFFCURVE",
"97 590 CURVE SMOOTH",
"63.667 590 OFFCURVE",
"38 616.667 OFFCURVE",
"38 650 CURVE SMOOTH",
"38 683.333 OFFCURVE",
"63.667 708 OFFCURVE",
"97 708 CURVE SMOOTH"
);
},
{
closed = 1;
nodes = (
"418 617 OFFCURVE",
"390.333 590 OFFCURVE",
"357 590 CURVE SMOOTH",
"323.667 590 OFFCURVE",
"298 617 OFFCURVE",
"298 649 CURVE SMOOTH",
"298 682.333 OFFCURVE",
"323.667 708 OFFCURVE",
"357 708 CURVE SMOOTH",
"390.333 708 OFFCURVE",
"418 682.333 OFFCURVE",
"418 649 CURVE SMOOTH"
);
},
{
closed = 1;
nodes = (
"413 501 LINE",
"413 -59 LINE SMOOTH",
"413 -154 OFFCURVE",
"358 -213 OFFCURVE",
"262 -213 CURVE",
"233 -124 LINE",
"274 -124 OFFCURVE",
"303 -87 OFFCURVE",
"303 -48 CURVE SMOOTH",
"303 28 LINE",
"289.667 13.333 OFFCURVE",
"245.667 -6 OFFCURVE",
"203 -6 CURVE SMOOTH",
"123.208 -6 OFFCURVE",
"43 29.688 OFFCURVE",
"43 158 CURVE SMOOTH",
"43 501 LINE",
"154 501 LINE",
"154 161 LINE SMOOTH",
"154 123.533 OFFCURVE",
"181.95 94 OFFCURVE",
"223 94 CURVE SMOOTH",
"268.683 94 OFFCURVE",
"303 130.333 OFFCURVE",
"303 176 CURVE SMOOTH",
"303 501 LINE"
);
}
);
width = 451;
},
{
layerId = "BAA7A442-529C-4232-9150-0627B90683AA";
paths = (
{
closed = 1;
nodes = (
"242.823 708 OFFCURVE",
"255.231 692.667 OFFCURVE",
"251.263 674 CURVE SMOOTH",
"247.579 656.667 OFFCURVE",
"228.582 641 OFFCURVE",
"211.249 641 CURVE SMOOTH",
"192.582 641 OFFCURVE",
"180.579 656.667 OFFCURVE",
"184.263 674 CURVE SMOOTH",
"188.231 692.667 OFFCURVE",
"206.823 708 OFFCURVE",
"225.49 708 CURVE SMOOTH"
);
},
{
closed = 1;
nodes = (
"557.579 656.667 OFFCURVE",
"538.915 641 OFFCURVE",
"520.249 641 CURVE SMOOTH",
"502.915 641 OFFCURVE",
"490.579 656.667 OFFCURVE",
"494.263 674 CURVE SMOOTH",
"498.231 692.667 OFFCURVE",
"516.944 707 OFFCURVE",
"534.277 707 CURVE SMOOTH",
"552.944 707 OFFCURVE",
"565.231 692.667 OFFCURVE",
"561.263 674 CURVE SMOOTH"
);
},
{
closed = 1;
nodes = (
"521.278 500 LINE",
"401.822 -62 LINE SMOOTH",
"384 -146 OFFCURVE",
"346 -183 OFFCURVE",
"265.788 -208 CURVE",
"258.928 -165 LINE",
"307 -147 OFFCURVE",
"335 -111 OFFCURVE",
"346.034 -61 CURVE SMOOTH",
"369.628 50 LINE",
"327.792 10 OFFCURVE",
"268.754 -9 OFFCURVE",
"218.087 -9 CURVE SMOOTH",
"107.817 -9 OFFCURVE",
"55.335 43.917 OFFCURVE",
"79.371 157 CURVE SMOOTH",
"152.066 499 LINE",
"208.066 499 LINE",
"136.222 161 LINE SMOOTH",
"116.553 68.465 OFFCURVE",
"179.516 44 OFFCURVE",
"241.353 44 CURVE SMOOTH",
"312.415 44 OFFCURVE",
"380.85 102.797 OFFCURVE",
"395.772 173 CURVE SMOOTH",
"465.278 500 LINE"
);
}
);
width = 465;
},
{
layerId = "EC4DDAD4-4840-4BAF-BE24-E50FF90D752F";
paths = (
{
closed = 1;
nodes = (
"282.823 708 OFFCURVE",
"304.247 683.333 OFFCURVE",
"297.162 650 CURVE SMOOTH",
"290.077 616.667 OFFCURVE",
"257.742 590 OFFCURVE",
"224.408 590 CURVE SMOOTH",
"191.075 590 OFFCURVE",
"171.077 616.667 OFFCURVE",
"178.162 650 CURVE SMOOTH",
"185.247 683.333 OFFCURVE",
"216.157 708 OFFCURVE",
"249.49 708 CURVE SMOOTH"
);
},
{
closed = 1;
nodes = (
"551.147 617 OFFCURVE",
"517.742 590 OFFCURVE",
"484.408 590 CURVE SMOOTH",
"451.075 590 OFFCURVE",
"431.147 617 OFFCURVE",
"437.949 649 CURVE SMOOTH",
"445.034 682.333 OFFCURVE",
"476.157 708 OFFCURVE",
"509.49 708 CURVE SMOOTH",
"542.823 708 OFFCURVE",
"565.034 682.333 OFFCURVE",
"557.949 649 CURVE SMOOTH"
);
},
{
closed = 1;
nodes = (
"519.491 501 LINE",
"400.459 -59 LINE SMOOTH",
"381 -152 OFFCURVE",
"314 -213 OFFCURVE",
"216.725 -213 CURVE",
"206.643 -124 LINE",
"248 -124 OFFCURVE",
"285 -87 OFFCURVE",
"292.797 -48 CURVE SMOOTH",
"308.952 28 LINE",
"292.501 13.333 OFFCURVE",
"244.391 -6 OFFCURVE",
"201.725 -6 CURVE SMOOTH",
"122.065 -6 OFFCURVE",
"49.29 29.593 OFFCURVE",
"76.584 158 CURVE SMOOTH",
"149.491 501 LINE",
"260.491 501 LINE",
"188.222 161 LINE SMOOTH",
"180.242 123.46 OFFCURVE",
"201.93 94 OFFCURVE",
"242.98 94 CURVE SMOOTH",
"288.627 94 OFFCURVE",
"330.71 130.364 OFFCURVE",
"340.41 176 CURVE SMOOTH",
"409.491 501 LINE"
);
}
);
width = 451;
},
{
layerId = "350CE105-9128-4F96-9C2D-77D2DB4D6663";
paths = (
{
closed = 1;
nodes = (
"216.823 708 OFFCURVE",
"223.144 701.667 OFFCURVE",
"220.877 691 CURVE SMOOTH",
"218.893 681.667 OFFCURVE",
"209.596 674 OFFCURVE",
"200.263 674 CURVE SMOOTH",
"190.93 674 OFFCURVE",
"184.893 681.667 OFFCURVE",
"186.877 691 CURVE SMOOTH",
"189.144 701.667 OFFCURVE",
"198.157 708 OFFCURVE",
"207.49 708 CURVE SMOOTH"
);
},
{
closed = 1;
nodes = (
"567.893 681.667 OFFCURVE",
"559.93 674 OFFCURVE",
"549.263 674 CURVE SMOOTH",
"539.93 674 OFFCURVE",
"534.893 681.667 OFFCURVE",
"536.877 691 CURVE SMOOTH",
"539.144 701.667 OFFCURVE",
"546.944 707 OFFCURVE",
"556.278 707 CURVE SMOOTH",
"566.944 707 OFFCURVE",
"572.144 701.667 OFFCURVE",
"569.877 691 CURVE SMOOTH"
);
},
{
closed = 1;
nodes = (
"521.066 499 LINE",
"400.759 -67 LINE SMOOTH",
"383 -153 OFFCURVE",
"345 -186 OFFCURVE",
"264.938 -212 CURVE",
"262.552 -195 LINE",
"332 -170 OFFCURVE",
"368 -143 OFFCURVE",
"383.971 -66 CURVE SMOOTH",
"419.043 99 LINE",
"382.195 35.242 OFFCURVE",
"312 -4 OFFCURVE",
"239.3 -8 CURVE SMOOTH",
"164 -12 OFFCURVE",
"46.037 0.175 OFFCURVE",
"79.371 157 CURVE SMOOTH",
"152.066 499 LINE",
"172.066 499 LINE",
"99.159 156 LINE SMOOTH",
"75.325 43.869 OFFCURVE",
"133 3 OFFCURVE",
"242.126 10 CURVE SMOOTH",
"339 17 OFFCURVE",
"416.798 88.438 OFFCURVE",
"433.922 169 CURVE SMOOTH",
"504.066 499 LINE"
);
}
);
width = 459;
}
);
unicode = 0133;
},
{
glyphname = j;
lastChange = "2019-02-08 07:35:54 +0000";
layers = (
{
layerId = master01;
paths = (
{
closed = 1;
nodes = (
"149 -108.333 OFFCURVE",
"139.667 -140.667 OFFCURVE",
"117 -166 CURVE SMOOTH",
"99.667 -184.667 OFFCURVE",
"76.333 -198.333 OFFCURVE",
"43 -209 CURVE",
"27 -166 LINE",
"48.333 -158 OFFCURVE",
"63.333 -145.667 OFFCURVE",
"74 -131 CURVE SMOOTH",
"87.333 -112.333 OFFCURVE",
"93 -90 OFFCURVE",
"93 -62 CURVE SMOOTH",
"93 447 LINE",
"29 447 LINE",
"29 499 LINE",
"149 499 LINE",
"149 -63 LINE SMOOTH"
);
},
{
closed = 1;
nodes = (
"157 656.667 OFFCURVE",
"141.667 641 OFFCURVE",
"123 641 CURVE SMOOTH",
"104.333 641 OFFCURVE",
"89 656.667 OFFCURVE",
"89 674 CURVE SMOOTH",
"89 692.667 OFFCURVE",
"104.333 707 OFFCURVE",
"123 707 CURVE SMOOTH",
"141.667 707 OFFCURVE",
"157 692.667 OFFCURVE",
"157 674 CURVE SMOOTH"
);
}
);
width = 199;
},
{
layerId = "9D15C82E-7F80-48F0-B3D1-43822CDE4CEB";
paths = (
{
closed = 1;
nodes = (
"131 -116 OFFCURVE",
"120 -149.667 OFFCURVE",
"96 -175 CURVE",
"78.667 -191 OFFCURVE",
"55.667 -203.667 OFFCURVE",
"25 -213 CURVE",
"19 -196 LINE",
"49.667 -184 OFFCURVE",
"59.333 -178.333 OFFCURVE",
"82 -161 CURVE",
"103.333 -142.333 OFFCURVE",
"114 -112.333 OFFCURVE",
"114 -67 CURVE SMOOTH",
"114 481 LINE",
"29 481 LINE",
"29 499 LINE",
"131 499 LINE",
"131 -68 LINE SMOOTH"
);
},
{
closed = 1;
nodes = (
"139 681.667 OFFCURVE",
"133.667 674 OFFCURVE",
"123 674 CURVE SMOOTH",
"113.667 674 OFFCURVE",
"106 681.667 OFFCURVE",
"106 691 CURVE SMOOTH",
"106 701.667 OFFCURVE",
"113.667 707 OFFCURVE",
"123 707 CURVE SMOOTH",
"133.667 707 OFFCURVE",
"139 701.667 OFFCURVE",
"139 691 CURVE SMOOTH"
);
}
);
width = 181;
},
{
layerId = "0D2E68F6-AD65-4FDC-99B3-7B414CE95F5B";
paths = (
{
closed = 1;
nodes = (
"211 -115.667 OFFCURVE",
"192.333 -150.333 OFFCURVE",
"163 -177 CURVE SMOOTH",
"135 -202.333 OFFCURVE",
"88.333 -215 OFFCURVE",
"59 -215 CURVE",
"29 -125 LINE",
"51.667 -119.667 OFFCURVE",
"66.667 -115.333 OFFCURVE",
"80 -102 CURVE SMOOTH",
"92 -91.333 OFFCURVE",
"101 -74 OFFCURVE",
"101 -50 CURVE SMOOTH",
"101 400 LINE",
"28 410 LINE",
"28 499 LINE",
"211 499 LINE",
"211 -61 LINE SMOOTH"
);
},
{
closed = 1;
nodes = (
"217 617 OFFCURVE",
"190.333 590 OFFCURVE",
"157 590 CURVE SMOOTH",
"123.667 590 OFFCURVE",
"97 617 OFFCURVE",
"97 649 CURVE SMOOTH",
"97 682.333 OFFCURVE",
"123.667 708 OFFCURVE",
"157 708 CURVE SMOOTH",
"190.333 708 OFFCURVE",
"217 682.333 OFFCURVE",
"217 649 CURVE SMOOTH"
);
}
);
width = 258;
},
{
layerId = "BAA7A442-529C-4232-9150-0627B90683AA";
paths = (
{
closed = 1;
nodes = (
"125.973 -108.333 OFFCURVE",
"109.767 -140.667 OFFCURVE",
"81.716 -166 CURVE SMOOTH",
"60.415 -184.667 OFFCURVE",
"34.176 -198.333 OFFCURVE",
"-1.424 -209 CURVE",
"-8.284 -166 LINE",
"14.749 -158 OFFCURVE",
"32.371 -145.667 OFFCURVE",
"46.155 -131 CURVE SMOOTH",
"63.456 -112.333 OFFCURVE",
"73.87 -90 OFFCURVE",
"79.822 -62 CURVE SMOOTH",
"188.013 447 LINE",
"124.013 447 LINE",
"135.066 499 LINE",
"255.066 499 LINE",
"135.609 -63 LINE SMOOTH"
);
},
{
closed = 1;
nodes = (
"296.579 656.667 OFFCURVE",
"277.915 641 OFFCURVE",
"259.249 641 CURVE SMOOTH",
"240.582 641 OFFCURVE",
"228.579 656.667 OFFCURVE",
"232.263 674 CURVE SMOOTH",
"236.231 692.667 OFFCURVE",
"254.611 707 OFFCURVE",
"273.277 707 CURVE SMOOTH",
"291.944 707 OFFCURVE",
"304.231 692.667 OFFCURVE",
"300.263 674 CURVE SMOOTH"
);
}
);
width = 199;
},
{
layerId = "EC4DDAD4-4840-4BAF-BE24-E50FF90D752F";
paths = (
{
closed = 1;
nodes = (
"186.414 -115.667 OFFCURVE",
"160.379 -150.333 OFFCURVE",
"125.377 -177 CURVE SMOOTH",
"91.993 -202.333 OFFCURVE",
"42.634 -215 OFFCURVE",
"13.3 -215 CURVE",
"2.43 -125 LINE",
"26.231 -119.667 OFFCURVE",
"42.152 -115.333 OFFCURVE",
"58.319 -102 CURVE SMOOTH",
"72.587 -91.333 OFFCURVE",
"85.271 -74 OFFCURVE",
"90.372 -50 CURVE SMOOTH",
"186.023 400 LINE",
"115.148 410 LINE",
"134.066 499 LINE",
"317.066 499 LINE",
"198.034 -61 LINE SMOOTH"
);
},
{
closed = 1;
nodes = (
"348.147 617 OFFCURVE",
"315.742 590 OFFCURVE",
"282.408 590 CURVE SMOOTH",
"249.075 590 OFFCURVE",
"228.147 617 OFFCURVE",
"234.949 649 CURVE SMOOTH",
"242.034 682.333 OFFCURVE",
"274.157 708 OFFCURVE",
"307.49 708 CURVE SMOOTH",
"340.823 708 OFFCURVE",
"362.034 682.333 OFFCURVE",
"354.949 649 CURVE SMOOTH"
);
}
);
width = 258;
},
{
layerId = "350CE105-9128-4F96-9C2D-77D2DB4D6663";
paths = (
{
closed = 1;
nodes = (
"106.343 -116 OFFCURVE",
"88.187 -149.667 OFFCURVE",
"58.803 -175 CURVE",
"38.068 -191 OFFCURVE",
"12.376 -203.667 OFFCURVE",
"-20.275 -213 CURVE",
"-22.661 -196 LINE",
"10.556 -184 OFFCURVE",
"21.427 -178.333 OFFCURVE",
"47.778 -161 CURVE",
"73.079 -142.333 OFFCURVE",
"90.123 -112.333 OFFCURVE",
"99.759 -67 CURVE SMOOTH",
"216.24 481 LINE",
"131.24 481 LINE",
"135.066 499 LINE",
"237.066 499 LINE",
"116.546 -68 LINE SMOOTH"
);
},
{
closed = 1;
nodes = (
"283.893 681.667 OFFCURVE",
"276.93 674 OFFCURVE",
"266.263 674 CURVE SMOOTH",
"256.93 674 OFFCURVE",
"250.893 681.667 OFFCURVE",
"252.877 691 CURVE SMOOTH",
"255.144 701.667 OFFCURVE",
"263.944 707 OFFCURVE",
"273.278 707 CURVE SMOOTH",
"283.944 707 OFFCURVE",
"288.144 701.667 OFFCURVE",
"285.877 691 CURVE SMOOTH"
);
}
);
width = 181;
}
);
leftKerningGroup = j;
rightKerningGroup = j;
unicode = 006A;
},
{
glyphname = dotlessj;
lastChange = "2019-02-08 07:35:54 +0000";
layers = (
{
layerId = master01;
paths = (
{
closed = 1;
nodes = (
"147 -144 OFFCURVE",
"118 -185 OFFCURVE",
"42 -209 CURVE",
"26 -166 LINE",
"72 -148 OFFCURVE",
"91 -110 OFFCURVE",
"91 -62 CURVE SMOOTH",
"91 447 LINE",
"28 447 LINE",
"28 499 LINE",
"147 499 LINE",
"147 -63 LINE SMOOTH"
);
}
);
width = 187;
},
{
layerId = "9D15C82E-7F80-48F0-B3D1-43822CDE4CEB";
paths = (
{
closed = 1;
nodes = (
"130 -149 OFFCURVE",
"100 -190 OFFCURVE",
"24 -213 CURVE",
"18 -196 LINE",
"85 -170 OFFCURVE",
"113 -144 OFFCURVE",
"113 -67 CURVE SMOOTH",
"113 481 LINE",
"28 481 LINE",
"28 499 LINE",
"130 499 LINE",
"130 -68 LINE SMOOTH"
);
}
);
width = 169;
},
{
layerId = "0D2E68F6-AD65-4FDC-99B3-7B414CE95F5B";
paths = (
{
closed = 1;
nodes = (
"209 -150 OFFCURVE",
"150 -215 OFFCURVE",
"59 -215 CURVE",
"29 -125 LINE",
"72 -115 OFFCURVE",
"99 -99 OFFCURVE",
"99 -50 CURVE SMOOTH",
"99 400 LINE",
"28 410 LINE",
"28 499 LINE",
"209 499 LINE",
"209 -61 LINE SMOOTH"
);
}
);
width = 250;
},
{
layerId = "BAA7A442-529C-4232-9150-0627B90683AA";
paths = (
{
closed = 1;
nodes = (
"116.4 -144 OFFCURVE",
"78.688 -185 OFFCURVE",
"-2.412 -209 CURVE",
"-9.275 -166 LINE",
"40.55 -148 OFFCURVE",
"67.625 -110 OFFCURVE",
"77.825 -62 CURVE SMOOTH",
"185.988 447 LINE",
"122.988 447 LINE",
"134.038 499 LINE",
"253.038 499 LINE",
"133.612 -63 LINE SMOOTH"
);
}
);
width = 187;
},
{
layerId = "EC4DDAD4-4840-4BAF-BE24-E50FF90D752F";
paths = (
{
closed = 1;
nodes = (
"177.125 -150 OFFCURVE",
"104.312 -215 OFFCURVE",
"13.312 -215 CURVE",
"2.438 -125 LINE",
"47.562 -115 OFFCURVE",
"77.963 -99 OFFCURVE",
"88.375 -50 CURVE SMOOTH",
"184 400 LINE",
"115.125 410 LINE",
"134.038 499 LINE",
"315.038 499 LINE",
"196.037 -61 LINE SMOOTH"
);
}
);
width = 250;
},
{
layerId = "350CE105-9128-4F96-9C2D-77D2DB4D6663";
paths = (
{
closed = 1;
nodes = (
"98.338 -149 OFFCURVE",
"59.625 -190 OFFCURVE",
"-21.263 -213 CURVE",
"-23.65 -196 LINE",
"48.875 -170 OFFCURVE",
"82.4 -144 OFFCURVE",
"98.762 -67 CURVE SMOOTH",
"215.213 481 LINE",
"130.213 481 LINE",
"134.038 499 LINE",
"236.038 499 LINE",
"115.55 -68 LINE SMOOTH"
);
}
);
width = 169;
}
);
unicode = 0237;
},
{
glyphname = k;
lastChange = "2019-02-08 07:35:54 +0000";
layers = (
{
layerId = master01;
paths = (
{
closed = 1;
nodes = (
"407 0 LINE",
"340 0 LINE",
"149 316 LINE",
"97 272 LINE",
"97 0 LINE",
"41 0 LINE",
"41 698 LINE",
"97 698 LINE",
"97 334 LINE",
"297 518 LINE",
"337 480 LINE",
"189 351 LINE"
);
}
);
width = 426;
},
{
layerId = "9D15C82E-7F80-48F0-B3D1-43822CDE4CEB";
paths = (
{
closed = 1;
nodes = (
"407 0 LINE",
"384 0 LINE",
"159 365 LINE",
"61 276 LINE",
"61 0 LINE",
"41 0 LINE",
"41 698 LINE",
"61 698 LINE",
"61 300 LINE",
"297 518 LINE",
"310 506 LINE",
"173 378 LINE"
);
}
);
width = 424;
},
{
layerId = "0D2E68F6-AD65-4FDC-99B3-7B414CE95F5B";
paths = (
{
closed = 1;
nodes = (
"454 0 LINE",
"315 0 LINE",
"165 254 LINE",
"151 240 LINE",
"151 0 LINE",
"41 0 LINE",
"41 698 LINE",
"151 698 LINE",
"151 382 LINE",
"301 519 LINE",
"381 443 LINE",
"250 332 LINE"
);
}
);
width = 473;
},
{
layerId = "BAA7A442-529C-4232-9150-0627B90683AA";
paths = (
{
closed = 1;
nodes = (
"407 0 LINE",
"340 0 LINE",
"216.182 316 LINE",
"154.827 272 LINE",
"97 0 LINE",
"41 0 LINE",
"189.395 698 LINE",
"245.395 698 LINE",
"168.008 334 LINE",
"407.127 518 LINE",
"439.048 480 LINE",
"263.623 351 LINE"
);
}
);
width = 426;
},
{
layerId = "EC4DDAD4-4840-4BAF-BE24-E50FF90D752F";
paths = (
{
closed = 1;
nodes = (
"454 0 LINE",
"320 0 LINE",
"219 254 LINE",
"202.024 240 LINE",
"151 0 LINE",
"41 0 LINE",
"189.395 698 LINE",
"299.395 698 LINE",
"232.213 382 LINE",
"411.339 519 LINE",
"475.182 443 LINE",
"316 327 LINE"
);
}
);
width = 473;
},
{
layerId = "350CE105-9128-4F96-9C2D-77D2DB4D6663";
paths = (
{
closed = 1;
nodes = (
"407 0 LINE",
"384 0 LINE",
"236.599 365 LINE",
"119.678 276 LINE",
"61 0 LINE",
"41 0 LINE",
"189.395 698 LINE",
"209.395 698 LINE",
"124.78 300 LINE",
"407.127 518 LINE",
"417.576 506 LINE",
"253.363 378 LINE"
);
}
);
width = 424;
}
);
leftKerningGroup = k;
rightKerningGroup = k;
unicode = 006B;
},
{
glyphname = l;
lastChange = "2019-02-08 07:35:54 +0000";
layers = (
{
layerId = master01;
paths = (
{
closed = 1;
nodes = (
"41 698 LINE",
"96 698 LINE",
"96 0 LINE",
"41 0 LINE"
);
}
);
width = 139;
},
{
layerId = "9D15C82E-7F80-48F0-B3D1-43822CDE4CEB";
paths = (
{
closed = 1;
nodes = (
"41 698 LINE",
"61 698 LINE",
"61 0 LINE",
"41 0 LINE"
);
}
);
width = 104;
},
{
layerId = "0D2E68F6-AD65-4FDC-99B3-7B414CE95F5B";
paths = (
{
closed = 1;
nodes = (
"41 698 LINE",
"151 698 LINE",
"151 0 LINE",
"41 0 LINE"
);
}
);
width = 194;
},
{
layerId = "BAA7A442-529C-4232-9150-0627B90683AA";
paths = (
{
closed = 1;
nodes = (
"189.395 698 LINE",
"244.395 698 LINE",
"96 0 LINE",
"41 0 LINE"
);
}
);
width = 139;
},
{
layerId = "EC4DDAD4-4840-4BAF-BE24-E50FF90D752F";
paths = (
{
closed = 1;
nodes = (
"189.395 698 LINE",
"299.395 698 LINE",
"151 0 LINE",
"41 0 LINE"
);
}
);
width = 194;
},
{
layerId = "350CE105-9128-4F96-9C2D-77D2DB4D6663";
paths = (
{
closed = 1;
nodes = (
"189.395 698 LINE",
"209.395 698 LINE",
"61 0 LINE",
"41 0 LINE"
);
}
);
width = 104;
}
);
leftKerningGroup = l;
rightKerningGroup = l;
unicode = 006C;
},
{
glyphname = lslash;
lastChange = "2019-02-08 07:35:54 +0000";
layers = (
{
layerId = master01;
paths = (
{
closed = 1;
nodes = (
"145 698 LINE",
"201 698 LINE",
"201 439 LINE",
"307 487 LINE",
"330 438 LINE",
"201 380 LINE",
"201 0 LINE",
"145 0 LINE",
"145 354 LINE",
"39 307 LINE",
"17 356 LINE",
"145 414 LINE"
);
}
);
width = 353;
},
{
layerId = "9D15C82E-7F80-48F0-B3D1-43822CDE4CEB";
paths = (
{
closed = 1;
nodes = (
"160 698 LINE",
"179 698 LINE",
"179 430 LINE",
"304 487 LINE",
"312 471 LINE",
"179 410 LINE",
"179 0 LINE",
"160 0 LINE",
"160 403 LINE",
"21 340 LINE",
"14 356 LINE",
"160 422 LINE"
);
}
);
width = 333;
},
{
layerId = "0D2E68F6-AD65-4FDC-99B3-7B414CE95F5B";
paths = (
{
closed = 1;
nodes = (
"124 698 LINE",
"234 698 LINE",
"234 453 LINE",
"314 488 LINE",
"350 409 LINE",
"234 356 LINE",
"234 0 LINE",
"124 0 LINE",
"124 306 LINE",
"59 277 LINE",
"22 358 LINE",
"124 403 LINE"
);
}
);
width = 376;
},
{
layerId = "BAA7A442-529C-4232-9150-0627B90683AA";
paths = (
{
closed = 1;
nodes = (
"293.364 698 LINE",
"349.364 698 LINE",
"294.312 439 LINE",
"410.515 487 LINE",
"423.1 438 LINE",
"281.771 380 LINE",
"201 0 LINE",
"145 0 LINE",
"220.245 354 LINE",
"104.255 307 LINE",
"92.67 356 LINE",
"232.998 414 LINE"
);
}
);
width = 353;
},
{
layerId = "EC4DDAD4-4840-4BAF-BE24-E50FF90D752F";
paths = (
{
closed = 1;
nodes = (
"272.364 698 LINE",
"382.364 698 LINE",
"330.288 453 LINE",
"417.728 488 LINE",
"436.936 409 LINE",
"309.67 356 LINE",
"234 0 LINE",
"124 0 LINE",
"189.042 306 LINE",
"117.878 277 LINE",
"98.095 358 LINE",
"209.66 403 LINE"
);
}
);
width = 376;
},
{
layerId = "350CE105-9128-4F96-9C2D-77D2DB4D6663";
paths = (
{
closed = 1;
nodes = (
"308.364 698 LINE",
"327.364 698 LINE",
"270.399 430 LINE",
"407.515 487 LINE",
"412.114 471 LINE",
"266.148 410 LINE",
"179 0 LINE",
"160 0 LINE",
"245.66 403 LINE",
"93.269 340 LINE",
"89.67 356 LINE",
"249.699 422 LINE"
);
}
);
width = 333;
}
);
leftKerningGroup = l;
rightKerningGroup = l;
unicode = 0142;
},
{
glyphname = m;
lastChange = "2019-02-08 07:35:54 +0000";
layers = (
{
layerId = master01;
paths = (
{
closed = 1;
nodes = (
"626 431.833 OFFCURVE",
"568.567 457 OFFCURVE",
"505 457 CURVE SMOOTH",
"466.333 457 OFFCURVE",
"423 446.333 OFFCURVE",
"375 417 CURVE",
"383 395.667 OFFCURVE",
"386 371 OFFCURVE",
"386 343 CURVE SMOOTH",
"386 0 LINE",
"334 0 LINE",
"334 341 LINE SMOOTH",
"334 431.833 OFFCURVE",
"276.567 457 OFFCURVE",
"213 457 CURVE SMOOTH",
"167.667 457 OFFCURVE",
"135.333 446 OFFCURVE",
"94 422 CURVE",
"94 0 LINE",
"38 0 LINE",
"38 498 LINE",
"94 498 LINE",
"94 464 LINE",
"134.659 490.232 OFFCURVE",
"173.494 507 OFFCURVE",
"223 507 CURVE SMOOTH",
"285.667 507 OFFCURVE",
"331.333 487 OFFCURVE",
"358 451 CURVE",
"401.988 484.259 OFFCURVE",
"459.449 507 OFFCURVE",
"515 507 CURVE SMOOTH",
"625.926 507 OFFCURVE",
"679 449.563 OFFCURVE",
"679 343 CURVE SMOOTH",
"679 0 LINE",
"626 0 LINE",
"626 341 LINE SMOOTH"
);
}
);
width = 715;
},
{
layerId = "9D15C82E-7F80-48F0-B3D1-43822CDE4CEB";
paths = (
{
closed = 1;
nodes = (
"662 456.967 OFFCURVE",
"609.988 500 OFFCURVE",
"502 492 CURVE",
"446 486.667 OFFCURVE",
"391 463.667 OFFCURVE",
"351 441 CURVE",
"361.667 417 OFFCURVE",
"370 385.667 OFFCURVE",
"370 343 CURVE SMOOTH",
"370 0 LINE",
"350 0 LINE",
"350 344 LINE SMOOTH",
"350 456.941 OFFCURVE",
"297.42 500.032 OFFCURVE",
"191 492 CURVE SMOOTH",
"131 486.667 OFFCURVE",
"94.333 469.667 OFFCURVE",
"57 451 CURVE",
"57 0 LINE",
"38 0 LINE",
"38 498 LINE",
"57 498 LINE",
"57 470 LINE",
"87.667 486 OFFCURVE",
"135.333 503 OFFCURVE",
"186 507 CURVE SMOOTH",
"243.698 512.129 OFFCURVE",
"307.802 507.349 OFFCURVE",
"342 454 CURVE",
"382.044 481.616 OFFCURVE",
"449.462 504.376 OFFCURVE",
"498 507 CURVE",
"583.007 514.969 OFFCURVE",
"679 498.729 OFFCURVE",
"679 343 CURVE SMOOTH",
"679 0 LINE",
"662 0 LINE",
"662 344 LINE SMOOTH"
);
}
);
width = 715;
},
{
layerId = "0D2E68F6-AD65-4FDC-99B3-7B414CE95F5B";
paths = (
{
closed = 1;
nodes = (
"572 380.717 OFFCURVE",
"536.55 408 OFFCURVE",
"494 408 CURVE SMOOTH",
"476.667 408 OFFCURVE",
"442.667 400 OFFCURVE",
"412 384 CURVE",
"414.667 372 OFFCURVE",
"415 358.667 OFFCURVE",
"415 344 CURVE SMOOTH",
"415 0 LINE",
"305 0 LINE",
"305 341 LINE SMOOTH",
"305 380.717 OFFCURVE",
"271.567 408 OFFCURVE",
"229 408 CURVE SMOOTH",
"206.333 408 OFFCURVE",
"179.667 400 OFFCURVE",
"149 384 CURVE",
"149 0 LINE",
"39 0 LINE",
"39 499 LINE",
"149 499 LINE",
"149 475 LINE",
"165 485.667 OFFCURVE",
"206.667 507 OFFCURVE",
"248 507 CURVE SMOOTH",
"294.667 507 OFFCURVE",
"343.667 495 OFFCURVE",
"377 459 CURVE",
"411.47 482.698 OFFCURVE",
"471.654 507 OFFCURVE",
"514 507 CURVE SMOOTH",
"592.823 507 OFFCURVE",
"682 472.026 OFFCURVE",
"682 344 CURVE SMOOTH",
"682 0 LINE",
"572 0 LINE",
"572 341 LINE SMOOTH"
);
}
);
width = 719;
},
{
layerId = "BAA7A442-529C-4232-9150-0627B90683AA";
paths = (
{
closed = 1;
nodes = (
"717.805 431.908 OFFCURVE",
"665.661 457 OFFCURVE",
"602.138 457 CURVE SMOOTH",
"563.472 457 OFFCURVE",
"517.871 446.333 OFFCURVE",
"463.636 417 CURVE",
"467.102 395.667 OFFCURVE",
"464.858 371 OFFCURVE",
"458.907 343 CURVE SMOOTH",
"386 0 LINE",
"334 0 LINE",
"406.482 341 LINE SMOOTH",
"425.805 431.908 OFFCURVE",
"373.66 457 OFFCURVE",
"310.138 457 CURVE SMOOTH",
"264.805 457 OFFCURVE",
"230.134 446 OFFCURVE",
"183.699 422 CURVE",
"94 0 LINE",
"38 0 LINE",
"143.853 498 LINE",
"199.853 498 LINE",
"192.626 464 LINE",
"239.628 490.667 OFFCURVE",
"281.433 507 OFFCURVE",
"330.766 507 CURVE SMOOTH",
"393.433 507 OFFCURVE",
"434.848 487 OFFCURVE",
"453.863 451 CURVE",
"517.315 492.333 OFFCURVE",
"580.1 507 OFFCURVE",
"622.766 507 CURVE SMOOTH",
"733.734 507 OFFCURVE",
"774.554 449.548 OFFCURVE",
"751.907 343 CURVE SMOOTH",
"679 0 LINE",
"626 0 LINE",
"698.482 341 LINE SMOOTH"
);
}
);
width = 715;
},
{
layerId = "EC4DDAD4-4840-4BAF-BE24-E50FF90D752F";
paths = (
{
closed = 1;
nodes = (
"652.939 380.79 OFFCURVE",
"623.273 408 OFFCURVE",
"580.723 408 CURVE SMOOTH",
"563.39 408 OFFCURVE",
"527.689 400 OFFCURVE",
"493.622 384 CURVE",
"493.738 372 OFFCURVE",
"491.237 358.667 OFFCURVE",
"488.12 344 CURVE SMOOTH",
"415 0 LINE",
"305 0 LINE",
"377.482 341 LINE SMOOTH",
"385.938 380.784 OFFCURVE",
"358.291 408 OFFCURVE",
"315.723 408 CURVE SMOOTH",
"293.056 408 OFFCURVE",
"264.689 400 OFFCURVE",
"230.622 384 CURVE",
"149 0 LINE",
"39 0 LINE",
"145.066 499 LINE",
"255.066 499 LINE",
"249.964 475 LINE",
"280.528 492.847 OFFCURVE",
"320.279 507 OFFCURVE",
"355.766 507 CURVE SMOOTH",
"402.433 507 OFFCURVE",
"448.882 495 OFFCURVE",
"474.563 459 CURVE",
"511.945 481.423 OFFCURVE",
"577.672 507 OFFCURVE",
"621.766 507 CURVE SMOOTH",
"700.574 507 OFFCURVE",
"782.339 472.057 OFFCURVE",
"755.119 344 CURVE SMOOTH",
"682 0 LINE",
"572 0 LINE",
"644.482 341 LINE SMOOTH"
);
}
);
width = 719;
},
{
layerId = "350CE105-9128-4F96-9C2D-77D2DB4D6663";
paths = (
{
closed = 1;
nodes = (
"759.135 456.985 OFFCURVE",
"716.18 499.993 OFFCURVE",
"606.578 492 CURVE",
"549.444 486.667 OFFCURVE",
"489.555 463.667 OFFCURVE",
"444.737 441 CURVE",
"450.303 417 OFFCURVE",
"451.976 385.667 OFFCURVE",
"442.907 343 CURVE SMOOTH",
"370 0 LINE",
"350 0 LINE",
"423.119 344 LINE SMOOTH",
"447.135 456.985 OFFCURVE",
"403.61 500.025 OFFCURVE",
"295.578 492 CURVE SMOOTH",
"234.444 486.667 OFFCURVE",
"194.164 469.667 OFFCURVE",
"152.863 451 CURVE",
"57 0 LINE",
"38 0 LINE",
"143.853 498 LINE",
"162.853 498 LINE",
"156.902 470 LINE",
"190.969 486 OFFCURVE",
"242.249 503 OFFCURVE",
"293.766 507 CURVE SMOOTH",
"346.071 511.563 OFFCURVE",
"414.486 510.048 OFFCURVE",
"438.501 454 CURVE",
"482.488 480.458 OFFCURVE",
"554.458 504.258 OFFCURVE",
"605.766 507 CURVE",
"692.224 514.947 OFFCURVE",
"785.041 498.882 OFFCURVE",
"751.907 343 CURVE SMOOTH",
"679 0 LINE",
"662 0 LINE",
"735.119 344 LINE SMOOTH"
);
}
);
width = 715;
}
);
leftKerningGroup = m;
rightKerningGroup = m;
unicode = 006D;
},
